G75*
%MOIN*%
%OFA0B0*%
%FSLAX24Y24*%
%IPPOS*%
%LPD*%
%AMOC8*
5,1,8,0,0,1.08239X$1,22.5*
%
%ADD10C,0.0010*%
%ADD11C,0.0000*%
%ADD12C,0.0650*%
D10*
X000105Y000105D02*
X000105Y022152D01*
X002467Y022152D01*
X002467Y000105D01*
X000105Y000105D01*
X002743Y000605D02*
X002743Y021605D01*
X002745Y021649D01*
X002751Y021692D01*
X002760Y021734D01*
X002773Y021776D01*
X002790Y021816D01*
X002810Y021855D01*
X002833Y021892D01*
X002860Y021926D01*
X002889Y021959D01*
X002922Y021988D01*
X002956Y022015D01*
X002993Y022038D01*
X003032Y022058D01*
X003072Y022075D01*
X003114Y022088D01*
X003156Y022097D01*
X003199Y022103D01*
X003243Y022105D01*
X009243Y022105D01*
X009287Y022103D01*
X009330Y022097D01*
X009372Y022088D01*
X009414Y022075D01*
X009454Y022058D01*
X009493Y022038D01*
X009530Y022015D01*
X009564Y021988D01*
X009597Y021959D01*
X009626Y021926D01*
X009653Y021892D01*
X009676Y021855D01*
X009696Y021816D01*
X009713Y021776D01*
X009726Y021734D01*
X009735Y021692D01*
X009741Y021649D01*
X009743Y021605D01*
X009743Y000605D01*
X010018Y000605D02*
X010018Y021605D01*
X010020Y021649D01*
X010026Y021692D01*
X010035Y021734D01*
X010048Y021776D01*
X010065Y021816D01*
X010085Y021855D01*
X010108Y021892D01*
X010135Y021926D01*
X010164Y021959D01*
X010197Y021988D01*
X010231Y022015D01*
X010268Y022038D01*
X010307Y022058D01*
X010347Y022075D01*
X010389Y022088D01*
X010431Y022097D01*
X010474Y022103D01*
X010518Y022105D01*
X016518Y022105D01*
X016562Y022103D01*
X016605Y022097D01*
X016647Y022088D01*
X016689Y022075D01*
X016729Y022058D01*
X016768Y022038D01*
X016805Y022015D01*
X016839Y021988D01*
X016872Y021959D01*
X016901Y021926D01*
X016928Y021892D01*
X016951Y021855D01*
X016971Y021816D01*
X016988Y021776D01*
X017001Y021734D01*
X017010Y021692D01*
X017016Y021649D01*
X017018Y021605D01*
X017018Y000605D01*
X017294Y000605D02*
X017294Y021605D01*
X017296Y021649D01*
X017302Y021692D01*
X017311Y021734D01*
X017324Y021776D01*
X017341Y021816D01*
X017361Y021855D01*
X017384Y021892D01*
X017411Y021926D01*
X017440Y021959D01*
X017473Y021988D01*
X017507Y022015D01*
X017544Y022038D01*
X017583Y022058D01*
X017623Y022075D01*
X017665Y022088D01*
X017707Y022097D01*
X017750Y022103D01*
X017794Y022105D01*
X023794Y022105D01*
X023838Y022103D01*
X023881Y022097D01*
X023923Y022088D01*
X023965Y022075D01*
X024005Y022058D01*
X024044Y022038D01*
X024081Y022015D01*
X024115Y021988D01*
X024148Y021959D01*
X024177Y021926D01*
X024204Y021892D01*
X024227Y021855D01*
X024247Y021816D01*
X024264Y021776D01*
X024277Y021734D01*
X024286Y021692D01*
X024292Y021649D01*
X024294Y021605D01*
X024294Y000605D01*
X024570Y000605D02*
X024570Y021605D01*
X024572Y021649D01*
X024578Y021692D01*
X024587Y021734D01*
X024600Y021776D01*
X024617Y021816D01*
X024637Y021855D01*
X024660Y021892D01*
X024687Y021926D01*
X024716Y021959D01*
X024749Y021988D01*
X024783Y022015D01*
X024820Y022038D01*
X024859Y022058D01*
X024899Y022075D01*
X024941Y022088D01*
X024983Y022097D01*
X025026Y022103D01*
X025070Y022105D01*
X031070Y022105D01*
X031114Y022103D01*
X031157Y022097D01*
X031199Y022088D01*
X031241Y022075D01*
X031281Y022058D01*
X031320Y022038D01*
X031357Y022015D01*
X031391Y021988D01*
X031424Y021959D01*
X031453Y021926D01*
X031480Y021892D01*
X031503Y021855D01*
X031523Y021816D01*
X031540Y021776D01*
X031553Y021734D01*
X031562Y021692D01*
X031568Y021649D01*
X031570Y021605D01*
X031570Y000605D01*
X031568Y000561D01*
X031562Y000518D01*
X031553Y000476D01*
X031540Y000434D01*
X031523Y000394D01*
X031503Y000355D01*
X031480Y000318D01*
X031453Y000284D01*
X031424Y000251D01*
X031391Y000222D01*
X031357Y000195D01*
X031320Y000172D01*
X031281Y000152D01*
X031241Y000135D01*
X031199Y000122D01*
X031157Y000113D01*
X031114Y000107D01*
X031070Y000105D01*
X025070Y000105D01*
X023794Y000105D02*
X017794Y000105D01*
X016518Y000105D02*
X010518Y000105D01*
X009243Y000105D02*
X003243Y000105D01*
X009243Y000105D02*
X009287Y000107D01*
X009330Y000113D01*
X009372Y000122D01*
X009414Y000135D01*
X009454Y000152D01*
X009493Y000172D01*
X009530Y000195D01*
X009564Y000222D01*
X009597Y000251D01*
X009626Y000284D01*
X009653Y000318D01*
X009676Y000355D01*
X009696Y000394D01*
X009713Y000434D01*
X009726Y000476D01*
X009735Y000518D01*
X009741Y000561D01*
X009743Y000605D01*
X016518Y000105D02*
X016562Y000107D01*
X016605Y000113D01*
X016647Y000122D01*
X016689Y000135D01*
X016729Y000152D01*
X016768Y000172D01*
X016805Y000195D01*
X016839Y000222D01*
X016872Y000251D01*
X016901Y000284D01*
X016928Y000318D01*
X016951Y000355D01*
X016971Y000394D01*
X016988Y000434D01*
X017001Y000476D01*
X017010Y000518D01*
X017016Y000561D01*
X017018Y000605D01*
X023794Y000105D02*
X023838Y000107D01*
X023881Y000113D01*
X023923Y000122D01*
X023965Y000135D01*
X024005Y000152D01*
X024044Y000172D01*
X024081Y000195D01*
X024115Y000222D01*
X024148Y000251D01*
X024177Y000284D01*
X024204Y000318D01*
X024227Y000355D01*
X024247Y000394D01*
X024264Y000434D01*
X024277Y000476D01*
X024286Y000518D01*
X024292Y000561D01*
X024294Y000605D01*
X031845Y000105D02*
X031845Y022152D01*
X034207Y022152D01*
X034207Y000105D01*
X031845Y000105D01*
D11*
X025070Y000105D02*
X025026Y000107D01*
X024983Y000113D01*
X024941Y000122D01*
X024899Y000135D01*
X024859Y000152D01*
X024820Y000172D01*
X024783Y000195D01*
X024749Y000222D01*
X024716Y000251D01*
X024687Y000284D01*
X024660Y000318D01*
X024637Y000355D01*
X024617Y000394D01*
X024600Y000434D01*
X024587Y000476D01*
X024578Y000518D01*
X024572Y000561D01*
X024570Y000605D01*
X017794Y000105D02*
X017750Y000107D01*
X017707Y000113D01*
X017665Y000122D01*
X017623Y000135D01*
X017583Y000152D01*
X017544Y000172D01*
X017507Y000195D01*
X017473Y000222D01*
X017440Y000251D01*
X017411Y000284D01*
X017384Y000318D01*
X017361Y000355D01*
X017341Y000394D01*
X017324Y000434D01*
X017311Y000476D01*
X017302Y000518D01*
X017296Y000561D01*
X017294Y000605D01*
X010518Y000105D02*
X010474Y000107D01*
X010431Y000113D01*
X010389Y000122D01*
X010347Y000135D01*
X010307Y000152D01*
X010268Y000172D01*
X010231Y000195D01*
X010197Y000222D01*
X010164Y000251D01*
X010135Y000284D01*
X010108Y000318D01*
X010085Y000355D01*
X010065Y000394D01*
X010048Y000434D01*
X010035Y000476D01*
X010026Y000518D01*
X010020Y000561D01*
X010018Y000605D01*
X003243Y000105D02*
X003199Y000107D01*
X003156Y000113D01*
X003114Y000122D01*
X003072Y000135D01*
X003032Y000152D01*
X002993Y000172D01*
X002956Y000195D01*
X002922Y000222D01*
X002889Y000251D01*
X002860Y000284D01*
X002833Y000318D01*
X002810Y000355D01*
X002790Y000394D01*
X002773Y000434D01*
X002760Y000476D01*
X002751Y000518D01*
X002745Y000561D01*
X002743Y000605D01*
D12*
X005743Y001605D03*
X006743Y001605D03*
X006743Y002605D03*
X005743Y002605D03*
X005743Y003605D03*
X006743Y003605D03*
X006743Y004605D03*
X005743Y004605D03*
X005743Y005605D03*
X006743Y005605D03*
X006743Y006605D03*
X005743Y006605D03*
X005743Y007605D03*
X006743Y007605D03*
X006743Y008605D03*
X005743Y008605D03*
X005743Y009605D03*
X006743Y009605D03*
X006743Y010605D03*
X005743Y010605D03*
X005743Y011605D03*
X006743Y011605D03*
X006743Y012605D03*
X005743Y012605D03*
X005743Y013605D03*
X006743Y013605D03*
X006743Y014605D03*
X005743Y014605D03*
X005743Y015605D03*
X006743Y015605D03*
X006743Y016605D03*
X005743Y016605D03*
X005743Y017605D03*
X006743Y017605D03*
X006743Y018605D03*
X005743Y018605D03*
X005743Y019605D03*
X006743Y019605D03*
X006743Y020605D03*
X005743Y020605D03*
X013018Y020605D03*
X014018Y020605D03*
X014018Y019605D03*
X013018Y019605D03*
X013018Y018605D03*
X014018Y018605D03*
X014018Y017605D03*
X013018Y017605D03*
X013018Y016605D03*
X014018Y016605D03*
X014018Y015605D03*
X013018Y015605D03*
X013018Y014605D03*
X014018Y014605D03*
X014018Y013605D03*
X013018Y013605D03*
X013018Y012605D03*
X014018Y012605D03*
X014018Y011605D03*
X013018Y011605D03*
X013018Y010605D03*
X014018Y010605D03*
X014018Y009605D03*
X013018Y009605D03*
X013018Y008605D03*
X014018Y008605D03*
X014018Y007605D03*
X013018Y007605D03*
X013018Y006605D03*
X014018Y006605D03*
X014018Y005605D03*
X013018Y005605D03*
X013018Y004605D03*
X014018Y004605D03*
X014018Y003605D03*
X013018Y003605D03*
X013018Y002605D03*
X014018Y002605D03*
X014018Y001605D03*
X013018Y001605D03*
X020294Y001605D03*
X021294Y001605D03*
X021294Y002605D03*
X020294Y002605D03*
X020294Y003605D03*
X021294Y003605D03*
X021294Y004605D03*
X020294Y004605D03*
X020294Y005605D03*
X021294Y005605D03*
X021294Y006605D03*
X020294Y006605D03*
X020294Y007605D03*
X021294Y007605D03*
X021294Y008605D03*
X020294Y008605D03*
X020294Y009605D03*
X021294Y009605D03*
X021294Y010605D03*
X020294Y010605D03*
X020294Y011605D03*
X021294Y011605D03*
X021294Y012605D03*
X020294Y012605D03*
X020294Y013605D03*
X021294Y013605D03*
X021294Y014605D03*
X020294Y014605D03*
X020294Y015605D03*
X021294Y015605D03*
X021294Y016605D03*
X020294Y016605D03*
X020294Y017605D03*
X021294Y017605D03*
X021294Y018605D03*
X020294Y018605D03*
X020294Y019605D03*
X021294Y019605D03*
X021294Y020605D03*
X020294Y020605D03*
X027570Y020605D03*
X028570Y020605D03*
X028570Y019605D03*
X027570Y019605D03*
X027570Y018605D03*
X028570Y018605D03*
X028570Y017605D03*
X027570Y017605D03*
X027570Y016605D03*
X028570Y016605D03*
X028570Y015605D03*
X027570Y015605D03*
X027570Y014605D03*
X028570Y014605D03*
X028570Y013605D03*
X027570Y013605D03*
X027570Y012605D03*
X028570Y012605D03*
X028570Y011605D03*
X027570Y011605D03*
X027570Y010605D03*
X028570Y010605D03*
X028570Y009605D03*
X027570Y009605D03*
X027570Y008605D03*
X028570Y008605D03*
X028570Y007605D03*
X027570Y007605D03*
X027570Y006605D03*
X028570Y006605D03*
X028570Y005605D03*
X027570Y005605D03*
X027570Y004605D03*
X028570Y004605D03*
X028570Y003605D03*
X027570Y003605D03*
X027570Y002605D03*
X028570Y002605D03*
X028570Y001605D03*
X027570Y001605D03*
M02*
