%
M48
M72
T01C0.0400
%
T01
X5743Y1605
X6743Y1605
X6743Y2605
X5743Y2605
X5743Y3605
X6743Y3605
X6743Y4605
X5743Y4605
X5743Y5605
X6743Y5605
X6743Y6605
X5743Y6605
X5743Y7605
X6743Y7605
X6743Y8605
X5743Y8605
X5743Y9605
X6743Y9605
X6743Y10605
X5743Y10605
X5743Y11605
X6743Y11605
X6743Y12605
X5743Y12605
X5743Y13605
X6743Y13605
X6743Y14605
X5743Y14605
X5743Y15605
X6743Y15605
X6743Y16605
X5743Y16605
X5743Y17605
X6743Y17605
X6743Y18605
X5743Y18605
X5743Y19605
X6743Y19605
X6743Y20605
X5743Y20605
X13018Y20605
X14018Y20605
X14018Y19605
X13018Y19605
X13018Y18605
X14018Y18605
X14018Y17605
X13018Y17605
X13018Y16605
X14018Y16605
X14018Y15605
X13018Y15605
X13018Y14605
X14018Y14605
X14018Y13605
X13018Y13605
X13018Y12605
X14018Y12605
X14018Y11605
X13018Y11605
X13018Y10605
X14018Y10605
X14018Y9605
X13018Y9605
X13018Y8605
X14018Y8605
X14018Y7605
X13018Y7605
X13018Y6605
X14018Y6605
X14018Y5605
X13018Y5605
X13018Y4605
X14018Y4605
X14018Y3605
X13018Y3605
X13018Y2605
X14018Y2605
X14018Y1605
X13018Y1605
X20294Y1605
X21294Y1605
X21294Y2605
X20294Y2605
X20294Y3605
X21294Y3605
X21294Y4605
X20294Y4605
X20294Y5605
X21294Y5605
X21294Y6605
X20294Y6605
X20294Y7605
X21294Y7605
X21294Y8605
X20294Y8605
X20294Y9605
X21294Y9605
X21294Y10605
X20294Y10605
X20294Y11605
X21294Y11605
X21294Y12605
X20294Y12605
X20294Y13605
X21294Y13605
X21294Y14605
X20294Y14605
X20294Y15605
X21294Y15605
X21294Y16605
X20294Y16605
X20294Y17605
X21294Y17605
X21294Y18605
X20294Y18605
X20294Y19605
X21294Y19605
X21294Y20605
X20294Y20605
X27570Y20605
X28570Y20605
X28570Y19605
X27570Y19605
X27570Y18605
X28570Y18605
X28570Y17605
X27570Y17605
X27570Y16605
X28570Y16605
X28570Y15605
X27570Y15605
X27570Y14605
X28570Y14605
X28570Y13605
X27570Y13605
X27570Y12605
X28570Y12605
X28570Y11605
X27570Y11605
X27570Y10605
X28570Y10605
X28570Y9605
X27570Y9605
X27570Y8605
X28570Y8605
X28570Y7605
X27570Y7605
X27570Y6605
X28570Y6605
X28570Y5605
X27570Y5605
X27570Y4605
X28570Y4605
X28570Y3605
X27570Y3605
X27570Y2605
X28570Y2605
X28570Y1605
X27570Y1605
M30
