G75*
%MOIN*%
%OFA0B0*%
%FSLAX24Y24*%
%IPPOS*%
%LPD*%
%AMOC8*
5,1,8,0,0,1.08239X$1,22.5*
%
%ADD10C,0.0050*%
%ADD11C,0.0030*%
%ADD12C,0.0040*%
%ADD13C,0.0100*%
%ADD14C,0.0080*%
%ADD15C,0.0010*%
D10*
X003737Y001455D02*
X003812Y001380D01*
X003962Y001380D01*
X004037Y001455D01*
X004037Y001605D01*
X003887Y001605D01*
X004037Y001755D02*
X003962Y001830D01*
X003812Y001830D01*
X003737Y001755D01*
X003737Y001455D01*
X004197Y001380D02*
X004197Y001830D01*
X004497Y001380D01*
X004497Y001830D01*
X004657Y001830D02*
X004883Y001830D01*
X004958Y001755D01*
X004958Y001455D01*
X004883Y001380D01*
X004657Y001380D01*
X004657Y001830D01*
X004732Y002380D02*
X004883Y002380D01*
X004958Y002455D01*
X004958Y002530D01*
X004883Y002605D01*
X004657Y002605D01*
X004657Y002455D01*
X004732Y002380D01*
X004497Y002380D02*
X004197Y002380D01*
X004497Y002680D01*
X004497Y002755D01*
X004422Y002830D01*
X004272Y002830D01*
X004197Y002755D01*
X004037Y002755D02*
X004037Y002605D01*
X003962Y002530D01*
X003737Y002530D01*
X003737Y002380D02*
X003737Y002830D01*
X003962Y002830D01*
X004037Y002755D01*
X003576Y002755D02*
X003501Y002830D01*
X003351Y002830D01*
X003276Y002755D01*
X003276Y002455D01*
X003351Y002380D01*
X003501Y002380D01*
X003576Y002455D01*
X003576Y002605D01*
X003426Y002605D01*
X003351Y003380D02*
X003501Y003380D01*
X003576Y003455D01*
X003576Y003605D01*
X003426Y003605D01*
X003276Y003755D02*
X003276Y003455D01*
X003351Y003380D01*
X003276Y003755D02*
X003351Y003830D01*
X003501Y003830D01*
X003576Y003755D01*
X003737Y003830D02*
X003737Y003380D01*
X003737Y003530D02*
X003962Y003530D01*
X004037Y003605D01*
X004037Y003755D01*
X003962Y003830D01*
X003737Y003830D01*
X004197Y003680D02*
X004347Y003830D01*
X004347Y003380D01*
X004197Y003380D02*
X004497Y003380D01*
X004657Y003455D02*
X004732Y003380D01*
X004883Y003380D01*
X004958Y003455D01*
X004958Y003755D01*
X004883Y003830D01*
X004732Y003830D01*
X004657Y003755D01*
X004657Y003680D01*
X004732Y003605D01*
X004958Y003605D01*
X004883Y004380D02*
X004732Y004380D01*
X004657Y004455D01*
X004497Y004380D02*
X004197Y004380D01*
X004347Y004380D02*
X004347Y004830D01*
X004197Y004680D01*
X004037Y004605D02*
X003962Y004530D01*
X003737Y004530D01*
X003737Y004380D02*
X003737Y004830D01*
X003962Y004830D01*
X004037Y004755D01*
X004037Y004605D01*
X003576Y004605D02*
X003426Y004605D01*
X003576Y004605D02*
X003576Y004455D01*
X003501Y004380D01*
X003351Y004380D01*
X003276Y004455D01*
X003276Y004755D01*
X003351Y004830D01*
X003501Y004830D01*
X003576Y004755D01*
X003812Y005380D02*
X003737Y005455D01*
X003737Y005755D01*
X003812Y005830D01*
X003962Y005830D01*
X004037Y005755D01*
X004037Y005605D02*
X003887Y005605D01*
X004037Y005605D02*
X004037Y005455D01*
X003962Y005380D01*
X003812Y005380D01*
X004197Y005380D02*
X004197Y005830D01*
X004422Y005830D01*
X004497Y005755D01*
X004497Y005605D01*
X004422Y005530D01*
X004197Y005530D01*
X004657Y005605D02*
X004657Y005455D01*
X004732Y005380D01*
X004883Y005380D01*
X004958Y005455D01*
X004958Y005530D01*
X004883Y005605D01*
X004657Y005605D01*
X004808Y005755D01*
X004958Y005830D01*
X004883Y006380D02*
X004732Y006380D01*
X004657Y006455D01*
X004657Y006605D02*
X004808Y006680D01*
X004883Y006680D01*
X004958Y006605D01*
X004958Y006455D01*
X004883Y006380D01*
X004657Y006605D02*
X004657Y006830D01*
X004958Y006830D01*
X004497Y006755D02*
X004497Y006605D01*
X004422Y006530D01*
X004197Y006530D01*
X004197Y006380D02*
X004197Y006830D01*
X004422Y006830D01*
X004497Y006755D01*
X004037Y006755D02*
X003962Y006830D01*
X003812Y006830D01*
X003737Y006755D01*
X003737Y006455D01*
X003812Y006380D01*
X003962Y006380D01*
X004037Y006455D01*
X004037Y006605D01*
X003887Y006605D01*
X003967Y007380D02*
X004042Y007380D01*
X004042Y007455D01*
X003967Y007455D01*
X003967Y007380D01*
X003807Y007455D02*
X003807Y007755D01*
X003732Y007830D01*
X003506Y007830D01*
X003506Y007380D01*
X003732Y007380D01*
X003807Y007455D01*
X004197Y007455D02*
X004272Y007380D01*
X004422Y007380D01*
X004497Y007455D01*
X004497Y007530D01*
X004422Y007605D01*
X004272Y007605D01*
X004197Y007680D01*
X004197Y007755D01*
X004272Y007830D01*
X004422Y007830D01*
X004497Y007755D01*
X004657Y007830D02*
X004657Y007380D01*
X004883Y007380D01*
X004958Y007455D01*
X004958Y007755D01*
X004883Y007830D01*
X004657Y007830D01*
X004657Y008380D02*
X004883Y008380D01*
X004958Y008455D01*
X004958Y008755D01*
X004883Y008830D01*
X004657Y008830D01*
X004657Y008380D01*
X004497Y008380D02*
X004497Y008830D01*
X004197Y008830D02*
X004497Y008380D01*
X004197Y008380D02*
X004197Y008830D01*
X004037Y008755D02*
X003962Y008830D01*
X003812Y008830D01*
X003737Y008755D01*
X003737Y008455D01*
X003812Y008380D01*
X003962Y008380D01*
X004037Y008455D01*
X004037Y008605D01*
X003887Y008605D01*
X003350Y007830D02*
X003199Y007830D01*
X003275Y007830D02*
X003275Y007380D01*
X003350Y007380D02*
X003199Y007380D01*
X003351Y009380D02*
X003501Y009380D01*
X003576Y009455D01*
X003576Y009605D01*
X003426Y009605D01*
X003276Y009755D02*
X003276Y009455D01*
X003351Y009380D01*
X003276Y009755D02*
X003351Y009830D01*
X003501Y009830D01*
X003576Y009755D01*
X003737Y009830D02*
X003737Y009380D01*
X003737Y009530D02*
X003962Y009530D01*
X004037Y009605D01*
X004037Y009755D01*
X003962Y009830D01*
X003737Y009830D01*
X004197Y009680D02*
X004347Y009830D01*
X004347Y009380D01*
X004197Y009380D02*
X004497Y009380D01*
X004657Y009380D02*
X004958Y009380D01*
X004808Y009380D02*
X004808Y009830D01*
X004657Y009680D01*
X004732Y010380D02*
X004883Y010380D01*
X004958Y010455D01*
X004958Y010755D01*
X004883Y010830D01*
X004732Y010830D01*
X004657Y010755D01*
X004657Y010680D01*
X004732Y010605D01*
X004958Y010605D01*
X004732Y010380D02*
X004657Y010455D01*
X004497Y010605D02*
X004422Y010530D01*
X004197Y010530D01*
X004197Y010380D02*
X004197Y010830D01*
X004422Y010830D01*
X004497Y010755D01*
X004497Y010605D01*
X004037Y010605D02*
X004037Y010455D01*
X003962Y010380D01*
X003812Y010380D01*
X003737Y010455D01*
X003737Y010755D01*
X003812Y010830D01*
X003962Y010830D01*
X004037Y010755D01*
X004037Y010605D02*
X003887Y010605D01*
X003737Y011380D02*
X003737Y011830D01*
X003962Y011830D01*
X004037Y011755D01*
X004037Y011605D01*
X003962Y011530D01*
X003737Y011530D01*
X003576Y011455D02*
X003576Y011605D01*
X003426Y011605D01*
X003276Y011755D02*
X003276Y011455D01*
X003351Y011380D01*
X003501Y011380D01*
X003576Y011455D01*
X003576Y011755D02*
X003501Y011830D01*
X003351Y011830D01*
X003276Y011755D01*
X003812Y012380D02*
X003737Y012455D01*
X003812Y012380D02*
X003962Y012380D01*
X004037Y012455D01*
X004037Y012530D01*
X003962Y012605D01*
X003887Y012605D01*
X003962Y012605D02*
X004037Y012680D01*
X004037Y012755D01*
X003962Y012830D01*
X003812Y012830D01*
X003737Y012755D01*
X004197Y012830D02*
X004197Y012530D01*
X004347Y012380D01*
X004497Y012530D01*
X004497Y012830D01*
X004657Y012755D02*
X004732Y012830D01*
X004883Y012830D01*
X004958Y012755D01*
X004958Y012680D01*
X004883Y012605D01*
X004958Y012530D01*
X004958Y012455D01*
X004883Y012380D01*
X004732Y012380D01*
X004657Y012455D01*
X004808Y012605D02*
X004883Y012605D01*
X004883Y011830D02*
X004732Y011830D01*
X004657Y011755D01*
X004657Y011455D01*
X004958Y011755D01*
X004958Y011455D01*
X004883Y011380D01*
X004732Y011380D01*
X004657Y011455D01*
X004497Y011380D02*
X004197Y011380D01*
X004347Y011380D02*
X004347Y011830D01*
X004197Y011680D01*
X004883Y011830D02*
X004958Y011755D01*
X007518Y011755D02*
X007518Y011455D01*
X007593Y011380D01*
X007743Y011380D01*
X007818Y011455D01*
X007818Y011605D01*
X007668Y011605D01*
X007818Y011755D02*
X007743Y011830D01*
X007593Y011830D01*
X007518Y011755D01*
X007978Y011830D02*
X007978Y011380D01*
X008278Y011380D02*
X008278Y011830D01*
X008439Y011830D02*
X008664Y011830D01*
X008739Y011755D01*
X008739Y011455D01*
X008664Y011380D01*
X008439Y011380D01*
X008439Y011830D01*
X007978Y011830D02*
X008278Y011380D01*
X008203Y010830D02*
X008278Y010755D01*
X008278Y010605D01*
X008203Y010530D01*
X007978Y010530D01*
X007978Y010380D02*
X007978Y010830D01*
X008203Y010830D01*
X008439Y010755D02*
X008514Y010830D01*
X008664Y010830D01*
X008739Y010755D01*
X008739Y010680D01*
X008439Y010380D01*
X008739Y010380D01*
X008899Y010455D02*
X008974Y010380D01*
X009124Y010380D01*
X009199Y010455D01*
X009199Y010605D01*
X009124Y010680D01*
X009049Y010680D01*
X008899Y010605D01*
X008899Y010830D01*
X009199Y010830D01*
X008664Y009830D02*
X008514Y009830D01*
X008439Y009755D01*
X008439Y009680D01*
X008514Y009605D01*
X008664Y009605D01*
X008739Y009530D01*
X008739Y009455D01*
X008664Y009380D01*
X008514Y009380D01*
X008439Y009455D01*
X008439Y009530D01*
X008514Y009605D01*
X008664Y009605D02*
X008739Y009680D01*
X008739Y009755D01*
X008664Y009830D01*
X008278Y009755D02*
X008278Y009605D01*
X008203Y009530D01*
X007978Y009530D01*
X007978Y009380D02*
X007978Y009830D01*
X008203Y009830D01*
X008278Y009755D01*
X007818Y009755D02*
X007743Y009830D01*
X007593Y009830D01*
X007518Y009755D01*
X007518Y009455D01*
X007593Y009380D01*
X007743Y009380D01*
X007818Y009455D01*
X007818Y009605D01*
X007668Y009605D01*
X007743Y010380D02*
X007818Y010455D01*
X007818Y010605D01*
X007668Y010605D01*
X007518Y010455D02*
X007593Y010380D01*
X007743Y010380D01*
X007518Y010455D02*
X007518Y010755D01*
X007593Y010830D01*
X007743Y010830D01*
X007818Y010755D01*
X007743Y012380D02*
X007818Y012455D01*
X007818Y012605D01*
X007668Y012605D01*
X007518Y012455D02*
X007593Y012380D01*
X007743Y012380D01*
X007978Y012380D02*
X007978Y012830D01*
X008203Y012830D01*
X008278Y012755D01*
X008278Y012605D01*
X008203Y012530D01*
X007978Y012530D01*
X007818Y012755D02*
X007743Y012830D01*
X007593Y012830D01*
X007518Y012755D01*
X007518Y012455D01*
X008439Y012380D02*
X008739Y012680D01*
X008739Y012755D01*
X008664Y012830D01*
X008514Y012830D01*
X008439Y012755D01*
X008899Y012605D02*
X009199Y012605D01*
X009124Y012380D02*
X009124Y012830D01*
X008899Y012605D01*
X008739Y012380D02*
X008439Y012380D01*
X008439Y013380D02*
X008739Y013680D01*
X008739Y013755D01*
X008664Y013830D01*
X008514Y013830D01*
X008439Y013755D01*
X008278Y013755D02*
X008278Y013605D01*
X008203Y013530D01*
X007978Y013530D01*
X007978Y013380D02*
X007978Y013830D01*
X008203Y013830D01*
X008278Y013755D01*
X008439Y013380D02*
X008739Y013380D01*
X008899Y013455D02*
X008974Y013380D01*
X009124Y013380D01*
X009199Y013455D01*
X009199Y013530D01*
X009124Y013605D01*
X009049Y013605D01*
X009124Y013605D02*
X009199Y013680D01*
X009199Y013755D01*
X009124Y013830D01*
X008974Y013830D01*
X008899Y013755D01*
X008664Y014380D02*
X008439Y014380D01*
X008439Y014830D01*
X008664Y014830D01*
X008739Y014755D01*
X008739Y014455D01*
X008664Y014380D01*
X008278Y014380D02*
X008278Y014830D01*
X007978Y014830D02*
X008278Y014380D01*
X007978Y014380D02*
X007978Y014830D01*
X007818Y014755D02*
X007743Y014830D01*
X007593Y014830D01*
X007518Y014755D01*
X007518Y014455D01*
X007593Y014380D01*
X007743Y014380D01*
X007818Y014455D01*
X007818Y014605D01*
X007668Y014605D01*
X007743Y013830D02*
X007593Y013830D01*
X007518Y013755D01*
X007518Y013455D01*
X007593Y013380D01*
X007743Y013380D01*
X007818Y013455D01*
X007818Y013605D01*
X007668Y013605D01*
X007818Y013755D02*
X007743Y013830D01*
X007743Y015380D02*
X007818Y015455D01*
X007818Y015605D01*
X007668Y015605D01*
X007518Y015455D02*
X007593Y015380D01*
X007743Y015380D01*
X007978Y015380D02*
X007978Y015830D01*
X008203Y015830D01*
X008278Y015755D01*
X008278Y015605D01*
X008203Y015530D01*
X007978Y015530D01*
X007818Y015755D02*
X007743Y015830D01*
X007593Y015830D01*
X007518Y015755D01*
X007518Y015455D01*
X008439Y015380D02*
X008739Y015380D01*
X008589Y015380D02*
X008589Y015830D01*
X008439Y015680D01*
X008899Y015680D02*
X008899Y015755D01*
X008974Y015830D01*
X009124Y015830D01*
X009199Y015755D01*
X009199Y015680D01*
X009124Y015605D01*
X008974Y015605D01*
X008899Y015680D01*
X008974Y015605D02*
X008899Y015530D01*
X008899Y015455D01*
X008974Y015380D01*
X009124Y015380D01*
X009199Y015455D01*
X009199Y015530D01*
X009124Y015605D01*
X009124Y016380D02*
X008974Y016380D01*
X008899Y016455D01*
X008899Y016605D02*
X009049Y016680D01*
X009124Y016680D01*
X009199Y016605D01*
X009199Y016455D01*
X009124Y016380D01*
X008899Y016605D02*
X008899Y016830D01*
X009199Y016830D01*
X008589Y016830D02*
X008589Y016380D01*
X008439Y016380D02*
X008739Y016380D01*
X008439Y016680D02*
X008589Y016830D01*
X008278Y016755D02*
X008278Y016605D01*
X008203Y016530D01*
X007978Y016530D01*
X007978Y016380D02*
X007978Y016830D01*
X008203Y016830D01*
X008278Y016755D01*
X007818Y016755D02*
X007743Y016830D01*
X007593Y016830D01*
X007518Y016755D01*
X007518Y016455D01*
X007593Y016380D01*
X007743Y016380D01*
X007818Y016455D01*
X007818Y016605D01*
X007668Y016605D01*
X007743Y017380D02*
X007818Y017455D01*
X007818Y017605D01*
X007668Y017605D01*
X007518Y017455D02*
X007593Y017380D01*
X007743Y017380D01*
X007978Y017380D02*
X007978Y017830D01*
X008203Y017830D01*
X008278Y017755D01*
X008278Y017605D01*
X008203Y017530D01*
X007978Y017530D01*
X007818Y017755D02*
X007743Y017830D01*
X007593Y017830D01*
X007518Y017755D01*
X007518Y017455D01*
X008439Y017380D02*
X008739Y017380D01*
X008589Y017380D02*
X008589Y017830D01*
X008439Y017680D01*
X008899Y017605D02*
X009199Y017605D01*
X009124Y017380D02*
X009124Y017830D01*
X008899Y017605D01*
X008664Y018380D02*
X008439Y018380D01*
X008439Y018830D01*
X008664Y018830D01*
X008739Y018755D01*
X008739Y018455D01*
X008664Y018380D01*
X008278Y018380D02*
X008278Y018830D01*
X007978Y018830D02*
X008278Y018380D01*
X007978Y018380D02*
X007978Y018830D01*
X007818Y018755D02*
X007743Y018830D01*
X007593Y018830D01*
X007518Y018755D01*
X007518Y018455D01*
X007593Y018380D01*
X007743Y018380D01*
X007818Y018455D01*
X007818Y018605D01*
X007668Y018605D01*
X007743Y019380D02*
X007593Y019380D01*
X007518Y019455D01*
X007518Y019605D02*
X007668Y019680D01*
X007743Y019680D01*
X007818Y019605D01*
X007818Y019455D01*
X007743Y019380D01*
X007978Y019530D02*
X008128Y019380D01*
X008278Y019530D01*
X008278Y019830D01*
X007978Y019830D02*
X007978Y019530D01*
X007818Y019830D02*
X007518Y019830D01*
X007518Y019605D01*
X007593Y020380D02*
X007518Y020455D01*
X007593Y020380D02*
X007743Y020380D01*
X007818Y020455D01*
X007818Y020605D01*
X007743Y020680D01*
X007668Y020680D01*
X007518Y020605D01*
X007518Y020830D01*
X007818Y020830D01*
X007978Y020830D02*
X007978Y020530D01*
X008128Y020380D01*
X008278Y020530D01*
X008278Y020830D01*
X011012Y020755D02*
X011087Y020830D01*
X011237Y020830D01*
X011312Y020755D01*
X011312Y020680D01*
X011237Y020605D01*
X011312Y020530D01*
X011312Y020455D01*
X011237Y020380D01*
X011087Y020380D01*
X011012Y020455D01*
X011162Y020605D02*
X011237Y020605D01*
X011473Y020530D02*
X011623Y020380D01*
X011773Y020530D01*
X011773Y020830D01*
X011933Y020755D02*
X012008Y020830D01*
X012158Y020830D01*
X012233Y020755D01*
X012233Y020680D01*
X012158Y020605D01*
X012233Y020530D01*
X012233Y020455D01*
X012158Y020380D01*
X012008Y020380D01*
X011933Y020455D01*
X012083Y020605D02*
X012158Y020605D01*
X011473Y020530D02*
X011473Y020830D01*
X011473Y019830D02*
X011698Y019830D01*
X011773Y019755D01*
X011773Y019605D01*
X011698Y019530D01*
X011473Y019530D01*
X011473Y019380D02*
X011473Y019830D01*
X011312Y019755D02*
X011237Y019830D01*
X011087Y019830D01*
X011012Y019755D01*
X011012Y019455D01*
X011087Y019380D01*
X011237Y019380D01*
X011312Y019455D01*
X011312Y019605D01*
X011162Y019605D01*
X011933Y019755D02*
X012008Y019830D01*
X012158Y019830D01*
X012233Y019755D01*
X012233Y019680D01*
X011933Y019380D01*
X012233Y019380D01*
X012158Y018830D02*
X012008Y018830D01*
X011933Y018755D01*
X011773Y018755D02*
X011773Y018605D01*
X011698Y018530D01*
X011473Y018530D01*
X011473Y018380D02*
X011473Y018830D01*
X011698Y018830D01*
X011773Y018755D01*
X012083Y018605D02*
X012158Y018605D01*
X012233Y018530D01*
X012233Y018455D01*
X012158Y018380D01*
X012008Y018380D01*
X011933Y018455D01*
X012158Y018605D02*
X012233Y018680D01*
X012233Y018755D01*
X012158Y018830D01*
X011312Y018755D02*
X011237Y018830D01*
X011087Y018830D01*
X011012Y018755D01*
X011012Y018455D01*
X011087Y018380D01*
X011237Y018380D01*
X011312Y018455D01*
X011312Y018605D01*
X011162Y018605D01*
X011087Y017830D02*
X011012Y017755D01*
X011012Y017455D01*
X011087Y017380D01*
X011237Y017380D01*
X011312Y017455D01*
X011312Y017605D01*
X011162Y017605D01*
X011312Y017755D02*
X011237Y017830D01*
X011087Y017830D01*
X011473Y017830D02*
X011698Y017830D01*
X011773Y017755D01*
X011773Y017605D01*
X011698Y017530D01*
X011473Y017530D01*
X011473Y017380D02*
X011473Y017830D01*
X011933Y017605D02*
X012233Y017605D01*
X012158Y017380D02*
X012158Y017830D01*
X011933Y017605D01*
X011933Y016830D02*
X012158Y016830D01*
X012233Y016755D01*
X012233Y016455D01*
X012158Y016380D01*
X011933Y016380D01*
X011933Y016830D01*
X011773Y016830D02*
X011773Y016380D01*
X011473Y016830D01*
X011473Y016380D01*
X011312Y016455D02*
X011312Y016605D01*
X011162Y016605D01*
X011012Y016455D02*
X011087Y016380D01*
X011237Y016380D01*
X011312Y016455D01*
X011012Y016455D02*
X011012Y016755D01*
X011087Y016830D01*
X011237Y016830D01*
X011312Y016755D01*
X011237Y015830D02*
X011312Y015755D01*
X011312Y015605D01*
X011237Y015530D01*
X011012Y015530D01*
X011012Y015380D02*
X011012Y015830D01*
X011237Y015830D01*
X011473Y015680D02*
X011623Y015830D01*
X011623Y015380D01*
X011473Y015380D02*
X011773Y015380D01*
X011933Y015380D02*
X011933Y015455D01*
X012233Y015755D01*
X012233Y015830D01*
X011933Y015830D01*
X010852Y015755D02*
X010777Y015830D01*
X010627Y015830D01*
X010552Y015755D01*
X010552Y015455D01*
X010627Y015380D01*
X010777Y015380D01*
X010852Y015455D01*
X010852Y015605D01*
X010702Y015605D01*
X010777Y014830D02*
X010627Y014830D01*
X010552Y014755D01*
X010552Y014455D01*
X010627Y014380D01*
X010777Y014380D01*
X010852Y014455D01*
X010852Y014605D01*
X010702Y014605D01*
X010852Y014755D02*
X010777Y014830D01*
X011012Y014830D02*
X011237Y014830D01*
X011312Y014755D01*
X011312Y014605D01*
X011237Y014530D01*
X011012Y014530D01*
X011012Y014380D02*
X011012Y014830D01*
X011473Y014755D02*
X011548Y014830D01*
X011698Y014830D01*
X011773Y014755D01*
X011773Y014680D01*
X011473Y014380D01*
X011773Y014380D01*
X011933Y014380D02*
X011933Y014455D01*
X012233Y014755D01*
X012233Y014830D01*
X011933Y014830D01*
X012008Y013830D02*
X011933Y013755D01*
X012008Y013830D02*
X012158Y013830D01*
X012233Y013755D01*
X012233Y013680D01*
X011933Y013380D01*
X012233Y013380D01*
X011773Y013380D02*
X011473Y013380D01*
X011773Y013680D01*
X011773Y013755D01*
X011698Y013830D01*
X011548Y013830D01*
X011473Y013755D01*
X011312Y013755D02*
X011237Y013830D01*
X011012Y013830D01*
X011012Y013380D01*
X011012Y013530D02*
X011237Y013530D01*
X011312Y013605D01*
X011312Y013755D01*
X010852Y013755D02*
X010777Y013830D01*
X010627Y013830D01*
X010552Y013755D01*
X010552Y013455D01*
X010627Y013380D01*
X010777Y013380D01*
X010852Y013455D01*
X010852Y013605D01*
X010702Y013605D01*
X011087Y012830D02*
X011237Y012830D01*
X011312Y012755D01*
X011312Y012680D01*
X011237Y012605D01*
X011312Y012530D01*
X011312Y012455D01*
X011237Y012380D01*
X011087Y012380D01*
X011012Y012455D01*
X011162Y012605D02*
X011237Y012605D01*
X011473Y012530D02*
X011623Y012380D01*
X011773Y012530D01*
X011773Y012830D01*
X011933Y012755D02*
X012008Y012830D01*
X012158Y012830D01*
X012233Y012755D01*
X012233Y012680D01*
X012158Y012605D01*
X012233Y012530D01*
X012233Y012455D01*
X012158Y012380D01*
X012008Y012380D01*
X011933Y012455D01*
X012083Y012605D02*
X012158Y012605D01*
X011473Y012530D02*
X011473Y012830D01*
X011087Y012830D02*
X011012Y012755D01*
X011012Y011830D02*
X011237Y011830D01*
X011312Y011755D01*
X011312Y011605D01*
X011237Y011530D01*
X011012Y011530D01*
X011012Y011380D02*
X011012Y011830D01*
X010852Y011755D02*
X010777Y011830D01*
X010627Y011830D01*
X010552Y011755D01*
X010552Y011455D01*
X010627Y011380D01*
X010777Y011380D01*
X010852Y011455D01*
X010852Y011605D01*
X010702Y011605D01*
X011473Y011680D02*
X011623Y011830D01*
X011623Y011380D01*
X011473Y011380D02*
X011773Y011380D01*
X011933Y011455D02*
X012233Y011755D01*
X012233Y011455D01*
X012158Y011380D01*
X012008Y011380D01*
X011933Y011455D01*
X011933Y011755D01*
X012008Y011830D01*
X012158Y011830D01*
X012233Y011755D01*
X012158Y010830D02*
X012008Y010830D01*
X011933Y010755D01*
X011933Y010680D01*
X012008Y010605D01*
X012233Y010605D01*
X012233Y010455D02*
X012233Y010755D01*
X012158Y010830D01*
X011773Y010755D02*
X011773Y010605D01*
X011698Y010530D01*
X011473Y010530D01*
X011473Y010380D02*
X011473Y010830D01*
X011698Y010830D01*
X011773Y010755D01*
X011933Y010455D02*
X012008Y010380D01*
X012158Y010380D01*
X012233Y010455D01*
X012083Y009830D02*
X012083Y009380D01*
X011933Y009380D02*
X012233Y009380D01*
X011933Y009680D02*
X012083Y009830D01*
X011623Y009830D02*
X011623Y009380D01*
X011473Y009380D02*
X011773Y009380D01*
X011473Y009680D02*
X011623Y009830D01*
X011312Y009755D02*
X011312Y009605D01*
X011237Y009530D01*
X011012Y009530D01*
X011012Y009380D02*
X011012Y009830D01*
X011237Y009830D01*
X011312Y009755D01*
X010852Y009755D02*
X010777Y009830D01*
X010627Y009830D01*
X010552Y009755D01*
X010552Y009455D01*
X010627Y009380D01*
X010777Y009380D01*
X010852Y009455D01*
X010852Y009605D01*
X010702Y009605D01*
X011087Y010380D02*
X011237Y010380D01*
X011312Y010455D01*
X011312Y010605D01*
X011162Y010605D01*
X011012Y010455D02*
X011087Y010380D01*
X011012Y010455D02*
X011012Y010755D01*
X011087Y010830D01*
X011237Y010830D01*
X011312Y010755D01*
X011237Y008830D02*
X011087Y008830D01*
X011012Y008755D01*
X011012Y008455D01*
X011087Y008380D01*
X011237Y008380D01*
X011312Y008455D01*
X011312Y008605D01*
X011162Y008605D01*
X011312Y008755D02*
X011237Y008830D01*
X011473Y008830D02*
X011773Y008380D01*
X011773Y008830D01*
X011933Y008830D02*
X012158Y008830D01*
X012233Y008755D01*
X012233Y008455D01*
X012158Y008380D01*
X011933Y008380D01*
X011933Y008830D01*
X011473Y008830D02*
X011473Y008380D01*
X011548Y007830D02*
X011473Y007755D01*
X011473Y007680D01*
X011548Y007605D01*
X011698Y007605D01*
X011773Y007530D01*
X011773Y007455D01*
X011698Y007380D01*
X011548Y007380D01*
X011473Y007455D01*
X011317Y007455D02*
X011317Y007380D01*
X011242Y007380D01*
X011242Y007455D01*
X011317Y007455D01*
X011082Y007455D02*
X011082Y007755D01*
X011007Y007830D01*
X010782Y007830D01*
X010782Y007380D01*
X011007Y007380D01*
X011082Y007455D01*
X010625Y007380D02*
X010475Y007380D01*
X010550Y007380D02*
X010550Y007830D01*
X010475Y007830D02*
X010625Y007830D01*
X011548Y007830D02*
X011698Y007830D01*
X011773Y007755D01*
X011933Y007830D02*
X011933Y007380D01*
X012158Y007380D01*
X012233Y007455D01*
X012233Y007755D01*
X012158Y007830D01*
X011933Y007830D01*
X011933Y006830D02*
X011933Y006605D01*
X012083Y006680D01*
X012158Y006680D01*
X012233Y006605D01*
X012233Y006455D01*
X012158Y006380D01*
X012008Y006380D01*
X011933Y006455D01*
X011773Y006605D02*
X011698Y006530D01*
X011473Y006530D01*
X011473Y006380D02*
X011473Y006830D01*
X011698Y006830D01*
X011773Y006755D01*
X011773Y006605D01*
X011933Y006830D02*
X012233Y006830D01*
X011312Y006755D02*
X011237Y006830D01*
X011087Y006830D01*
X011012Y006755D01*
X011012Y006455D01*
X011087Y006380D01*
X011237Y006380D01*
X011312Y006455D01*
X011312Y006605D01*
X011162Y006605D01*
X011087Y005830D02*
X011012Y005755D01*
X011012Y005455D01*
X011087Y005380D01*
X011237Y005380D01*
X011312Y005455D01*
X011312Y005605D01*
X011162Y005605D01*
X011312Y005755D02*
X011237Y005830D01*
X011087Y005830D01*
X011473Y005830D02*
X011698Y005830D01*
X011773Y005755D01*
X011773Y005605D01*
X011698Y005530D01*
X011473Y005530D01*
X011473Y005380D02*
X011473Y005830D01*
X011933Y005605D02*
X012158Y005605D01*
X012233Y005530D01*
X012233Y005455D01*
X012158Y005380D01*
X012008Y005380D01*
X011933Y005455D01*
X011933Y005605D01*
X012083Y005755D01*
X012233Y005830D01*
X012158Y004830D02*
X012008Y004830D01*
X011933Y004755D01*
X012083Y004605D02*
X012158Y004605D01*
X012233Y004530D01*
X012233Y004455D01*
X012158Y004380D01*
X012008Y004380D01*
X011933Y004455D01*
X011773Y004380D02*
X011473Y004380D01*
X011623Y004380D02*
X011623Y004830D01*
X011473Y004680D01*
X011312Y004605D02*
X011237Y004530D01*
X011012Y004530D01*
X011012Y004380D02*
X011012Y004830D01*
X011237Y004830D01*
X011312Y004755D01*
X011312Y004605D01*
X010852Y004605D02*
X010702Y004605D01*
X010852Y004605D02*
X010852Y004455D01*
X010777Y004380D01*
X010627Y004380D01*
X010552Y004455D01*
X010552Y004755D01*
X010627Y004830D01*
X010777Y004830D01*
X010852Y004755D01*
X010777Y003830D02*
X010627Y003830D01*
X010552Y003755D01*
X010552Y003455D01*
X010627Y003380D01*
X010777Y003380D01*
X010852Y003455D01*
X010852Y003605D01*
X010702Y003605D01*
X010852Y003755D02*
X010777Y003830D01*
X011012Y003830D02*
X011237Y003830D01*
X011312Y003755D01*
X011312Y003605D01*
X011237Y003530D01*
X011012Y003530D01*
X011012Y003380D02*
X011012Y003830D01*
X011473Y003680D02*
X011623Y003830D01*
X011623Y003380D01*
X011473Y003380D02*
X011773Y003380D01*
X011933Y003455D02*
X012008Y003380D01*
X012158Y003380D01*
X012233Y003455D01*
X012233Y003755D01*
X012158Y003830D01*
X012008Y003830D01*
X011933Y003755D01*
X011933Y003680D01*
X012008Y003605D01*
X012233Y003605D01*
X012233Y002830D02*
X012083Y002755D01*
X011933Y002605D01*
X012158Y002605D01*
X012233Y002530D01*
X012233Y002455D01*
X012158Y002380D01*
X012008Y002380D01*
X011933Y002455D01*
X011933Y002605D01*
X011773Y002680D02*
X011473Y002380D01*
X011773Y002380D01*
X011773Y002680D02*
X011773Y002755D01*
X011698Y002830D01*
X011548Y002830D01*
X011473Y002755D01*
X011312Y002755D02*
X011312Y002605D01*
X011237Y002530D01*
X011012Y002530D01*
X011012Y002380D02*
X011012Y002830D01*
X011237Y002830D01*
X011312Y002755D01*
X010852Y002755D02*
X010777Y002830D01*
X010627Y002830D01*
X010552Y002755D01*
X010552Y002455D01*
X010627Y002380D01*
X010777Y002380D01*
X010852Y002455D01*
X010852Y002605D01*
X010702Y002605D01*
X011087Y001830D02*
X011012Y001755D01*
X011012Y001455D01*
X011087Y001380D01*
X011237Y001380D01*
X011312Y001455D01*
X011312Y001605D01*
X011162Y001605D01*
X011312Y001755D02*
X011237Y001830D01*
X011087Y001830D01*
X011473Y001830D02*
X011773Y001380D01*
X011773Y001830D01*
X011933Y001830D02*
X012158Y001830D01*
X012233Y001755D01*
X012233Y001455D01*
X012158Y001380D01*
X011933Y001380D01*
X011933Y001830D01*
X011473Y001830D02*
X011473Y001380D01*
X009199Y001380D02*
X008899Y001380D01*
X009049Y001380D02*
X009049Y001830D01*
X008899Y001680D01*
X008739Y001680D02*
X008739Y001755D01*
X008664Y001830D01*
X008514Y001830D01*
X008439Y001755D01*
X008278Y001755D02*
X008278Y001605D01*
X008203Y001530D01*
X007978Y001530D01*
X007978Y001380D02*
X007978Y001830D01*
X008203Y001830D01*
X008278Y001755D01*
X008439Y001380D02*
X008739Y001680D01*
X008739Y001380D02*
X008439Y001380D01*
X007818Y001455D02*
X007818Y001605D01*
X007668Y001605D01*
X007818Y001455D02*
X007743Y001380D01*
X007593Y001380D01*
X007518Y001455D01*
X007518Y001755D01*
X007593Y001830D01*
X007743Y001830D01*
X007818Y001755D01*
X007743Y002380D02*
X007818Y002455D01*
X007818Y002605D01*
X007668Y002605D01*
X007518Y002755D02*
X007518Y002455D01*
X007593Y002380D01*
X007743Y002380D01*
X007978Y002380D02*
X007978Y002830D01*
X008203Y002830D01*
X008278Y002755D01*
X008278Y002605D01*
X008203Y002530D01*
X007978Y002530D01*
X007818Y002755D02*
X007743Y002830D01*
X007593Y002830D01*
X007518Y002755D01*
X007593Y003380D02*
X007518Y003455D01*
X007518Y003755D01*
X007593Y003830D01*
X007743Y003830D01*
X007818Y003755D01*
X007818Y003605D02*
X007668Y003605D01*
X007818Y003605D02*
X007818Y003455D01*
X007743Y003380D01*
X007593Y003380D01*
X007978Y003380D02*
X007978Y003830D01*
X008203Y003830D01*
X008278Y003755D01*
X008278Y003605D01*
X008203Y003530D01*
X007978Y003530D01*
X008439Y003380D02*
X008739Y003380D01*
X008589Y003380D02*
X008589Y003830D01*
X008439Y003680D01*
X008899Y003605D02*
X008899Y003455D01*
X008974Y003380D01*
X009124Y003380D01*
X009199Y003455D01*
X009199Y003530D01*
X009124Y003605D01*
X008899Y003605D01*
X009049Y003755D01*
X009199Y003830D01*
X008664Y004380D02*
X008439Y004380D01*
X008439Y004830D01*
X008664Y004830D01*
X008739Y004755D01*
X008739Y004455D01*
X008664Y004380D01*
X008278Y004380D02*
X008278Y004830D01*
X007978Y004830D02*
X008278Y004380D01*
X007978Y004380D02*
X007978Y004830D01*
X007818Y004755D02*
X007743Y004830D01*
X007593Y004830D01*
X007518Y004755D01*
X007518Y004455D01*
X007593Y004380D01*
X007743Y004380D01*
X007818Y004455D01*
X007818Y004605D01*
X007668Y004605D01*
X007743Y005380D02*
X007818Y005455D01*
X007818Y005605D01*
X007668Y005605D01*
X007518Y005455D02*
X007593Y005380D01*
X007743Y005380D01*
X007978Y005380D02*
X007978Y005830D01*
X008203Y005830D01*
X008278Y005755D01*
X008278Y005605D01*
X008203Y005530D01*
X007978Y005530D01*
X007818Y005755D02*
X007743Y005830D01*
X007593Y005830D01*
X007518Y005755D01*
X007518Y005455D01*
X008439Y005380D02*
X008739Y005380D01*
X008589Y005380D02*
X008589Y005830D01*
X008439Y005680D01*
X008899Y005755D02*
X008974Y005830D01*
X009124Y005830D01*
X009199Y005755D01*
X009199Y005680D01*
X008899Y005380D01*
X009199Y005380D01*
X008664Y006380D02*
X008439Y006380D01*
X008439Y006830D01*
X008664Y006830D01*
X008739Y006755D01*
X008739Y006455D01*
X008664Y006380D01*
X008278Y006380D02*
X008278Y006830D01*
X007978Y006830D02*
X008278Y006380D01*
X007978Y006380D02*
X007978Y006830D01*
X007818Y006755D02*
X007743Y006830D01*
X007593Y006830D01*
X007518Y006755D01*
X007518Y006455D01*
X007593Y006380D01*
X007743Y006380D01*
X007818Y006455D01*
X007818Y006605D01*
X007668Y006605D01*
X007668Y007380D02*
X007518Y007380D01*
X007593Y007380D02*
X007593Y007830D01*
X007518Y007830D02*
X007668Y007830D01*
X007825Y007830D02*
X008050Y007830D01*
X008125Y007755D01*
X008125Y007455D01*
X008050Y007380D01*
X007825Y007380D01*
X007825Y007830D01*
X007743Y008380D02*
X007818Y008455D01*
X007818Y008605D01*
X007668Y008605D01*
X007518Y008455D02*
X007593Y008380D01*
X007743Y008380D01*
X007978Y008380D02*
X007978Y008830D01*
X008203Y008830D01*
X008278Y008755D01*
X008278Y008605D01*
X008203Y008530D01*
X007978Y008530D01*
X007818Y008755D02*
X007743Y008830D01*
X007593Y008830D01*
X007518Y008755D01*
X007518Y008455D01*
X008439Y008455D02*
X008439Y008380D01*
X008439Y008455D02*
X008739Y008755D01*
X008739Y008830D01*
X008439Y008830D01*
X008590Y007830D02*
X008515Y007755D01*
X008515Y007680D01*
X008590Y007605D01*
X008741Y007605D01*
X008816Y007530D01*
X008816Y007455D01*
X008741Y007380D01*
X008590Y007380D01*
X008515Y007455D01*
X008360Y007455D02*
X008360Y007380D01*
X008285Y007380D01*
X008285Y007455D01*
X008360Y007455D01*
X008741Y007830D02*
X008816Y007755D01*
X008741Y007830D02*
X008590Y007830D01*
X008976Y007755D02*
X008976Y007455D01*
X009051Y007380D01*
X009201Y007380D01*
X009276Y007455D01*
X009276Y007755D02*
X009201Y007830D01*
X009051Y007830D01*
X008976Y007755D01*
X012158Y004830D02*
X012233Y004755D01*
X012233Y004680D01*
X012158Y004605D01*
X014793Y004455D02*
X014868Y004380D01*
X015019Y004380D01*
X015094Y004455D01*
X015094Y004605D01*
X014944Y004605D01*
X015094Y004755D02*
X015019Y004830D01*
X014868Y004830D01*
X014793Y004755D01*
X014793Y004455D01*
X015254Y004380D02*
X015254Y004830D01*
X015554Y004380D01*
X015554Y004830D01*
X015714Y004830D02*
X015939Y004830D01*
X016014Y004755D01*
X016014Y004455D01*
X015939Y004380D01*
X015714Y004380D01*
X015714Y004830D01*
X015714Y005380D02*
X016014Y005380D01*
X015864Y005380D02*
X015864Y005830D01*
X015714Y005680D01*
X015554Y005605D02*
X015479Y005530D01*
X015254Y005530D01*
X015254Y005380D02*
X015254Y005830D01*
X015479Y005830D01*
X015554Y005755D01*
X015554Y005605D01*
X015094Y005605D02*
X015094Y005455D01*
X015019Y005380D01*
X014868Y005380D01*
X014793Y005455D01*
X014793Y005755D01*
X014868Y005830D01*
X015019Y005830D01*
X015094Y005755D01*
X015094Y005605D02*
X014944Y005605D01*
X015019Y006380D02*
X015094Y006455D01*
X015094Y006605D01*
X014944Y006605D01*
X015094Y006755D02*
X015019Y006830D01*
X014868Y006830D01*
X014793Y006755D01*
X014793Y006455D01*
X014868Y006380D01*
X015019Y006380D01*
X015254Y006380D02*
X015254Y006830D01*
X015554Y006380D01*
X015554Y006830D01*
X015714Y006830D02*
X015939Y006830D01*
X016014Y006755D01*
X016014Y006455D01*
X015939Y006380D01*
X015714Y006380D01*
X015714Y006830D01*
X015636Y007380D02*
X015561Y007380D01*
X015561Y007455D01*
X015636Y007455D01*
X015636Y007380D01*
X015791Y007455D02*
X015866Y007380D01*
X016016Y007380D01*
X016091Y007455D01*
X016091Y007530D01*
X016016Y007605D01*
X015866Y007605D01*
X015791Y007680D01*
X015791Y007755D01*
X015866Y007830D01*
X016016Y007830D01*
X016091Y007755D01*
X016251Y007755D02*
X016251Y007455D01*
X016326Y007380D01*
X016476Y007380D01*
X016552Y007455D01*
X016552Y007755D02*
X016476Y007830D01*
X016326Y007830D01*
X016251Y007755D01*
X015714Y008380D02*
X015714Y008455D01*
X016014Y008755D01*
X016014Y008830D01*
X015714Y008830D01*
X015554Y008755D02*
X015554Y008605D01*
X015479Y008530D01*
X015254Y008530D01*
X015254Y008380D02*
X015254Y008830D01*
X015479Y008830D01*
X015554Y008755D01*
X015094Y008755D02*
X015019Y008830D01*
X014868Y008830D01*
X014793Y008755D01*
X014793Y008455D01*
X014868Y008380D01*
X015019Y008380D01*
X015094Y008455D01*
X015094Y008605D01*
X014944Y008605D01*
X014944Y007830D02*
X014793Y007830D01*
X014868Y007830D02*
X014868Y007380D01*
X014793Y007380D02*
X014944Y007380D01*
X015100Y007380D02*
X015326Y007380D01*
X015401Y007455D01*
X015401Y007755D01*
X015326Y007830D01*
X015100Y007830D01*
X015100Y007380D01*
X016250Y005830D02*
X016175Y005755D01*
X016250Y005830D02*
X016400Y005830D01*
X016475Y005755D01*
X016475Y005680D01*
X016175Y005380D01*
X016475Y005380D01*
X017827Y004755D02*
X017827Y004455D01*
X017902Y004380D01*
X018053Y004380D01*
X018128Y004455D01*
X018128Y004605D01*
X017978Y004605D01*
X018128Y004755D02*
X018053Y004830D01*
X017902Y004830D01*
X017827Y004755D01*
X018288Y004830D02*
X018288Y004380D01*
X018288Y004530D02*
X018513Y004530D01*
X018588Y004605D01*
X018588Y004755D01*
X018513Y004830D01*
X018288Y004830D01*
X018748Y004680D02*
X018898Y004830D01*
X018898Y004380D01*
X018748Y004380D02*
X019048Y004380D01*
X019209Y004455D02*
X019284Y004380D01*
X019434Y004380D01*
X019509Y004455D01*
X019509Y004530D01*
X019434Y004605D01*
X019359Y004605D01*
X019434Y004605D02*
X019509Y004680D01*
X019509Y004755D01*
X019434Y004830D01*
X019284Y004830D01*
X019209Y004755D01*
X019284Y005380D02*
X019209Y005455D01*
X019209Y005605D01*
X019434Y005605D01*
X019509Y005530D01*
X019509Y005455D01*
X019434Y005380D01*
X019284Y005380D01*
X019209Y005605D02*
X019359Y005755D01*
X019509Y005830D01*
X019048Y005755D02*
X019048Y005605D01*
X018973Y005530D01*
X018748Y005530D01*
X018748Y005380D02*
X018748Y005830D01*
X018973Y005830D01*
X019048Y005755D01*
X018588Y005755D02*
X018513Y005830D01*
X018363Y005830D01*
X018288Y005755D01*
X018288Y005455D01*
X018363Y005380D01*
X018513Y005380D01*
X018588Y005455D01*
X018588Y005605D01*
X018438Y005605D01*
X018513Y006380D02*
X018588Y006455D01*
X018588Y006605D01*
X018438Y006605D01*
X018288Y006455D02*
X018363Y006380D01*
X018513Y006380D01*
X018748Y006380D02*
X018748Y006830D01*
X018973Y006830D01*
X019048Y006755D01*
X019048Y006605D01*
X018973Y006530D01*
X018748Y006530D01*
X018588Y006755D02*
X018513Y006830D01*
X018363Y006830D01*
X018288Y006755D01*
X018288Y006455D01*
X019209Y006455D02*
X019284Y006380D01*
X019434Y006380D01*
X019509Y006455D01*
X019509Y006605D01*
X019434Y006680D01*
X019359Y006680D01*
X019209Y006605D01*
X019209Y006830D01*
X019509Y006830D01*
X019434Y007380D02*
X019209Y007380D01*
X019209Y007830D01*
X019434Y007830D01*
X019509Y007755D01*
X019509Y007455D01*
X019434Y007380D01*
X019048Y007455D02*
X018973Y007380D01*
X018823Y007380D01*
X018748Y007455D01*
X018593Y007455D02*
X018593Y007380D01*
X018518Y007380D01*
X018518Y007455D01*
X018593Y007455D01*
X018358Y007455D02*
X018358Y007755D01*
X018283Y007830D01*
X018058Y007830D01*
X018058Y007380D01*
X018283Y007380D01*
X018358Y007455D01*
X018748Y007680D02*
X018823Y007605D01*
X018973Y007605D01*
X019048Y007530D01*
X019048Y007455D01*
X019048Y007755D02*
X018973Y007830D01*
X018823Y007830D01*
X018748Y007755D01*
X018748Y007680D01*
X017901Y007830D02*
X017751Y007830D01*
X017826Y007830D02*
X017826Y007380D01*
X017751Y007380D02*
X017901Y007380D01*
X018363Y008380D02*
X018513Y008380D01*
X018588Y008455D01*
X018588Y008605D01*
X018438Y008605D01*
X018288Y008455D02*
X018363Y008380D01*
X018288Y008455D02*
X018288Y008755D01*
X018363Y008830D01*
X018513Y008830D01*
X018588Y008755D01*
X018748Y008830D02*
X019048Y008380D01*
X019048Y008830D01*
X019209Y008830D02*
X019434Y008830D01*
X019509Y008755D01*
X019509Y008455D01*
X019434Y008380D01*
X019209Y008380D01*
X019209Y008830D01*
X018748Y008830D02*
X018748Y008380D01*
X018748Y009380D02*
X019048Y009380D01*
X018898Y009380D02*
X018898Y009830D01*
X018748Y009680D01*
X018588Y009605D02*
X018513Y009530D01*
X018288Y009530D01*
X018288Y009380D02*
X018288Y009830D01*
X018513Y009830D01*
X018588Y009755D01*
X018588Y009605D01*
X019209Y009680D02*
X019359Y009830D01*
X019359Y009380D01*
X019209Y009380D02*
X019509Y009380D01*
X019434Y010380D02*
X019509Y010455D01*
X019509Y010755D01*
X019434Y010830D01*
X019284Y010830D01*
X019209Y010755D01*
X019209Y010680D01*
X019284Y010605D01*
X019509Y010605D01*
X019434Y010380D02*
X019284Y010380D01*
X019209Y010455D01*
X019048Y010605D02*
X018973Y010530D01*
X018748Y010530D01*
X018748Y010380D02*
X018748Y010830D01*
X018973Y010830D01*
X019048Y010755D01*
X019048Y010605D01*
X018588Y010605D02*
X018588Y010455D01*
X018513Y010380D01*
X018363Y010380D01*
X018288Y010455D01*
X018288Y010755D01*
X018363Y010830D01*
X018513Y010830D01*
X018588Y010755D01*
X018588Y010605D02*
X018438Y010605D01*
X018053Y009830D02*
X017902Y009830D01*
X017827Y009755D01*
X017827Y009455D01*
X017902Y009380D01*
X018053Y009380D01*
X018128Y009455D01*
X018128Y009605D01*
X017978Y009605D01*
X018128Y009755D02*
X018053Y009830D01*
X016475Y010455D02*
X016400Y010380D01*
X016250Y010380D01*
X016175Y010455D01*
X016175Y010605D02*
X016325Y010680D01*
X016400Y010680D01*
X016475Y010605D01*
X016475Y010455D01*
X016175Y010605D02*
X016175Y010830D01*
X016475Y010830D01*
X016014Y010755D02*
X016014Y010680D01*
X015714Y010380D01*
X016014Y010380D01*
X015554Y010605D02*
X015479Y010530D01*
X015254Y010530D01*
X015254Y010380D02*
X015254Y010830D01*
X015479Y010830D01*
X015554Y010755D01*
X015554Y010605D01*
X015714Y010755D02*
X015789Y010830D01*
X015939Y010830D01*
X016014Y010755D01*
X015939Y011380D02*
X015714Y011380D01*
X015714Y011830D01*
X015939Y011830D01*
X016014Y011755D01*
X016014Y011455D01*
X015939Y011380D01*
X015554Y011380D02*
X015554Y011830D01*
X015254Y011830D02*
X015554Y011380D01*
X015254Y011380D02*
X015254Y011830D01*
X015094Y011755D02*
X015019Y011830D01*
X014868Y011830D01*
X014793Y011755D01*
X014793Y011455D01*
X014868Y011380D01*
X015019Y011380D01*
X015094Y011455D01*
X015094Y011605D01*
X014944Y011605D01*
X015019Y012380D02*
X015094Y012455D01*
X015094Y012605D01*
X014944Y012605D01*
X015094Y012755D02*
X015019Y012830D01*
X014868Y012830D01*
X014793Y012755D01*
X014793Y012455D01*
X014868Y012380D01*
X015019Y012380D01*
X015254Y012380D02*
X015254Y012830D01*
X015479Y012830D01*
X015554Y012755D01*
X015554Y012605D01*
X015479Y012530D01*
X015254Y012530D01*
X015714Y012380D02*
X016014Y012680D01*
X016014Y012755D01*
X015939Y012830D01*
X015789Y012830D01*
X015714Y012755D01*
X015714Y012380D02*
X016014Y012380D01*
X016175Y012605D02*
X016475Y012605D01*
X016400Y012380D02*
X016400Y012830D01*
X016175Y012605D01*
X016250Y013380D02*
X016175Y013455D01*
X016250Y013380D02*
X016400Y013380D01*
X016475Y013455D01*
X016475Y013530D01*
X016400Y013605D01*
X016325Y013605D01*
X016400Y013605D02*
X016475Y013680D01*
X016475Y013755D01*
X016400Y013830D01*
X016250Y013830D01*
X016175Y013755D01*
X016014Y013755D02*
X015939Y013830D01*
X015789Y013830D01*
X015714Y013755D01*
X015554Y013755D02*
X015554Y013605D01*
X015479Y013530D01*
X015254Y013530D01*
X015254Y013380D02*
X015254Y013830D01*
X015479Y013830D01*
X015554Y013755D01*
X015714Y013380D02*
X016014Y013680D01*
X016014Y013755D01*
X016014Y013380D02*
X015714Y013380D01*
X015094Y013455D02*
X015094Y013605D01*
X014944Y013605D01*
X015094Y013455D02*
X015019Y013380D01*
X014868Y013380D01*
X014793Y013455D01*
X014793Y013755D01*
X014868Y013830D01*
X015019Y013830D01*
X015094Y013755D01*
X015019Y014380D02*
X015094Y014455D01*
X015094Y014605D01*
X014944Y014605D01*
X015094Y014755D02*
X015019Y014830D01*
X014868Y014830D01*
X014793Y014755D01*
X014793Y014455D01*
X014868Y014380D01*
X015019Y014380D01*
X015254Y014380D02*
X015254Y014830D01*
X015554Y014380D01*
X015554Y014830D01*
X015714Y014830D02*
X015939Y014830D01*
X016014Y014755D01*
X016014Y014455D01*
X015939Y014380D01*
X015714Y014380D01*
X015714Y014830D01*
X015714Y015380D02*
X016014Y015380D01*
X015864Y015380D02*
X015864Y015830D01*
X015714Y015680D01*
X015554Y015605D02*
X015479Y015530D01*
X015254Y015530D01*
X015254Y015380D02*
X015254Y015830D01*
X015479Y015830D01*
X015554Y015755D01*
X015554Y015605D01*
X015094Y015605D02*
X015094Y015455D01*
X015019Y015380D01*
X014868Y015380D01*
X014793Y015455D01*
X014793Y015755D01*
X014868Y015830D01*
X015019Y015830D01*
X015094Y015755D01*
X015094Y015605D02*
X014944Y015605D01*
X015019Y016380D02*
X015094Y016455D01*
X015094Y016605D01*
X014944Y016605D01*
X015094Y016755D02*
X015019Y016830D01*
X014868Y016830D01*
X014793Y016755D01*
X014793Y016455D01*
X014868Y016380D01*
X015019Y016380D01*
X015254Y016380D02*
X015254Y016830D01*
X015479Y016830D01*
X015554Y016755D01*
X015554Y016605D01*
X015479Y016530D01*
X015254Y016530D01*
X015714Y016380D02*
X016014Y016380D01*
X015864Y016380D02*
X015864Y016830D01*
X015714Y016680D01*
X016175Y016605D02*
X016325Y016680D01*
X016400Y016680D01*
X016475Y016605D01*
X016475Y016455D01*
X016400Y016380D01*
X016250Y016380D01*
X016175Y016455D01*
X016175Y016605D02*
X016175Y016830D01*
X016475Y016830D01*
X016400Y017380D02*
X016400Y017830D01*
X016175Y017605D01*
X016475Y017605D01*
X016014Y017380D02*
X015714Y017380D01*
X015864Y017380D02*
X015864Y017830D01*
X015714Y017680D01*
X015554Y017605D02*
X015479Y017530D01*
X015254Y017530D01*
X015254Y017380D02*
X015254Y017830D01*
X015479Y017830D01*
X015554Y017755D01*
X015554Y017605D01*
X015094Y017605D02*
X015094Y017455D01*
X015019Y017380D01*
X014868Y017380D01*
X014793Y017455D01*
X014793Y017755D01*
X014868Y017830D01*
X015019Y017830D01*
X015094Y017755D01*
X015094Y017605D02*
X014944Y017605D01*
X015019Y018380D02*
X015094Y018455D01*
X015094Y018605D01*
X014944Y018605D01*
X015094Y018755D02*
X015019Y018830D01*
X014868Y018830D01*
X014793Y018755D01*
X014793Y018455D01*
X014868Y018380D01*
X015019Y018380D01*
X015254Y018380D02*
X015254Y018830D01*
X015554Y018380D01*
X015554Y018830D01*
X015714Y018830D02*
X015939Y018830D01*
X016014Y018755D01*
X016014Y018455D01*
X015939Y018380D01*
X015714Y018380D01*
X015714Y018830D01*
X015404Y019380D02*
X015554Y019530D01*
X015554Y019830D01*
X015254Y019830D02*
X015254Y019530D01*
X015404Y019380D01*
X015094Y019455D02*
X015094Y019605D01*
X015019Y019680D01*
X014944Y019680D01*
X014793Y019605D01*
X014793Y019830D01*
X015094Y019830D01*
X015094Y019455D02*
X015019Y019380D01*
X014868Y019380D01*
X014793Y019455D01*
X014868Y020380D02*
X014793Y020455D01*
X014868Y020380D02*
X015019Y020380D01*
X015094Y020455D01*
X015094Y020605D01*
X015019Y020680D01*
X014944Y020680D01*
X014793Y020605D01*
X014793Y020830D01*
X015094Y020830D01*
X015254Y020830D02*
X015254Y020530D01*
X015404Y020380D01*
X015554Y020530D01*
X015554Y020830D01*
X018288Y020755D02*
X018363Y020830D01*
X018513Y020830D01*
X018588Y020755D01*
X018588Y020680D01*
X018513Y020605D01*
X018588Y020530D01*
X018588Y020455D01*
X018513Y020380D01*
X018363Y020380D01*
X018288Y020455D01*
X018438Y020605D02*
X018513Y020605D01*
X018748Y020530D02*
X018748Y020830D01*
X018748Y020530D02*
X018898Y020380D01*
X019048Y020530D01*
X019048Y020830D01*
X019209Y020755D02*
X019284Y020830D01*
X019434Y020830D01*
X019509Y020755D01*
X019509Y020680D01*
X019434Y020605D01*
X019509Y020530D01*
X019509Y020455D01*
X019434Y020380D01*
X019284Y020380D01*
X019209Y020455D01*
X019359Y020605D02*
X019434Y020605D01*
X019434Y019830D02*
X019284Y019830D01*
X019209Y019755D01*
X019048Y019755D02*
X019048Y019605D01*
X018973Y019530D01*
X018748Y019530D01*
X018748Y019380D02*
X018748Y019830D01*
X018973Y019830D01*
X019048Y019755D01*
X019434Y019830D02*
X019509Y019755D01*
X019509Y019680D01*
X019209Y019380D01*
X019509Y019380D01*
X018588Y019455D02*
X018588Y019605D01*
X018438Y019605D01*
X018588Y019455D02*
X018513Y019380D01*
X018363Y019380D01*
X018288Y019455D01*
X018288Y019755D01*
X018363Y019830D01*
X018513Y019830D01*
X018588Y019755D01*
X018513Y018830D02*
X018363Y018830D01*
X018288Y018755D01*
X018288Y018455D01*
X018363Y018380D01*
X018513Y018380D01*
X018588Y018455D01*
X018588Y018605D01*
X018438Y018605D01*
X018588Y018755D02*
X018513Y018830D01*
X018748Y018830D02*
X018973Y018830D01*
X019048Y018755D01*
X019048Y018605D01*
X018973Y018530D01*
X018748Y018530D01*
X018748Y018380D02*
X018748Y018830D01*
X019209Y018755D02*
X019284Y018830D01*
X019434Y018830D01*
X019509Y018755D01*
X019509Y018680D01*
X019434Y018605D01*
X019509Y018530D01*
X019509Y018455D01*
X019434Y018380D01*
X019284Y018380D01*
X019209Y018455D01*
X019359Y018605D02*
X019434Y018605D01*
X019434Y017830D02*
X019209Y017605D01*
X019509Y017605D01*
X019434Y017380D02*
X019434Y017830D01*
X019048Y017755D02*
X019048Y017605D01*
X018973Y017530D01*
X018748Y017530D01*
X018748Y017380D02*
X018748Y017830D01*
X018973Y017830D01*
X019048Y017755D01*
X018588Y017755D02*
X018513Y017830D01*
X018363Y017830D01*
X018288Y017755D01*
X018288Y017455D01*
X018363Y017380D01*
X018513Y017380D01*
X018588Y017455D01*
X018588Y017605D01*
X018438Y017605D01*
X018513Y016830D02*
X018363Y016830D01*
X018288Y016755D01*
X018288Y016455D01*
X018363Y016380D01*
X018513Y016380D01*
X018588Y016455D01*
X018588Y016605D01*
X018438Y016605D01*
X018588Y016755D02*
X018513Y016830D01*
X018748Y016830D02*
X019048Y016380D01*
X019048Y016830D01*
X019209Y016830D02*
X019434Y016830D01*
X019509Y016755D01*
X019509Y016455D01*
X019434Y016380D01*
X019209Y016380D01*
X019209Y016830D01*
X018748Y016830D02*
X018748Y016380D01*
X018898Y015830D02*
X018898Y015380D01*
X018748Y015380D02*
X019048Y015380D01*
X019209Y015380D02*
X019209Y015455D01*
X019509Y015755D01*
X019509Y015830D01*
X019209Y015830D01*
X018898Y015830D02*
X018748Y015680D01*
X018588Y015605D02*
X018513Y015530D01*
X018288Y015530D01*
X018288Y015380D02*
X018288Y015830D01*
X018513Y015830D01*
X018588Y015755D01*
X018588Y015605D01*
X018128Y015605D02*
X018128Y015455D01*
X018053Y015380D01*
X017902Y015380D01*
X017827Y015455D01*
X017827Y015755D01*
X017902Y015830D01*
X018053Y015830D01*
X018128Y015755D01*
X018128Y015605D02*
X017978Y015605D01*
X018053Y014830D02*
X017902Y014830D01*
X017827Y014755D01*
X017827Y014455D01*
X017902Y014380D01*
X018053Y014380D01*
X018128Y014455D01*
X018128Y014605D01*
X017978Y014605D01*
X018128Y014755D02*
X018053Y014830D01*
X018288Y014830D02*
X018513Y014830D01*
X018588Y014755D01*
X018588Y014605D01*
X018513Y014530D01*
X018288Y014530D01*
X018288Y014380D02*
X018288Y014830D01*
X018748Y014755D02*
X018823Y014830D01*
X018973Y014830D01*
X019048Y014755D01*
X019048Y014680D01*
X018748Y014380D01*
X019048Y014380D01*
X019209Y014380D02*
X019209Y014455D01*
X019509Y014755D01*
X019509Y014830D01*
X019209Y014830D01*
X019284Y013830D02*
X019209Y013755D01*
X019284Y013830D02*
X019434Y013830D01*
X019509Y013755D01*
X019509Y013680D01*
X019209Y013380D01*
X019509Y013380D01*
X019048Y013380D02*
X018748Y013380D01*
X019048Y013680D01*
X019048Y013755D01*
X018973Y013830D01*
X018823Y013830D01*
X018748Y013755D01*
X018588Y013755D02*
X018588Y013605D01*
X018513Y013530D01*
X018288Y013530D01*
X018288Y013380D02*
X018288Y013830D01*
X018513Y013830D01*
X018588Y013755D01*
X018128Y013755D02*
X018053Y013830D01*
X017902Y013830D01*
X017827Y013755D01*
X017827Y013455D01*
X017902Y013380D01*
X018053Y013380D01*
X018128Y013455D01*
X018128Y013605D01*
X017978Y013605D01*
X018363Y012830D02*
X018513Y012830D01*
X018588Y012755D01*
X018588Y012680D01*
X018513Y012605D01*
X018588Y012530D01*
X018588Y012455D01*
X018513Y012380D01*
X018363Y012380D01*
X018288Y012455D01*
X018438Y012605D02*
X018513Y012605D01*
X018748Y012530D02*
X018748Y012830D01*
X018748Y012530D02*
X018898Y012380D01*
X019048Y012530D01*
X019048Y012830D01*
X019209Y012755D02*
X019284Y012830D01*
X019434Y012830D01*
X019509Y012755D01*
X019509Y012680D01*
X019434Y012605D01*
X019509Y012530D01*
X019509Y012455D01*
X019434Y012380D01*
X019284Y012380D01*
X019209Y012455D01*
X019359Y012605D02*
X019434Y012605D01*
X019434Y011830D02*
X019509Y011755D01*
X019209Y011455D01*
X019284Y011380D01*
X019434Y011380D01*
X019509Y011455D01*
X019509Y011755D01*
X019434Y011830D02*
X019284Y011830D01*
X019209Y011755D01*
X019209Y011455D01*
X019048Y011380D02*
X018748Y011380D01*
X018898Y011380D02*
X018898Y011830D01*
X018748Y011680D01*
X018588Y011605D02*
X018513Y011530D01*
X018288Y011530D01*
X018288Y011380D02*
X018288Y011830D01*
X018513Y011830D01*
X018588Y011755D01*
X018588Y011605D01*
X018128Y011605D02*
X018128Y011455D01*
X018053Y011380D01*
X017902Y011380D01*
X017827Y011455D01*
X017827Y011755D01*
X017902Y011830D01*
X018053Y011830D01*
X018128Y011755D01*
X018128Y011605D02*
X017978Y011605D01*
X018288Y012755D02*
X018363Y012830D01*
X015094Y010755D02*
X015019Y010830D01*
X014868Y010830D01*
X014793Y010755D01*
X014793Y010455D01*
X014868Y010380D01*
X015019Y010380D01*
X015094Y010455D01*
X015094Y010605D01*
X014944Y010605D01*
X015019Y009830D02*
X014868Y009830D01*
X014793Y009755D01*
X014793Y009455D01*
X014868Y009380D01*
X015019Y009380D01*
X015094Y009455D01*
X015094Y009605D01*
X014944Y009605D01*
X015094Y009755D02*
X015019Y009830D01*
X015254Y009830D02*
X015479Y009830D01*
X015554Y009755D01*
X015554Y009605D01*
X015479Y009530D01*
X015254Y009530D01*
X015254Y009380D02*
X015254Y009830D01*
X015714Y009755D02*
X015714Y009680D01*
X015789Y009605D01*
X015939Y009605D01*
X016014Y009530D01*
X016014Y009455D01*
X015939Y009380D01*
X015789Y009380D01*
X015714Y009455D01*
X015714Y009530D01*
X015789Y009605D01*
X015939Y009605D02*
X016014Y009680D01*
X016014Y009755D01*
X015939Y009830D01*
X015789Y009830D01*
X015714Y009755D01*
X022069Y009755D02*
X022069Y009455D01*
X022144Y009380D01*
X022294Y009380D01*
X022369Y009455D01*
X022369Y009605D01*
X022219Y009605D01*
X022069Y009755D02*
X022144Y009830D01*
X022294Y009830D01*
X022369Y009755D01*
X022529Y009830D02*
X022529Y009380D01*
X022529Y009530D02*
X022755Y009530D01*
X022830Y009605D01*
X022830Y009755D01*
X022755Y009830D01*
X022529Y009830D01*
X022990Y009755D02*
X022990Y009680D01*
X023065Y009605D01*
X023215Y009605D01*
X023290Y009530D01*
X023290Y009455D01*
X023215Y009380D01*
X023065Y009380D01*
X022990Y009455D01*
X022990Y009530D01*
X023065Y009605D01*
X023215Y009605D02*
X023290Y009680D01*
X023290Y009755D01*
X023215Y009830D01*
X023065Y009830D01*
X022990Y009755D01*
X022990Y010380D02*
X023290Y010680D01*
X023290Y010755D01*
X023215Y010830D01*
X023065Y010830D01*
X022990Y010755D01*
X022830Y010755D02*
X022830Y010605D01*
X022755Y010530D01*
X022529Y010530D01*
X022529Y010380D02*
X022529Y010830D01*
X022755Y010830D01*
X022830Y010755D01*
X022369Y010755D02*
X022294Y010830D01*
X022144Y010830D01*
X022069Y010755D01*
X022069Y010455D01*
X022144Y010380D01*
X022294Y010380D01*
X022369Y010455D01*
X022369Y010605D01*
X022219Y010605D01*
X022990Y010380D02*
X023290Y010380D01*
X023450Y010455D02*
X023525Y010380D01*
X023675Y010380D01*
X023750Y010455D01*
X023750Y010605D01*
X023675Y010680D01*
X023600Y010680D01*
X023450Y010605D01*
X023450Y010830D01*
X023750Y010830D01*
X023215Y011380D02*
X023290Y011455D01*
X023290Y011755D01*
X023215Y011830D01*
X022990Y011830D01*
X022990Y011380D01*
X023215Y011380D01*
X022830Y011380D02*
X022830Y011830D01*
X022529Y011830D02*
X022830Y011380D01*
X022529Y011380D02*
X022529Y011830D01*
X022369Y011755D02*
X022294Y011830D01*
X022144Y011830D01*
X022069Y011755D01*
X022069Y011455D01*
X022144Y011380D01*
X022294Y011380D01*
X022369Y011455D01*
X022369Y011605D01*
X022219Y011605D01*
X022144Y012380D02*
X022294Y012380D01*
X022369Y012455D01*
X022369Y012605D01*
X022219Y012605D01*
X022069Y012455D02*
X022144Y012380D01*
X022069Y012455D02*
X022069Y012755D01*
X022144Y012830D01*
X022294Y012830D01*
X022369Y012755D01*
X022529Y012830D02*
X022755Y012830D01*
X022830Y012755D01*
X022830Y012605D01*
X022755Y012530D01*
X022529Y012530D01*
X022529Y012380D02*
X022529Y012830D01*
X022990Y012755D02*
X023065Y012830D01*
X023215Y012830D01*
X023290Y012755D01*
X023290Y012680D01*
X022990Y012380D01*
X023290Y012380D01*
X023450Y012605D02*
X023750Y012605D01*
X023675Y012380D02*
X023675Y012830D01*
X023450Y012605D01*
X023525Y013380D02*
X023450Y013455D01*
X023525Y013380D02*
X023675Y013380D01*
X023750Y013455D01*
X023750Y013530D01*
X023675Y013605D01*
X023600Y013605D01*
X023675Y013605D02*
X023750Y013680D01*
X023750Y013755D01*
X023675Y013830D01*
X023525Y013830D01*
X023450Y013755D01*
X023290Y013755D02*
X023215Y013830D01*
X023065Y013830D01*
X022990Y013755D01*
X022830Y013755D02*
X022755Y013830D01*
X022529Y013830D01*
X022529Y013380D01*
X022529Y013530D02*
X022755Y013530D01*
X022830Y013605D01*
X022830Y013755D01*
X022990Y013380D02*
X023290Y013680D01*
X023290Y013755D01*
X023290Y013380D02*
X022990Y013380D01*
X022369Y013455D02*
X022369Y013605D01*
X022219Y013605D01*
X022069Y013755D02*
X022069Y013455D01*
X022144Y013380D01*
X022294Y013380D01*
X022369Y013455D01*
X022369Y013755D02*
X022294Y013830D01*
X022144Y013830D01*
X022069Y013755D01*
X022144Y014380D02*
X022294Y014380D01*
X022369Y014455D01*
X022369Y014605D01*
X022219Y014605D01*
X022069Y014455D02*
X022144Y014380D01*
X022069Y014455D02*
X022069Y014755D01*
X022144Y014830D01*
X022294Y014830D01*
X022369Y014755D01*
X022529Y014830D02*
X022830Y014380D01*
X022830Y014830D01*
X022990Y014830D02*
X023215Y014830D01*
X023290Y014755D01*
X023290Y014455D01*
X023215Y014380D01*
X022990Y014380D01*
X022990Y014830D01*
X022529Y014830D02*
X022529Y014380D01*
X022529Y015380D02*
X022529Y015830D01*
X022755Y015830D01*
X022830Y015755D01*
X022830Y015605D01*
X022755Y015530D01*
X022529Y015530D01*
X022369Y015455D02*
X022369Y015605D01*
X022219Y015605D01*
X022069Y015755D02*
X022069Y015455D01*
X022144Y015380D01*
X022294Y015380D01*
X022369Y015455D01*
X022369Y015755D02*
X022294Y015830D01*
X022144Y015830D01*
X022069Y015755D01*
X022144Y016380D02*
X022294Y016380D01*
X022369Y016455D01*
X022369Y016605D01*
X022219Y016605D01*
X022069Y016455D02*
X022144Y016380D01*
X022069Y016455D02*
X022069Y016755D01*
X022144Y016830D01*
X022294Y016830D01*
X022369Y016755D01*
X022529Y016830D02*
X022755Y016830D01*
X022830Y016755D01*
X022830Y016605D01*
X022755Y016530D01*
X022529Y016530D01*
X022529Y016380D02*
X022529Y016830D01*
X022990Y016680D02*
X023140Y016830D01*
X023140Y016380D01*
X022990Y016380D02*
X023290Y016380D01*
X023450Y016455D02*
X023525Y016380D01*
X023675Y016380D01*
X023750Y016455D01*
X023750Y016605D01*
X023675Y016680D01*
X023600Y016680D01*
X023450Y016605D01*
X023450Y016830D01*
X023750Y016830D01*
X023675Y017380D02*
X023675Y017830D01*
X023450Y017605D01*
X023750Y017605D01*
X023290Y017380D02*
X022990Y017380D01*
X023140Y017380D02*
X023140Y017830D01*
X022990Y017680D01*
X022830Y017605D02*
X022755Y017530D01*
X022529Y017530D01*
X022529Y017380D02*
X022529Y017830D01*
X022755Y017830D01*
X022830Y017755D01*
X022830Y017605D01*
X022369Y017605D02*
X022369Y017455D01*
X022294Y017380D01*
X022144Y017380D01*
X022069Y017455D01*
X022069Y017755D01*
X022144Y017830D01*
X022294Y017830D01*
X022369Y017755D01*
X022369Y017605D02*
X022219Y017605D01*
X022144Y018380D02*
X022294Y018380D01*
X022369Y018455D01*
X022369Y018605D01*
X022219Y018605D01*
X022069Y018455D02*
X022144Y018380D01*
X022069Y018455D02*
X022069Y018755D01*
X022144Y018830D01*
X022294Y018830D01*
X022369Y018755D01*
X022529Y018830D02*
X022830Y018380D01*
X022830Y018830D01*
X022990Y018830D02*
X023215Y018830D01*
X023290Y018755D01*
X023290Y018455D01*
X023215Y018380D01*
X022990Y018380D01*
X022990Y018830D01*
X022529Y018830D02*
X022529Y018380D01*
X022679Y019380D02*
X022529Y019530D01*
X022529Y019830D01*
X022369Y019830D02*
X022069Y019830D01*
X022069Y019605D01*
X022219Y019680D01*
X022294Y019680D01*
X022369Y019605D01*
X022369Y019455D01*
X022294Y019380D01*
X022144Y019380D01*
X022069Y019455D01*
X022679Y019380D02*
X022830Y019530D01*
X022830Y019830D01*
X022679Y020380D02*
X022830Y020530D01*
X022830Y020830D01*
X022529Y020830D02*
X022529Y020530D01*
X022679Y020380D01*
X022369Y020455D02*
X022369Y020605D01*
X022294Y020680D01*
X022219Y020680D01*
X022069Y020605D01*
X022069Y020830D01*
X022369Y020830D01*
X022369Y020455D02*
X022294Y020380D01*
X022144Y020380D01*
X022069Y020455D01*
X025563Y020455D02*
X025638Y020380D01*
X025789Y020380D01*
X025864Y020455D01*
X025864Y020530D01*
X025789Y020605D01*
X025714Y020605D01*
X025789Y020605D02*
X025864Y020680D01*
X025864Y020755D01*
X025789Y020830D01*
X025638Y020830D01*
X025563Y020755D01*
X026024Y020830D02*
X026024Y020530D01*
X026174Y020380D01*
X026324Y020530D01*
X026324Y020830D01*
X026484Y020755D02*
X026559Y020830D01*
X026709Y020830D01*
X026784Y020755D01*
X026784Y020680D01*
X026709Y020605D01*
X026784Y020530D01*
X026784Y020455D01*
X026709Y020380D01*
X026559Y020380D01*
X026484Y020455D01*
X026634Y020605D02*
X026709Y020605D01*
X026709Y019830D02*
X026559Y019830D01*
X026484Y019755D01*
X026324Y019755D02*
X026249Y019830D01*
X026024Y019830D01*
X026024Y019380D01*
X026024Y019530D02*
X026249Y019530D01*
X026324Y019605D01*
X026324Y019755D01*
X026709Y019830D02*
X026784Y019755D01*
X026784Y019680D01*
X026484Y019380D01*
X026784Y019380D01*
X026709Y018830D02*
X026784Y018755D01*
X026784Y018680D01*
X026709Y018605D01*
X026784Y018530D01*
X026784Y018455D01*
X026709Y018380D01*
X026559Y018380D01*
X026484Y018455D01*
X026634Y018605D02*
X026709Y018605D01*
X026709Y018830D02*
X026559Y018830D01*
X026484Y018755D01*
X026324Y018755D02*
X026324Y018605D01*
X026249Y018530D01*
X026024Y018530D01*
X026024Y018380D02*
X026024Y018830D01*
X026249Y018830D01*
X026324Y018755D01*
X025864Y018755D02*
X025789Y018830D01*
X025638Y018830D01*
X025563Y018755D01*
X025563Y018455D01*
X025638Y018380D01*
X025789Y018380D01*
X025864Y018455D01*
X025864Y018605D01*
X025714Y018605D01*
X025789Y017830D02*
X025638Y017830D01*
X025563Y017755D01*
X025563Y017455D01*
X025638Y017380D01*
X025789Y017380D01*
X025864Y017455D01*
X025864Y017605D01*
X025714Y017605D01*
X025864Y017755D02*
X025789Y017830D01*
X026024Y017830D02*
X026249Y017830D01*
X026324Y017755D01*
X026324Y017605D01*
X026249Y017530D01*
X026024Y017530D01*
X026024Y017380D02*
X026024Y017830D01*
X026484Y017605D02*
X026784Y017605D01*
X026709Y017380D02*
X026709Y017830D01*
X026484Y017605D01*
X026484Y016830D02*
X026709Y016830D01*
X026784Y016755D01*
X026784Y016455D01*
X026709Y016380D01*
X026484Y016380D01*
X026484Y016830D01*
X026324Y016830D02*
X026324Y016380D01*
X026024Y016830D01*
X026024Y016380D01*
X025864Y016455D02*
X025864Y016605D01*
X025714Y016605D01*
X025864Y016455D02*
X025789Y016380D01*
X025638Y016380D01*
X025563Y016455D01*
X025563Y016755D01*
X025638Y016830D01*
X025789Y016830D01*
X025864Y016755D01*
X025789Y015830D02*
X025563Y015830D01*
X025563Y015380D01*
X025563Y015530D02*
X025789Y015530D01*
X025864Y015605D01*
X025864Y015755D01*
X025789Y015830D01*
X026024Y015680D02*
X026174Y015830D01*
X026174Y015380D01*
X026024Y015380D02*
X026324Y015380D01*
X026484Y015380D02*
X026484Y015455D01*
X026784Y015755D01*
X026784Y015830D01*
X026484Y015830D01*
X025403Y015755D02*
X025328Y015830D01*
X025178Y015830D01*
X025103Y015755D01*
X025103Y015455D01*
X025178Y015380D01*
X025328Y015380D01*
X025403Y015455D01*
X025403Y015605D01*
X025253Y015605D01*
X025178Y014830D02*
X025103Y014755D01*
X025103Y014455D01*
X025178Y014380D01*
X025328Y014380D01*
X025403Y014455D01*
X025403Y014605D01*
X025253Y014605D01*
X025403Y014755D02*
X025328Y014830D01*
X025178Y014830D01*
X025563Y014830D02*
X025789Y014830D01*
X025864Y014755D01*
X025864Y014605D01*
X025789Y014530D01*
X025563Y014530D01*
X025563Y014380D02*
X025563Y014830D01*
X026024Y014755D02*
X026099Y014830D01*
X026249Y014830D01*
X026324Y014755D01*
X026324Y014680D01*
X026024Y014380D01*
X026324Y014380D01*
X026484Y014380D02*
X026484Y014455D01*
X026784Y014755D01*
X026784Y014830D01*
X026484Y014830D01*
X026559Y013830D02*
X026484Y013755D01*
X026559Y013830D02*
X026709Y013830D01*
X026784Y013755D01*
X026784Y013680D01*
X026484Y013380D01*
X026784Y013380D01*
X026324Y013380D02*
X026024Y013380D01*
X026324Y013680D01*
X026324Y013755D01*
X026249Y013830D01*
X026099Y013830D01*
X026024Y013755D01*
X025864Y013755D02*
X025864Y013605D01*
X025789Y013530D01*
X025563Y013530D01*
X025563Y013380D02*
X025563Y013830D01*
X025789Y013830D01*
X025864Y013755D01*
X025403Y013755D02*
X025328Y013830D01*
X025178Y013830D01*
X025103Y013755D01*
X025103Y013455D01*
X025178Y013380D01*
X025328Y013380D01*
X025403Y013455D01*
X025403Y013605D01*
X025253Y013605D01*
X025638Y012830D02*
X025789Y012830D01*
X025864Y012755D01*
X025864Y012680D01*
X025789Y012605D01*
X025864Y012530D01*
X025864Y012455D01*
X025789Y012380D01*
X025638Y012380D01*
X025563Y012455D01*
X025714Y012605D02*
X025789Y012605D01*
X026024Y012530D02*
X026174Y012380D01*
X026324Y012530D01*
X026324Y012830D01*
X026484Y012755D02*
X026559Y012830D01*
X026709Y012830D01*
X026784Y012755D01*
X026784Y012680D01*
X026709Y012605D01*
X026784Y012530D01*
X026784Y012455D01*
X026709Y012380D01*
X026559Y012380D01*
X026484Y012455D01*
X026634Y012605D02*
X026709Y012605D01*
X026024Y012530D02*
X026024Y012830D01*
X025638Y012830D02*
X025563Y012755D01*
X025563Y011830D02*
X025789Y011830D01*
X025864Y011755D01*
X025864Y011605D01*
X025789Y011530D01*
X025563Y011530D01*
X025563Y011380D02*
X025563Y011830D01*
X025403Y011755D02*
X025328Y011830D01*
X025178Y011830D01*
X025103Y011755D01*
X025103Y011455D01*
X025178Y011380D01*
X025328Y011380D01*
X025403Y011455D01*
X025403Y011605D01*
X025253Y011605D01*
X026024Y011680D02*
X026174Y011830D01*
X026174Y011380D01*
X026024Y011380D02*
X026324Y011380D01*
X026484Y011455D02*
X026484Y011755D01*
X026559Y011830D01*
X026709Y011830D01*
X026784Y011755D01*
X026484Y011455D01*
X026559Y011380D01*
X026709Y011380D01*
X026784Y011455D01*
X026784Y011755D01*
X026709Y010830D02*
X026559Y010830D01*
X026484Y010755D01*
X026484Y010680D01*
X026559Y010605D01*
X026784Y010605D01*
X026784Y010455D02*
X026709Y010380D01*
X026559Y010380D01*
X026484Y010455D01*
X026324Y010605D02*
X026249Y010530D01*
X026024Y010530D01*
X026024Y010380D02*
X026024Y010830D01*
X026249Y010830D01*
X026324Y010755D01*
X026324Y010605D01*
X026709Y010830D02*
X026784Y010755D01*
X026784Y010455D01*
X026634Y009830D02*
X026634Y009380D01*
X026484Y009380D02*
X026784Y009380D01*
X026484Y009680D02*
X026634Y009830D01*
X026174Y009830D02*
X026174Y009380D01*
X026024Y009380D02*
X026324Y009380D01*
X026024Y009680D02*
X026174Y009830D01*
X025864Y009755D02*
X025864Y009605D01*
X025789Y009530D01*
X025563Y009530D01*
X025563Y009380D02*
X025563Y009830D01*
X025789Y009830D01*
X025864Y009755D01*
X025403Y009755D02*
X025328Y009830D01*
X025178Y009830D01*
X025103Y009755D01*
X025103Y009455D01*
X025178Y009380D01*
X025328Y009380D01*
X025403Y009455D01*
X025403Y009605D01*
X025253Y009605D01*
X025638Y010380D02*
X025789Y010380D01*
X025864Y010455D01*
X025864Y010605D01*
X025714Y010605D01*
X025864Y010755D02*
X025789Y010830D01*
X025638Y010830D01*
X025563Y010755D01*
X025563Y010455D01*
X025638Y010380D01*
X025638Y008830D02*
X025563Y008755D01*
X025563Y008455D01*
X025638Y008380D01*
X025789Y008380D01*
X025864Y008455D01*
X025864Y008605D01*
X025714Y008605D01*
X025864Y008755D02*
X025789Y008830D01*
X025638Y008830D01*
X026024Y008830D02*
X026324Y008380D01*
X026324Y008830D01*
X026484Y008830D02*
X026709Y008830D01*
X026784Y008755D01*
X026784Y008455D01*
X026709Y008380D01*
X026484Y008380D01*
X026484Y008830D01*
X026024Y008830D02*
X026024Y008380D01*
X026099Y007830D02*
X026024Y007755D01*
X026024Y007680D01*
X026099Y007605D01*
X026249Y007605D01*
X026324Y007530D01*
X026324Y007455D01*
X026249Y007380D01*
X026099Y007380D01*
X026024Y007455D01*
X025869Y007455D02*
X025869Y007380D01*
X025794Y007380D01*
X025794Y007455D01*
X025869Y007455D01*
X025633Y007455D02*
X025633Y007755D01*
X025558Y007830D01*
X025333Y007830D01*
X025333Y007380D01*
X025558Y007380D01*
X025633Y007455D01*
X025176Y007380D02*
X025026Y007380D01*
X025101Y007380D02*
X025101Y007830D01*
X025026Y007830D02*
X025176Y007830D01*
X026099Y007830D02*
X026249Y007830D01*
X026324Y007755D01*
X026484Y007830D02*
X026484Y007380D01*
X026709Y007380D01*
X026784Y007455D01*
X026784Y007755D01*
X026709Y007830D01*
X026484Y007830D01*
X026484Y006830D02*
X026484Y006605D01*
X026634Y006680D01*
X026709Y006680D01*
X026784Y006605D01*
X026784Y006455D01*
X026709Y006380D01*
X026559Y006380D01*
X026484Y006455D01*
X026324Y006605D02*
X026324Y006755D01*
X026249Y006830D01*
X026024Y006830D01*
X026024Y006380D01*
X026024Y006530D02*
X026249Y006530D01*
X026324Y006605D01*
X026484Y006830D02*
X026784Y006830D01*
X025864Y006755D02*
X025789Y006830D01*
X025638Y006830D01*
X025563Y006755D01*
X025563Y006455D01*
X025638Y006380D01*
X025789Y006380D01*
X025864Y006455D01*
X025864Y006605D01*
X025714Y006605D01*
X025789Y005830D02*
X025638Y005830D01*
X025563Y005755D01*
X025563Y005455D01*
X025638Y005380D01*
X025789Y005380D01*
X025864Y005455D01*
X025864Y005605D01*
X025714Y005605D01*
X025864Y005755D02*
X025789Y005830D01*
X026024Y005830D02*
X026249Y005830D01*
X026324Y005755D01*
X026324Y005605D01*
X026249Y005530D01*
X026024Y005530D01*
X026024Y005380D02*
X026024Y005830D01*
X026484Y005605D02*
X026484Y005455D01*
X026559Y005380D01*
X026709Y005380D01*
X026784Y005455D01*
X026784Y005530D01*
X026709Y005605D01*
X026484Y005605D01*
X026634Y005755D01*
X026784Y005830D01*
X026709Y004830D02*
X026784Y004755D01*
X026784Y004680D01*
X026709Y004605D01*
X026784Y004530D01*
X026784Y004455D01*
X026709Y004380D01*
X026559Y004380D01*
X026484Y004455D01*
X026324Y004380D02*
X026024Y004380D01*
X026174Y004380D02*
X026174Y004830D01*
X026024Y004680D01*
X025864Y004755D02*
X025864Y004605D01*
X025789Y004530D01*
X025563Y004530D01*
X025563Y004380D02*
X025563Y004830D01*
X025789Y004830D01*
X025864Y004755D01*
X025403Y004755D02*
X025328Y004830D01*
X025178Y004830D01*
X025103Y004755D01*
X025103Y004455D01*
X025178Y004380D01*
X025328Y004380D01*
X025403Y004455D01*
X025403Y004605D01*
X025253Y004605D01*
X025178Y003830D02*
X025103Y003755D01*
X025103Y003455D01*
X025178Y003380D01*
X025328Y003380D01*
X025403Y003455D01*
X025403Y003605D01*
X025253Y003605D01*
X025403Y003755D02*
X025328Y003830D01*
X025178Y003830D01*
X025563Y003830D02*
X025789Y003830D01*
X025864Y003755D01*
X025864Y003605D01*
X025789Y003530D01*
X025563Y003530D01*
X025563Y003380D02*
X025563Y003830D01*
X026024Y003680D02*
X026174Y003830D01*
X026174Y003380D01*
X026024Y003380D02*
X026324Y003380D01*
X026484Y003455D02*
X026559Y003380D01*
X026709Y003380D01*
X026784Y003455D01*
X026784Y003755D01*
X026709Y003830D01*
X026559Y003830D01*
X026484Y003755D01*
X026484Y003680D01*
X026559Y003605D01*
X026784Y003605D01*
X026784Y002830D02*
X026634Y002755D01*
X026484Y002605D01*
X026709Y002605D01*
X026784Y002530D01*
X026784Y002455D01*
X026709Y002380D01*
X026559Y002380D01*
X026484Y002455D01*
X026484Y002605D01*
X026324Y002680D02*
X026324Y002755D01*
X026249Y002830D01*
X026099Y002830D01*
X026024Y002755D01*
X025864Y002755D02*
X025864Y002605D01*
X025789Y002530D01*
X025563Y002530D01*
X025563Y002380D02*
X025563Y002830D01*
X025789Y002830D01*
X025864Y002755D01*
X026024Y002380D02*
X026324Y002680D01*
X026324Y002380D02*
X026024Y002380D01*
X025403Y002455D02*
X025403Y002605D01*
X025253Y002605D01*
X025103Y002455D02*
X025178Y002380D01*
X025328Y002380D01*
X025403Y002455D01*
X025103Y002455D02*
X025103Y002755D01*
X025178Y002830D01*
X025328Y002830D01*
X025403Y002755D01*
X025638Y001830D02*
X025563Y001755D01*
X025563Y001455D01*
X025638Y001380D01*
X025789Y001380D01*
X025864Y001455D01*
X025864Y001605D01*
X025714Y001605D01*
X025864Y001755D02*
X025789Y001830D01*
X025638Y001830D01*
X026024Y001830D02*
X026324Y001380D01*
X026324Y001830D01*
X026484Y001830D02*
X026709Y001830D01*
X026784Y001755D01*
X026784Y001455D01*
X026709Y001380D01*
X026484Y001380D01*
X026484Y001830D01*
X026024Y001830D02*
X026024Y001380D01*
X023750Y001380D02*
X023450Y001380D01*
X023600Y001380D02*
X023600Y001830D01*
X023450Y001680D01*
X023290Y001680D02*
X022990Y001380D01*
X023290Y001380D01*
X023290Y001680D02*
X023290Y001755D01*
X023215Y001830D01*
X023065Y001830D01*
X022990Y001755D01*
X022830Y001755D02*
X022755Y001830D01*
X022529Y001830D01*
X022529Y001380D01*
X022529Y001530D02*
X022755Y001530D01*
X022830Y001605D01*
X022830Y001755D01*
X022369Y001755D02*
X022294Y001830D01*
X022144Y001830D01*
X022069Y001755D01*
X022069Y001455D01*
X022144Y001380D01*
X022294Y001380D01*
X022369Y001455D01*
X022369Y001605D01*
X022219Y001605D01*
X022144Y002380D02*
X022294Y002380D01*
X022369Y002455D01*
X022369Y002605D01*
X022219Y002605D01*
X022069Y002455D02*
X022144Y002380D01*
X022069Y002455D02*
X022069Y002755D01*
X022144Y002830D01*
X022294Y002830D01*
X022369Y002755D01*
X022529Y002830D02*
X022755Y002830D01*
X022830Y002755D01*
X022830Y002605D01*
X022755Y002530D01*
X022529Y002530D01*
X022529Y002380D02*
X022529Y002830D01*
X022990Y002755D02*
X023065Y002830D01*
X023215Y002830D01*
X023290Y002755D01*
X023290Y002680D01*
X022990Y002380D01*
X023290Y002380D01*
X023450Y002455D02*
X023750Y002755D01*
X023750Y002455D01*
X023675Y002380D01*
X023525Y002380D01*
X023450Y002455D01*
X023450Y002755D01*
X023525Y002830D01*
X023675Y002830D01*
X023750Y002755D01*
X023675Y003380D02*
X023750Y003455D01*
X023750Y003530D01*
X023675Y003605D01*
X023450Y003605D01*
X023450Y003455D01*
X023525Y003380D01*
X023675Y003380D01*
X023450Y003605D02*
X023600Y003755D01*
X023750Y003830D01*
X023140Y003830D02*
X023140Y003380D01*
X022990Y003380D02*
X023290Y003380D01*
X022990Y003680D02*
X023140Y003830D01*
X022830Y003755D02*
X022830Y003605D01*
X022755Y003530D01*
X022529Y003530D01*
X022529Y003380D02*
X022529Y003830D01*
X022755Y003830D01*
X022830Y003755D01*
X022369Y003755D02*
X022294Y003830D01*
X022144Y003830D01*
X022069Y003755D01*
X022069Y003455D01*
X022144Y003380D01*
X022294Y003380D01*
X022369Y003455D01*
X022369Y003605D01*
X022219Y003605D01*
X022144Y004380D02*
X022294Y004380D01*
X022369Y004455D01*
X022369Y004605D01*
X022219Y004605D01*
X022069Y004455D02*
X022144Y004380D01*
X022069Y004455D02*
X022069Y004755D01*
X022144Y004830D01*
X022294Y004830D01*
X022369Y004755D01*
X022529Y004830D02*
X022830Y004380D01*
X022830Y004830D01*
X022990Y004830D02*
X023215Y004830D01*
X023290Y004755D01*
X023290Y004455D01*
X023215Y004380D01*
X022990Y004380D01*
X022990Y004830D01*
X022529Y004830D02*
X022529Y004380D01*
X022529Y005380D02*
X022529Y005830D01*
X022755Y005830D01*
X022830Y005755D01*
X022830Y005605D01*
X022755Y005530D01*
X022529Y005530D01*
X022369Y005455D02*
X022369Y005605D01*
X022219Y005605D01*
X022069Y005755D02*
X022069Y005455D01*
X022144Y005380D01*
X022294Y005380D01*
X022369Y005455D01*
X022369Y005755D02*
X022294Y005830D01*
X022144Y005830D01*
X022069Y005755D01*
X022144Y006380D02*
X022294Y006380D01*
X022369Y006455D01*
X022369Y006605D01*
X022219Y006605D01*
X022069Y006455D02*
X022144Y006380D01*
X022069Y006455D02*
X022069Y006755D01*
X022144Y006830D01*
X022294Y006830D01*
X022369Y006755D01*
X022529Y006830D02*
X022830Y006380D01*
X022830Y006830D01*
X022990Y006830D02*
X023215Y006830D01*
X023290Y006755D01*
X023290Y006455D01*
X023215Y006380D01*
X022990Y006380D01*
X022990Y006830D01*
X022529Y006830D02*
X022529Y006380D01*
X023140Y005830D02*
X023140Y005380D01*
X022990Y005380D02*
X023290Y005380D01*
X023450Y005380D02*
X023750Y005680D01*
X023750Y005755D01*
X023675Y005830D01*
X023525Y005830D01*
X023450Y005755D01*
X023140Y005830D02*
X022990Y005680D01*
X023450Y005380D02*
X023750Y005380D01*
X026484Y004755D02*
X026559Y004830D01*
X026709Y004830D01*
X026709Y004605D02*
X026634Y004605D01*
X029345Y004455D02*
X029420Y004380D01*
X029570Y004380D01*
X029645Y004455D01*
X029645Y004605D01*
X029495Y004605D01*
X029645Y004755D02*
X029570Y004830D01*
X029420Y004830D01*
X029345Y004755D01*
X029345Y004455D01*
X029805Y004380D02*
X029805Y004830D01*
X030105Y004380D01*
X030105Y004830D01*
X030265Y004830D02*
X030491Y004830D01*
X030566Y004755D01*
X030566Y004455D01*
X030491Y004380D01*
X030265Y004380D01*
X030265Y004830D01*
X030265Y005380D02*
X030566Y005380D01*
X030415Y005380D02*
X030415Y005830D01*
X030265Y005680D01*
X030105Y005605D02*
X030030Y005530D01*
X029805Y005530D01*
X029805Y005380D02*
X029805Y005830D01*
X030030Y005830D01*
X030105Y005755D01*
X030105Y005605D01*
X029645Y005605D02*
X029645Y005455D01*
X029570Y005380D01*
X029420Y005380D01*
X029345Y005455D01*
X029345Y005755D01*
X029420Y005830D01*
X029570Y005830D01*
X029645Y005755D01*
X029645Y005605D02*
X029495Y005605D01*
X029420Y006380D02*
X029570Y006380D01*
X029645Y006455D01*
X029645Y006605D01*
X029495Y006605D01*
X029645Y006755D02*
X029570Y006830D01*
X029420Y006830D01*
X029345Y006755D01*
X029345Y006455D01*
X029420Y006380D01*
X029805Y006380D02*
X029805Y006830D01*
X030105Y006380D01*
X030105Y006830D01*
X030265Y006830D02*
X030491Y006830D01*
X030566Y006755D01*
X030566Y006455D01*
X030491Y006380D01*
X030265Y006380D01*
X030265Y006830D01*
X030187Y007380D02*
X030112Y007380D01*
X030112Y007455D01*
X030187Y007455D01*
X030187Y007380D01*
X030342Y007455D02*
X030417Y007380D01*
X030567Y007380D01*
X030642Y007455D01*
X030642Y007530D01*
X030567Y007605D01*
X030417Y007605D01*
X030342Y007680D01*
X030342Y007755D01*
X030417Y007830D01*
X030567Y007830D01*
X030642Y007755D01*
X030802Y007755D02*
X030802Y007455D01*
X030878Y007380D01*
X031028Y007380D01*
X031103Y007455D01*
X031103Y007755D02*
X031028Y007830D01*
X030878Y007830D01*
X030802Y007755D01*
X029952Y007755D02*
X029952Y007455D01*
X029877Y007380D01*
X029651Y007380D01*
X029651Y007830D01*
X029877Y007830D01*
X029952Y007755D01*
X029495Y007830D02*
X029345Y007830D01*
X029420Y007830D02*
X029420Y007380D01*
X029345Y007380D02*
X029495Y007380D01*
X029420Y008380D02*
X029570Y008380D01*
X029645Y008455D01*
X029645Y008605D01*
X029495Y008605D01*
X029645Y008755D02*
X029570Y008830D01*
X029420Y008830D01*
X029345Y008755D01*
X029345Y008455D01*
X029420Y008380D01*
X029805Y008380D02*
X029805Y008830D01*
X030030Y008830D01*
X030105Y008755D01*
X030105Y008605D01*
X030030Y008530D01*
X029805Y008530D01*
X030265Y008455D02*
X030265Y008380D01*
X030265Y008455D02*
X030566Y008755D01*
X030566Y008830D01*
X030265Y008830D01*
X030340Y009380D02*
X030265Y009455D01*
X030265Y009530D01*
X030340Y009605D01*
X030491Y009605D01*
X030566Y009530D01*
X030566Y009455D01*
X030491Y009380D01*
X030340Y009380D01*
X030340Y009605D02*
X030265Y009680D01*
X030265Y009755D01*
X030340Y009830D01*
X030491Y009830D01*
X030566Y009755D01*
X030566Y009680D01*
X030491Y009605D01*
X030105Y009605D02*
X030030Y009530D01*
X029805Y009530D01*
X029805Y009380D02*
X029805Y009830D01*
X030030Y009830D01*
X030105Y009755D01*
X030105Y009605D01*
X029645Y009605D02*
X029645Y009455D01*
X029570Y009380D01*
X029420Y009380D01*
X029345Y009455D01*
X029345Y009755D01*
X029420Y009830D01*
X029570Y009830D01*
X029645Y009755D01*
X029645Y009605D02*
X029495Y009605D01*
X029420Y010380D02*
X029570Y010380D01*
X029645Y010455D01*
X029645Y010605D01*
X029495Y010605D01*
X029645Y010755D02*
X029570Y010830D01*
X029420Y010830D01*
X029345Y010755D01*
X029345Y010455D01*
X029420Y010380D01*
X029805Y010380D02*
X029805Y010830D01*
X030030Y010830D01*
X030105Y010755D01*
X030105Y010605D01*
X030030Y010530D01*
X029805Y010530D01*
X030265Y010380D02*
X030566Y010680D01*
X030566Y010755D01*
X030491Y010830D01*
X030340Y010830D01*
X030265Y010755D01*
X030726Y010830D02*
X030726Y010605D01*
X030876Y010680D01*
X030951Y010680D01*
X031026Y010605D01*
X031026Y010455D01*
X030951Y010380D01*
X030801Y010380D01*
X030726Y010455D01*
X030566Y010380D02*
X030265Y010380D01*
X030726Y010830D02*
X031026Y010830D01*
X030491Y011380D02*
X030566Y011455D01*
X030566Y011755D01*
X030491Y011830D01*
X030265Y011830D01*
X030265Y011380D01*
X030491Y011380D01*
X030105Y011380D02*
X030105Y011830D01*
X029805Y011830D02*
X030105Y011380D01*
X029805Y011380D02*
X029805Y011830D01*
X029645Y011755D02*
X029570Y011830D01*
X029420Y011830D01*
X029345Y011755D01*
X029345Y011455D01*
X029420Y011380D01*
X029570Y011380D01*
X029645Y011455D01*
X029645Y011605D01*
X029495Y011605D01*
X029420Y012380D02*
X029570Y012380D01*
X029645Y012455D01*
X029645Y012605D01*
X029495Y012605D01*
X029645Y012755D02*
X029570Y012830D01*
X029420Y012830D01*
X029345Y012755D01*
X029345Y012455D01*
X029420Y012380D01*
X029805Y012380D02*
X029805Y012830D01*
X030030Y012830D01*
X030105Y012755D01*
X030105Y012605D01*
X030030Y012530D01*
X029805Y012530D01*
X030265Y012380D02*
X030566Y012680D01*
X030566Y012755D01*
X030491Y012830D01*
X030340Y012830D01*
X030265Y012755D01*
X030726Y012605D02*
X031026Y012605D01*
X030951Y012380D02*
X030951Y012830D01*
X030726Y012605D01*
X030566Y012380D02*
X030265Y012380D01*
X030265Y013380D02*
X030566Y013680D01*
X030566Y013755D01*
X030491Y013830D01*
X030340Y013830D01*
X030265Y013755D01*
X030105Y013755D02*
X030030Y013830D01*
X029805Y013830D01*
X029805Y013380D01*
X029805Y013530D02*
X030030Y013530D01*
X030105Y013605D01*
X030105Y013755D01*
X030265Y013380D02*
X030566Y013380D01*
X030726Y013455D02*
X030801Y013380D01*
X030951Y013380D01*
X031026Y013455D01*
X031026Y013530D01*
X030951Y013605D01*
X030876Y013605D01*
X030951Y013605D02*
X031026Y013680D01*
X031026Y013755D01*
X030951Y013830D01*
X030801Y013830D01*
X030726Y013755D01*
X030491Y014380D02*
X030566Y014455D01*
X030566Y014755D01*
X030491Y014830D01*
X030265Y014830D01*
X030265Y014380D01*
X030491Y014380D01*
X030105Y014380D02*
X030105Y014830D01*
X029805Y014830D02*
X030105Y014380D01*
X029805Y014380D02*
X029805Y014830D01*
X029645Y014755D02*
X029570Y014830D01*
X029420Y014830D01*
X029345Y014755D01*
X029345Y014455D01*
X029420Y014380D01*
X029570Y014380D01*
X029645Y014455D01*
X029645Y014605D01*
X029495Y014605D01*
X029570Y013830D02*
X029420Y013830D01*
X029345Y013755D01*
X029345Y013455D01*
X029420Y013380D01*
X029570Y013380D01*
X029645Y013455D01*
X029645Y013605D01*
X029495Y013605D01*
X029645Y013755D02*
X029570Y013830D01*
X029570Y015380D02*
X029420Y015380D01*
X029345Y015455D01*
X029345Y015755D01*
X029420Y015830D01*
X029570Y015830D01*
X029645Y015755D01*
X029645Y015605D02*
X029495Y015605D01*
X029645Y015605D02*
X029645Y015455D01*
X029570Y015380D01*
X029805Y015380D02*
X029805Y015830D01*
X030030Y015830D01*
X030105Y015755D01*
X030105Y015605D01*
X030030Y015530D01*
X029805Y015530D01*
X030265Y015380D02*
X030566Y015380D01*
X030415Y015380D02*
X030415Y015830D01*
X030265Y015680D01*
X030726Y015680D02*
X030726Y015755D01*
X030801Y015830D01*
X030951Y015830D01*
X031026Y015755D01*
X031026Y015680D01*
X030951Y015605D01*
X030801Y015605D01*
X030726Y015680D01*
X030801Y015605D02*
X030726Y015530D01*
X030726Y015455D01*
X030801Y015380D01*
X030951Y015380D01*
X031026Y015455D01*
X031026Y015530D01*
X030951Y015605D01*
X030951Y016380D02*
X030801Y016380D01*
X030726Y016455D01*
X030726Y016605D02*
X030876Y016680D01*
X030951Y016680D01*
X031026Y016605D01*
X031026Y016455D01*
X030951Y016380D01*
X030726Y016605D02*
X030726Y016830D01*
X031026Y016830D01*
X030415Y016830D02*
X030415Y016380D01*
X030265Y016380D02*
X030566Y016380D01*
X030265Y016680D02*
X030415Y016830D01*
X030105Y016755D02*
X030105Y016605D01*
X030030Y016530D01*
X029805Y016530D01*
X029805Y016380D02*
X029805Y016830D01*
X030030Y016830D01*
X030105Y016755D01*
X029645Y016755D02*
X029570Y016830D01*
X029420Y016830D01*
X029345Y016755D01*
X029345Y016455D01*
X029420Y016380D01*
X029570Y016380D01*
X029645Y016455D01*
X029645Y016605D01*
X029495Y016605D01*
X029420Y017380D02*
X029570Y017380D01*
X029645Y017455D01*
X029645Y017605D01*
X029495Y017605D01*
X029645Y017755D02*
X029570Y017830D01*
X029420Y017830D01*
X029345Y017755D01*
X029345Y017455D01*
X029420Y017380D01*
X029805Y017380D02*
X029805Y017830D01*
X030030Y017830D01*
X030105Y017755D01*
X030105Y017605D01*
X030030Y017530D01*
X029805Y017530D01*
X030265Y017380D02*
X030566Y017380D01*
X030415Y017380D02*
X030415Y017830D01*
X030265Y017680D01*
X030726Y017605D02*
X031026Y017605D01*
X030951Y017380D02*
X030951Y017830D01*
X030726Y017605D01*
X030491Y018380D02*
X030566Y018455D01*
X030566Y018755D01*
X030491Y018830D01*
X030265Y018830D01*
X030265Y018380D01*
X030491Y018380D01*
X030105Y018380D02*
X030105Y018830D01*
X029805Y018830D02*
X030105Y018380D01*
X029805Y018380D02*
X029805Y018830D01*
X029645Y018755D02*
X029570Y018830D01*
X029420Y018830D01*
X029345Y018755D01*
X029345Y018455D01*
X029420Y018380D01*
X029570Y018380D01*
X029645Y018455D01*
X029645Y018605D01*
X029495Y018605D01*
X029570Y019380D02*
X029420Y019380D01*
X029345Y019455D01*
X029345Y019605D02*
X029495Y019680D01*
X029570Y019680D01*
X029645Y019605D01*
X029645Y019455D01*
X029570Y019380D01*
X029805Y019530D02*
X029955Y019380D01*
X030105Y019530D01*
X030105Y019830D01*
X029805Y019830D02*
X029805Y019530D01*
X029345Y019605D02*
X029345Y019830D01*
X029645Y019830D01*
X029570Y020380D02*
X029420Y020380D01*
X029345Y020455D01*
X029345Y020605D02*
X029495Y020680D01*
X029570Y020680D01*
X029645Y020605D01*
X029645Y020455D01*
X029570Y020380D01*
X029805Y020530D02*
X029955Y020380D01*
X030105Y020530D01*
X030105Y020830D01*
X029805Y020830D02*
X029805Y020530D01*
X029645Y020830D02*
X029345Y020830D01*
X029345Y020605D01*
X025864Y019755D02*
X025789Y019830D01*
X025638Y019830D01*
X025563Y019755D01*
X025563Y019455D01*
X025638Y019380D01*
X025789Y019380D01*
X025864Y019455D01*
X025864Y019605D01*
X025714Y019605D01*
X023675Y015830D02*
X023750Y015755D01*
X023750Y015680D01*
X023675Y015605D01*
X023525Y015605D01*
X023450Y015680D01*
X023450Y015755D01*
X023525Y015830D01*
X023675Y015830D01*
X023675Y015605D02*
X023750Y015530D01*
X023750Y015455D01*
X023675Y015380D01*
X023525Y015380D01*
X023450Y015455D01*
X023450Y015530D01*
X023525Y015605D01*
X023290Y015380D02*
X022990Y015380D01*
X023140Y015380D02*
X023140Y015830D01*
X022990Y015680D01*
X016475Y015680D02*
X016400Y015605D01*
X016250Y015605D01*
X016175Y015680D01*
X016175Y015755D01*
X016250Y015830D01*
X016400Y015830D01*
X016475Y015755D01*
X016475Y015680D01*
X016400Y015605D02*
X016475Y015530D01*
X016475Y015455D01*
X016400Y015380D01*
X016250Y015380D01*
X016175Y015455D01*
X016175Y015530D01*
X016250Y015605D01*
X022144Y008830D02*
X022069Y008755D01*
X022069Y008455D01*
X022144Y008380D01*
X022294Y008380D01*
X022369Y008455D01*
X022369Y008605D01*
X022219Y008605D01*
X022369Y008755D02*
X022294Y008830D01*
X022144Y008830D01*
X022529Y008830D02*
X022755Y008830D01*
X022830Y008755D01*
X022830Y008605D01*
X022755Y008530D01*
X022529Y008530D01*
X022529Y008380D02*
X022529Y008830D01*
X022990Y008830D02*
X023290Y008830D01*
X023290Y008755D01*
X022990Y008455D01*
X022990Y008380D01*
X023142Y007830D02*
X023066Y007755D01*
X023066Y007680D01*
X023142Y007605D01*
X023292Y007605D01*
X023367Y007530D01*
X023367Y007455D01*
X023292Y007380D01*
X023142Y007380D01*
X023066Y007455D01*
X022911Y007455D02*
X022911Y007380D01*
X022836Y007380D01*
X022836Y007455D01*
X022911Y007455D01*
X022676Y007455D02*
X022676Y007755D01*
X022601Y007830D01*
X022376Y007830D01*
X022376Y007380D01*
X022601Y007380D01*
X022676Y007455D01*
X022219Y007380D02*
X022069Y007380D01*
X022144Y007380D02*
X022144Y007830D01*
X022069Y007830D02*
X022219Y007830D01*
X023142Y007830D02*
X023292Y007830D01*
X023367Y007755D01*
X023527Y007755D02*
X023527Y007455D01*
X023602Y007380D01*
X023752Y007380D01*
X023827Y007455D01*
X023827Y007755D02*
X023752Y007830D01*
X023602Y007830D01*
X023527Y007755D01*
X019509Y003755D02*
X019434Y003830D01*
X019284Y003830D01*
X019209Y003755D01*
X019209Y003680D01*
X019284Y003605D01*
X019509Y003605D01*
X019509Y003455D02*
X019509Y003755D01*
X019509Y003455D02*
X019434Y003380D01*
X019284Y003380D01*
X019209Y003455D01*
X019048Y003380D02*
X018748Y003380D01*
X018898Y003380D02*
X018898Y003830D01*
X018748Y003680D01*
X018588Y003605D02*
X018513Y003530D01*
X018288Y003530D01*
X018288Y003380D02*
X018288Y003830D01*
X018513Y003830D01*
X018588Y003755D01*
X018588Y003605D01*
X018128Y003605D02*
X018128Y003455D01*
X018053Y003380D01*
X017902Y003380D01*
X017827Y003455D01*
X017827Y003755D01*
X017902Y003830D01*
X018053Y003830D01*
X018128Y003755D01*
X018128Y003605D02*
X017978Y003605D01*
X018053Y002830D02*
X017902Y002830D01*
X017827Y002755D01*
X017827Y002455D01*
X017902Y002380D01*
X018053Y002380D01*
X018128Y002455D01*
X018128Y002605D01*
X017978Y002605D01*
X018128Y002755D02*
X018053Y002830D01*
X018288Y002830D02*
X018513Y002830D01*
X018588Y002755D01*
X018588Y002605D01*
X018513Y002530D01*
X018288Y002530D01*
X018288Y002380D02*
X018288Y002830D01*
X018748Y002755D02*
X018823Y002830D01*
X018973Y002830D01*
X019048Y002755D01*
X019048Y002680D01*
X018748Y002380D01*
X019048Y002380D01*
X019209Y002455D02*
X019284Y002380D01*
X019434Y002380D01*
X019509Y002455D01*
X019509Y002530D01*
X019434Y002605D01*
X019209Y002605D01*
X019209Y002455D01*
X019209Y002605D02*
X019359Y002755D01*
X019509Y002830D01*
X019434Y001830D02*
X019209Y001830D01*
X019209Y001380D01*
X019434Y001380D01*
X019509Y001455D01*
X019509Y001755D01*
X019434Y001830D01*
X019048Y001830D02*
X019048Y001380D01*
X018748Y001830D01*
X018748Y001380D01*
X018588Y001455D02*
X018588Y001605D01*
X018438Y001605D01*
X018588Y001455D02*
X018513Y001380D01*
X018363Y001380D01*
X018288Y001455D01*
X018288Y001755D01*
X018363Y001830D01*
X018513Y001830D01*
X018588Y001755D01*
X016475Y001380D02*
X016175Y001380D01*
X016325Y001380D02*
X016325Y001830D01*
X016175Y001680D01*
X016014Y001680D02*
X016014Y001755D01*
X015939Y001830D01*
X015789Y001830D01*
X015714Y001755D01*
X015554Y001755D02*
X015554Y001605D01*
X015479Y001530D01*
X015254Y001530D01*
X015254Y001380D02*
X015254Y001830D01*
X015479Y001830D01*
X015554Y001755D01*
X015714Y001380D02*
X016014Y001680D01*
X016014Y001380D02*
X015714Y001380D01*
X015094Y001455D02*
X015094Y001605D01*
X014944Y001605D01*
X015094Y001455D02*
X015019Y001380D01*
X014868Y001380D01*
X014793Y001455D01*
X014793Y001755D01*
X014868Y001830D01*
X015019Y001830D01*
X015094Y001755D01*
X015019Y002380D02*
X015094Y002455D01*
X015094Y002605D01*
X014944Y002605D01*
X015094Y002755D02*
X015019Y002830D01*
X014868Y002830D01*
X014793Y002755D01*
X014793Y002455D01*
X014868Y002380D01*
X015019Y002380D01*
X015254Y002380D02*
X015254Y002830D01*
X015479Y002830D01*
X015554Y002755D01*
X015554Y002605D01*
X015479Y002530D01*
X015254Y002530D01*
X015714Y002380D02*
X016014Y002680D01*
X016014Y002755D01*
X015939Y002830D01*
X015789Y002830D01*
X015714Y002755D01*
X015714Y002380D02*
X016014Y002380D01*
X016175Y002455D02*
X016475Y002755D01*
X016475Y002455D01*
X016400Y002380D01*
X016250Y002380D01*
X016175Y002455D01*
X016175Y002755D01*
X016250Y002830D01*
X016400Y002830D01*
X016475Y002755D01*
X016400Y003380D02*
X016475Y003455D01*
X016475Y003530D01*
X016400Y003605D01*
X016175Y003605D01*
X016175Y003455D01*
X016250Y003380D01*
X016400Y003380D01*
X016175Y003605D02*
X016325Y003755D01*
X016475Y003830D01*
X015864Y003830D02*
X015864Y003380D01*
X015714Y003380D02*
X016014Y003380D01*
X015714Y003680D02*
X015864Y003830D01*
X015554Y003755D02*
X015554Y003605D01*
X015479Y003530D01*
X015254Y003530D01*
X015254Y003380D02*
X015254Y003830D01*
X015479Y003830D01*
X015554Y003755D01*
X015094Y003755D02*
X015019Y003830D01*
X014868Y003830D01*
X014793Y003755D01*
X014793Y003455D01*
X014868Y003380D01*
X015019Y003380D01*
X015094Y003455D01*
X015094Y003605D01*
X014944Y003605D01*
X009199Y002755D02*
X009199Y002455D01*
X009124Y002380D01*
X008974Y002380D01*
X008899Y002455D01*
X009199Y002755D01*
X009124Y002830D01*
X008974Y002830D01*
X008899Y002755D01*
X008899Y002455D01*
X008739Y002380D02*
X008439Y002380D01*
X008739Y002680D01*
X008739Y002755D01*
X008664Y002830D01*
X008514Y002830D01*
X008439Y002755D01*
X004958Y002830D02*
X004808Y002755D01*
X004657Y002605D01*
X004883Y004380D02*
X004958Y004455D01*
X004958Y004530D01*
X004883Y004605D01*
X004808Y004605D01*
X004883Y004605D02*
X004958Y004680D01*
X004958Y004755D01*
X004883Y004830D01*
X004732Y004830D01*
X004657Y004755D01*
X004657Y013380D02*
X004958Y013680D01*
X004958Y013755D01*
X004883Y013830D01*
X004732Y013830D01*
X004657Y013755D01*
X004497Y013755D02*
X004422Y013830D01*
X004272Y013830D01*
X004197Y013755D01*
X004037Y013755D02*
X003962Y013830D01*
X003737Y013830D01*
X003737Y013380D01*
X003737Y013530D02*
X003962Y013530D01*
X004037Y013605D01*
X004037Y013755D01*
X004197Y013380D02*
X004497Y013680D01*
X004497Y013755D01*
X004497Y013380D02*
X004197Y013380D01*
X004657Y013380D02*
X004958Y013380D01*
X004657Y014380D02*
X004657Y014455D01*
X004958Y014755D01*
X004958Y014830D01*
X004657Y014830D01*
X004497Y014755D02*
X004422Y014830D01*
X004272Y014830D01*
X004197Y014755D01*
X004037Y014755D02*
X004037Y014605D01*
X003962Y014530D01*
X003737Y014530D01*
X003737Y014380D02*
X003737Y014830D01*
X003962Y014830D01*
X004037Y014755D01*
X003576Y014755D02*
X003501Y014830D01*
X003351Y014830D01*
X003276Y014755D01*
X003276Y014455D01*
X003351Y014380D01*
X003501Y014380D01*
X003576Y014455D01*
X003576Y014605D01*
X003426Y014605D01*
X003351Y013830D02*
X003276Y013755D01*
X003276Y013455D01*
X003351Y013380D01*
X003501Y013380D01*
X003576Y013455D01*
X003576Y013605D01*
X003426Y013605D01*
X003576Y013755D02*
X003501Y013830D01*
X003351Y013830D01*
X004197Y014380D02*
X004497Y014680D01*
X004497Y014755D01*
X004497Y014380D02*
X004197Y014380D01*
X004197Y015380D02*
X004497Y015380D01*
X004347Y015380D02*
X004347Y015830D01*
X004197Y015680D01*
X004037Y015605D02*
X003962Y015530D01*
X003737Y015530D01*
X003737Y015380D02*
X003737Y015830D01*
X003962Y015830D01*
X004037Y015755D01*
X004037Y015605D01*
X003576Y015605D02*
X003576Y015455D01*
X003501Y015380D01*
X003351Y015380D01*
X003276Y015455D01*
X003276Y015755D01*
X003351Y015830D01*
X003501Y015830D01*
X003576Y015755D01*
X003576Y015605D02*
X003426Y015605D01*
X003812Y016380D02*
X003737Y016455D01*
X003737Y016755D01*
X003812Y016830D01*
X003962Y016830D01*
X004037Y016755D01*
X004037Y016605D02*
X003887Y016605D01*
X004037Y016605D02*
X004037Y016455D01*
X003962Y016380D01*
X003812Y016380D01*
X004197Y016380D02*
X004197Y016830D01*
X004497Y016380D01*
X004497Y016830D01*
X004657Y016830D02*
X004883Y016830D01*
X004958Y016755D01*
X004958Y016455D01*
X004883Y016380D01*
X004657Y016380D01*
X004657Y016830D01*
X004883Y017380D02*
X004883Y017830D01*
X004657Y017605D01*
X004958Y017605D01*
X004497Y017605D02*
X004422Y017530D01*
X004197Y017530D01*
X004197Y017380D02*
X004197Y017830D01*
X004422Y017830D01*
X004497Y017755D01*
X004497Y017605D01*
X004037Y017605D02*
X004037Y017455D01*
X003962Y017380D01*
X003812Y017380D01*
X003737Y017455D01*
X003737Y017755D01*
X003812Y017830D01*
X003962Y017830D01*
X004037Y017755D01*
X004037Y017605D02*
X003887Y017605D01*
X003962Y018380D02*
X004037Y018455D01*
X004037Y018605D01*
X003887Y018605D01*
X004037Y018755D02*
X003962Y018830D01*
X003812Y018830D01*
X003737Y018755D01*
X003737Y018455D01*
X003812Y018380D01*
X003962Y018380D01*
X004197Y018380D02*
X004197Y018830D01*
X004422Y018830D01*
X004497Y018755D01*
X004497Y018605D01*
X004422Y018530D01*
X004197Y018530D01*
X004657Y018455D02*
X004732Y018380D01*
X004883Y018380D01*
X004958Y018455D01*
X004958Y018530D01*
X004883Y018605D01*
X004808Y018605D01*
X004883Y018605D02*
X004958Y018680D01*
X004958Y018755D01*
X004883Y018830D01*
X004732Y018830D01*
X004657Y018755D01*
X004657Y019380D02*
X004958Y019680D01*
X004958Y019755D01*
X004883Y019830D01*
X004732Y019830D01*
X004657Y019755D01*
X004497Y019755D02*
X004497Y019605D01*
X004422Y019530D01*
X004197Y019530D01*
X004197Y019380D02*
X004197Y019830D01*
X004422Y019830D01*
X004497Y019755D01*
X004657Y019380D02*
X004958Y019380D01*
X004037Y019455D02*
X004037Y019605D01*
X003887Y019605D01*
X004037Y019455D02*
X003962Y019380D01*
X003812Y019380D01*
X003737Y019455D01*
X003737Y019755D01*
X003812Y019830D01*
X003962Y019830D01*
X004037Y019755D01*
X003962Y020380D02*
X003812Y020380D01*
X003737Y020455D01*
X003887Y020605D02*
X003962Y020605D01*
X004037Y020530D01*
X004037Y020455D01*
X003962Y020380D01*
X003962Y020605D02*
X004037Y020680D01*
X004037Y020755D01*
X003962Y020830D01*
X003812Y020830D01*
X003737Y020755D01*
X004197Y020830D02*
X004197Y020530D01*
X004347Y020380D01*
X004497Y020530D01*
X004497Y020830D01*
X004657Y020755D02*
X004732Y020830D01*
X004883Y020830D01*
X004958Y020755D01*
X004958Y020680D01*
X004883Y020605D01*
X004958Y020530D01*
X004958Y020455D01*
X004883Y020380D01*
X004732Y020380D01*
X004657Y020455D01*
X004808Y020605D02*
X004883Y020605D01*
X004958Y015830D02*
X004657Y015830D01*
X004958Y015830D02*
X004958Y015755D01*
X004657Y015455D01*
X004657Y015380D01*
X029345Y003755D02*
X029345Y003455D01*
X029420Y003380D01*
X029570Y003380D01*
X029645Y003455D01*
X029645Y003605D01*
X029495Y003605D01*
X029645Y003755D02*
X029570Y003830D01*
X029420Y003830D01*
X029345Y003755D01*
X029805Y003830D02*
X029805Y003380D01*
X029805Y003530D02*
X030030Y003530D01*
X030105Y003605D01*
X030105Y003755D01*
X030030Y003830D01*
X029805Y003830D01*
X030265Y003680D02*
X030415Y003830D01*
X030415Y003380D01*
X030265Y003380D02*
X030566Y003380D01*
X030726Y003455D02*
X030801Y003380D01*
X030951Y003380D01*
X031026Y003455D01*
X031026Y003530D01*
X030951Y003605D01*
X030726Y003605D01*
X030726Y003455D01*
X030726Y003605D02*
X030876Y003755D01*
X031026Y003830D01*
X030951Y002830D02*
X030801Y002830D01*
X030726Y002755D01*
X030726Y002455D01*
X031026Y002755D01*
X031026Y002455D01*
X030951Y002380D01*
X030801Y002380D01*
X030726Y002455D01*
X030566Y002380D02*
X030265Y002380D01*
X030566Y002680D01*
X030566Y002755D01*
X030491Y002830D01*
X030340Y002830D01*
X030265Y002755D01*
X030105Y002755D02*
X030105Y002605D01*
X030030Y002530D01*
X029805Y002530D01*
X029805Y002380D02*
X029805Y002830D01*
X030030Y002830D01*
X030105Y002755D01*
X029645Y002755D02*
X029570Y002830D01*
X029420Y002830D01*
X029345Y002755D01*
X029345Y002455D01*
X029420Y002380D01*
X029570Y002380D01*
X029645Y002455D01*
X029645Y002605D01*
X029495Y002605D01*
X029570Y001830D02*
X029420Y001830D01*
X029345Y001755D01*
X029345Y001455D01*
X029420Y001380D01*
X029570Y001380D01*
X029645Y001455D01*
X029645Y001605D01*
X029495Y001605D01*
X029645Y001755D02*
X029570Y001830D01*
X029805Y001830D02*
X030030Y001830D01*
X030105Y001755D01*
X030105Y001605D01*
X030030Y001530D01*
X029805Y001530D01*
X029805Y001380D02*
X029805Y001830D01*
X030265Y001755D02*
X030340Y001830D01*
X030491Y001830D01*
X030566Y001755D01*
X030566Y001680D01*
X030265Y001380D01*
X030566Y001380D01*
X030726Y001380D02*
X031026Y001380D01*
X030876Y001380D02*
X030876Y001830D01*
X030726Y001680D01*
X031026Y002755D02*
X030951Y002830D01*
X031026Y005380D02*
X030726Y005380D01*
X031026Y005680D01*
X031026Y005755D01*
X030951Y005830D01*
X030801Y005830D01*
X030726Y005755D01*
D11*
X030595Y021200D02*
X030789Y021490D01*
X030890Y021442D02*
X030938Y021490D01*
X031035Y021490D01*
X031083Y021442D01*
X031083Y021393D01*
X030890Y021200D01*
X031083Y021200D01*
X031126Y021710D02*
X030933Y021710D01*
X030933Y022000D01*
X030832Y022000D02*
X030638Y022000D01*
X030638Y021710D01*
X030832Y021710D01*
X030735Y021855D02*
X030638Y021855D01*
X030537Y021807D02*
X030537Y021758D01*
X030489Y021710D01*
X030344Y021710D01*
X030344Y022000D01*
X030489Y022000D01*
X030537Y021952D01*
X030537Y021903D01*
X030489Y021855D01*
X030344Y021855D01*
X030242Y021855D02*
X030049Y021855D01*
X030049Y021903D02*
X030146Y022000D01*
X030242Y021903D01*
X030242Y021710D01*
X030049Y021710D02*
X030049Y021903D01*
X029948Y021710D02*
X029754Y021710D01*
X029754Y022000D01*
X029358Y021952D02*
X029358Y021758D01*
X029310Y021710D01*
X029213Y021710D01*
X029165Y021758D01*
X029165Y021952D01*
X029213Y022000D01*
X029310Y022000D01*
X029358Y021952D01*
X029065Y022000D02*
X028969Y022000D01*
X029017Y022000D02*
X029017Y021710D01*
X028969Y021710D02*
X029065Y021710D01*
X028867Y021855D02*
X028819Y021807D01*
X028674Y021807D01*
X028674Y021710D02*
X028674Y022000D01*
X028819Y022000D01*
X028867Y021952D01*
X028867Y021855D01*
X028573Y021855D02*
X028573Y021758D01*
X028524Y021710D01*
X028428Y021710D01*
X028379Y021758D01*
X028379Y021952D01*
X028428Y022000D01*
X028524Y022000D01*
X028573Y021952D01*
X028573Y021855D02*
X028476Y021855D01*
X027985Y021710D02*
X027888Y021710D01*
X027937Y021710D02*
X027937Y022000D01*
X027985Y022000D02*
X027888Y022000D01*
X027787Y021952D02*
X027787Y021855D01*
X027739Y021807D01*
X027593Y021807D01*
X027593Y021710D02*
X027593Y022000D01*
X027739Y022000D01*
X027787Y021952D01*
X027198Y021952D02*
X027198Y022000D01*
X027198Y021952D02*
X027101Y021855D01*
X027101Y021710D01*
X027101Y021855D02*
X027004Y021952D01*
X027004Y022000D01*
X026903Y021952D02*
X026903Y021855D01*
X026855Y021807D01*
X026710Y021807D01*
X026806Y021807D02*
X026903Y021710D01*
X026710Y021710D02*
X026710Y022000D01*
X026855Y022000D01*
X026903Y021952D01*
X026608Y021952D02*
X026608Y021855D01*
X026560Y021807D01*
X026415Y021807D01*
X026512Y021807D02*
X026608Y021710D01*
X026415Y021710D02*
X026415Y022000D01*
X026560Y022000D01*
X026608Y021952D01*
X026314Y022000D02*
X026120Y022000D01*
X026120Y021710D01*
X026314Y021710D01*
X026217Y021855D02*
X026120Y021855D01*
X026019Y021855D02*
X025971Y021807D01*
X025826Y021807D01*
X025826Y021710D02*
X025826Y022000D01*
X025971Y022000D01*
X026019Y021952D01*
X026019Y021855D01*
X025724Y021807D02*
X025724Y021758D01*
X025676Y021710D01*
X025579Y021710D01*
X025531Y021758D01*
X025579Y021855D02*
X025676Y021855D01*
X025724Y021807D01*
X025724Y021952D02*
X025676Y022000D01*
X025579Y022000D01*
X025531Y021952D01*
X025531Y021903D01*
X025579Y021855D01*
X025430Y021855D02*
X025236Y021855D01*
X025236Y021903D02*
X025333Y022000D01*
X025430Y021903D01*
X025430Y021710D01*
X025236Y021710D02*
X025236Y021903D01*
X025135Y021855D02*
X025087Y021807D01*
X024942Y021807D01*
X025038Y021807D02*
X025135Y021710D01*
X025135Y021855D02*
X025135Y021952D01*
X025087Y022000D01*
X024942Y022000D01*
X024942Y021710D01*
X023851Y021710D02*
X023657Y021710D01*
X023657Y022000D01*
X023556Y022000D02*
X023363Y022000D01*
X023363Y021710D01*
X023556Y021710D01*
X023459Y021855D02*
X023363Y021855D01*
X023261Y021807D02*
X023261Y021758D01*
X023213Y021710D01*
X023068Y021710D01*
X023068Y022000D01*
X023213Y022000D01*
X023261Y021952D01*
X023261Y021903D01*
X023213Y021855D01*
X023068Y021855D01*
X022967Y021855D02*
X022773Y021855D01*
X022773Y021903D02*
X022870Y022000D01*
X022967Y021903D01*
X022967Y021710D01*
X022773Y021710D02*
X022773Y021903D01*
X022672Y021710D02*
X022479Y021710D01*
X022479Y022000D01*
X022083Y021952D02*
X022083Y021758D01*
X022034Y021710D01*
X021938Y021710D01*
X021889Y021758D01*
X021889Y021952D01*
X021938Y022000D01*
X022034Y022000D01*
X022083Y021952D01*
X021790Y022000D02*
X021693Y022000D01*
X021741Y022000D02*
X021741Y021710D01*
X021693Y021710D02*
X021790Y021710D01*
X021592Y021855D02*
X021543Y021807D01*
X021398Y021807D01*
X021398Y021710D02*
X021398Y022000D01*
X021543Y022000D01*
X021592Y021952D01*
X021592Y021855D01*
X021297Y021855D02*
X021200Y021855D01*
X021297Y021855D02*
X021297Y021758D01*
X021249Y021710D01*
X021152Y021710D01*
X021104Y021758D01*
X021104Y021952D01*
X021152Y022000D01*
X021249Y022000D01*
X021297Y021952D01*
X020709Y022000D02*
X020613Y022000D01*
X020661Y022000D02*
X020661Y021710D01*
X020613Y021710D02*
X020709Y021710D01*
X020511Y021855D02*
X020463Y021807D01*
X020318Y021807D01*
X020318Y021710D02*
X020318Y022000D01*
X020463Y022000D01*
X020511Y021952D01*
X020511Y021855D01*
X019922Y021952D02*
X019922Y022000D01*
X019922Y021952D02*
X019825Y021855D01*
X019825Y021710D01*
X019825Y021855D02*
X019729Y021952D01*
X019729Y022000D01*
X019627Y021952D02*
X019627Y021855D01*
X019579Y021807D01*
X019434Y021807D01*
X019531Y021807D02*
X019627Y021710D01*
X019434Y021710D02*
X019434Y022000D01*
X019579Y022000D01*
X019627Y021952D01*
X019333Y021952D02*
X019333Y021855D01*
X019284Y021807D01*
X019139Y021807D01*
X019139Y021710D02*
X019139Y022000D01*
X019284Y022000D01*
X019333Y021952D01*
X019236Y021807D02*
X019333Y021710D01*
X019038Y021710D02*
X018845Y021710D01*
X018845Y022000D01*
X019038Y022000D01*
X018941Y021855D02*
X018845Y021855D01*
X018743Y021855D02*
X018695Y021807D01*
X018550Y021807D01*
X018550Y021710D02*
X018550Y022000D01*
X018695Y022000D01*
X018743Y021952D01*
X018743Y021855D01*
X018449Y021807D02*
X018449Y021758D01*
X018400Y021710D01*
X018304Y021710D01*
X018255Y021758D01*
X018304Y021855D02*
X018400Y021855D01*
X018449Y021807D01*
X018449Y021952D02*
X018400Y022000D01*
X018304Y022000D01*
X018255Y021952D01*
X018255Y021903D01*
X018304Y021855D01*
X018154Y021855D02*
X017961Y021855D01*
X017961Y021903D02*
X018057Y022000D01*
X018154Y021903D01*
X018154Y021710D01*
X017961Y021710D02*
X017961Y021903D01*
X017860Y021855D02*
X017811Y021807D01*
X017666Y021807D01*
X017763Y021807D02*
X017860Y021710D01*
X017860Y021855D02*
X017860Y021952D01*
X017811Y022000D01*
X017666Y022000D01*
X017666Y021710D01*
X016575Y021710D02*
X016382Y021710D01*
X016382Y022000D01*
X016281Y022000D02*
X016087Y022000D01*
X016087Y021710D01*
X016281Y021710D01*
X016184Y021855D02*
X016087Y021855D01*
X015986Y021807D02*
X015938Y021855D01*
X015792Y021855D01*
X015691Y021855D02*
X015498Y021855D01*
X015498Y021903D02*
X015594Y022000D01*
X015691Y021903D01*
X015691Y021710D01*
X015792Y021710D02*
X015792Y022000D01*
X015938Y022000D01*
X015986Y021952D01*
X015986Y021903D01*
X015938Y021855D01*
X015986Y021807D02*
X015986Y021758D01*
X015938Y021710D01*
X015792Y021710D01*
X015846Y021442D02*
X015846Y021248D01*
X015749Y021345D02*
X015943Y021345D01*
X016044Y021200D02*
X016238Y021490D01*
X016339Y021442D02*
X016387Y021490D01*
X016484Y021490D01*
X016532Y021442D01*
X016532Y021393D01*
X016339Y021200D01*
X016532Y021200D01*
X015648Y021248D02*
X015600Y021200D01*
X015455Y021200D01*
X015455Y021490D01*
X015600Y021490D01*
X015648Y021442D01*
X015648Y021393D01*
X015600Y021345D01*
X015455Y021345D01*
X015600Y021345D02*
X015648Y021297D01*
X015648Y021248D01*
X015354Y021490D02*
X015160Y021200D01*
X015059Y021345D02*
X014865Y021345D01*
X014764Y021345D02*
X014571Y021345D01*
X014571Y021393D02*
X014571Y021200D01*
X014764Y021200D02*
X014764Y021393D01*
X014668Y021490D01*
X014571Y021393D01*
X014514Y021710D02*
X014417Y021710D01*
X014466Y021710D02*
X014466Y022000D01*
X014514Y022000D02*
X014417Y022000D01*
X014316Y021952D02*
X014316Y021855D01*
X014268Y021807D01*
X014123Y021807D01*
X014123Y021710D02*
X014123Y022000D01*
X014268Y022000D01*
X014316Y021952D01*
X014022Y021952D02*
X013973Y022000D01*
X013876Y022000D01*
X013828Y021952D01*
X013828Y021758D01*
X013876Y021710D01*
X013973Y021710D01*
X014022Y021758D01*
X014022Y021855D01*
X013925Y021855D01*
X013434Y021710D02*
X013337Y021710D01*
X013385Y021710D02*
X013385Y022000D01*
X013337Y022000D02*
X013434Y022000D01*
X013236Y021952D02*
X013236Y021855D01*
X013187Y021807D01*
X013042Y021807D01*
X013042Y021710D02*
X013042Y022000D01*
X013187Y022000D01*
X013236Y021952D01*
X012646Y021952D02*
X012646Y022000D01*
X012646Y021952D02*
X012550Y021855D01*
X012550Y021710D01*
X012550Y021855D02*
X012453Y021952D01*
X012453Y022000D01*
X012352Y021952D02*
X012352Y021855D01*
X012303Y021807D01*
X012158Y021807D01*
X012158Y021710D02*
X012158Y022000D01*
X012303Y022000D01*
X012352Y021952D01*
X012255Y021807D02*
X012352Y021710D01*
X012057Y021710D02*
X011960Y021807D01*
X012009Y021807D02*
X011864Y021807D01*
X011864Y021710D02*
X011864Y022000D01*
X012009Y022000D01*
X012057Y021952D01*
X012057Y021855D01*
X012009Y021807D01*
X011763Y021710D02*
X011569Y021710D01*
X011569Y022000D01*
X011763Y022000D01*
X011666Y021855D02*
X011569Y021855D01*
X011468Y021855D02*
X011420Y021807D01*
X011274Y021807D01*
X011274Y021710D02*
X011274Y022000D01*
X011420Y022000D01*
X011468Y021952D01*
X011468Y021855D01*
X011173Y021807D02*
X011173Y021758D01*
X011125Y021710D01*
X011028Y021710D01*
X010980Y021758D01*
X011028Y021855D02*
X010980Y021903D01*
X010980Y021952D01*
X011028Y022000D01*
X011125Y022000D01*
X011173Y021952D01*
X011125Y021855D02*
X011173Y021807D01*
X011125Y021855D02*
X011028Y021855D01*
X010879Y021855D02*
X010685Y021855D01*
X010685Y021903D02*
X010782Y022000D01*
X010879Y021903D01*
X010879Y021710D01*
X010685Y021710D02*
X010685Y021903D01*
X010584Y021855D02*
X010536Y021807D01*
X010390Y021807D01*
X010390Y021710D02*
X010390Y022000D01*
X010536Y022000D01*
X010584Y021952D01*
X010584Y021855D01*
X010487Y021807D02*
X010584Y021710D01*
X009300Y021710D02*
X009106Y021710D01*
X009106Y022000D01*
X009005Y022000D02*
X008811Y022000D01*
X008811Y021710D01*
X009005Y021710D01*
X008908Y021855D02*
X008811Y021855D01*
X008710Y021807D02*
X008662Y021855D01*
X008517Y021855D01*
X008416Y021855D02*
X008222Y021855D01*
X008222Y021903D02*
X008319Y022000D01*
X008416Y021903D01*
X008416Y021710D01*
X008517Y021710D02*
X008662Y021710D01*
X008710Y021758D01*
X008710Y021807D01*
X008662Y021855D02*
X008710Y021903D01*
X008710Y021952D01*
X008662Y022000D01*
X008517Y022000D01*
X008517Y021710D01*
X008571Y021442D02*
X008571Y021248D01*
X008667Y021345D02*
X008474Y021345D01*
X008373Y021297D02*
X008373Y021248D01*
X008324Y021200D01*
X008179Y021200D01*
X008179Y021490D01*
X008324Y021490D01*
X008373Y021442D01*
X008373Y021393D01*
X008324Y021345D01*
X008179Y021345D01*
X008324Y021345D02*
X008373Y021297D01*
X008078Y021490D02*
X007885Y021200D01*
X007783Y021345D02*
X007590Y021345D01*
X007489Y021345D02*
X007295Y021345D01*
X007295Y021393D02*
X007295Y021200D01*
X007295Y021393D02*
X007392Y021490D01*
X007489Y021393D01*
X007489Y021200D01*
X007687Y021248D02*
X007687Y021442D01*
X007483Y021710D02*
X007532Y021758D01*
X007532Y021952D01*
X007483Y022000D01*
X007387Y022000D01*
X007338Y021952D01*
X007338Y021758D01*
X007387Y021710D01*
X007483Y021710D01*
X007238Y021710D02*
X007142Y021710D01*
X007190Y021710D02*
X007190Y022000D01*
X007142Y022000D02*
X007238Y022000D01*
X007041Y021952D02*
X007041Y021855D01*
X006992Y021807D01*
X006847Y021807D01*
X006847Y021710D02*
X006847Y022000D01*
X006992Y022000D01*
X007041Y021952D01*
X006746Y021952D02*
X006698Y022000D01*
X006601Y022000D01*
X006552Y021952D01*
X006552Y021758D01*
X006601Y021710D01*
X006698Y021710D01*
X006746Y021758D01*
X006746Y021855D01*
X006649Y021855D01*
X006158Y021710D02*
X006061Y021710D01*
X006110Y021710D02*
X006110Y022000D01*
X006158Y022000D02*
X006061Y022000D01*
X005960Y021952D02*
X005960Y021855D01*
X005912Y021807D01*
X005767Y021807D01*
X005767Y021710D02*
X005767Y022000D01*
X005912Y022000D01*
X005960Y021952D01*
X005371Y021952D02*
X005371Y022000D01*
X005371Y021952D02*
X005274Y021855D01*
X005274Y021710D01*
X005274Y021855D02*
X005177Y021952D01*
X005177Y022000D01*
X005076Y021952D02*
X005076Y021855D01*
X005028Y021807D01*
X004883Y021807D01*
X004980Y021807D02*
X005076Y021710D01*
X004883Y021710D02*
X004883Y022000D01*
X005028Y022000D01*
X005076Y021952D01*
X004782Y021952D02*
X004782Y021855D01*
X004733Y021807D01*
X004588Y021807D01*
X004685Y021807D02*
X004782Y021710D01*
X004588Y021710D02*
X004588Y022000D01*
X004733Y022000D01*
X004782Y021952D01*
X004487Y022000D02*
X004293Y022000D01*
X004293Y021710D01*
X004487Y021710D01*
X004390Y021855D02*
X004293Y021855D01*
X004192Y021855D02*
X004144Y021807D01*
X003999Y021807D01*
X003999Y021710D02*
X003999Y022000D01*
X004144Y022000D01*
X004192Y021952D01*
X004192Y021855D01*
X003898Y021807D02*
X003898Y021758D01*
X003849Y021710D01*
X003753Y021710D01*
X003704Y021758D01*
X003753Y021855D02*
X003849Y021855D01*
X003898Y021807D01*
X003898Y021952D02*
X003849Y022000D01*
X003753Y022000D01*
X003704Y021952D01*
X003704Y021903D01*
X003753Y021855D01*
X003603Y021855D02*
X003409Y021855D01*
X003409Y021903D02*
X003506Y022000D01*
X003603Y021903D01*
X003603Y021710D01*
X003409Y021710D02*
X003409Y021903D01*
X003308Y021855D02*
X003260Y021807D01*
X003115Y021807D01*
X003212Y021807D02*
X003308Y021710D01*
X003308Y021855D02*
X003308Y021952D01*
X003260Y022000D01*
X003115Y022000D01*
X003115Y021710D01*
X007927Y021710D02*
X008121Y021710D01*
X008222Y021710D02*
X008222Y021903D01*
X007927Y022000D02*
X007927Y021710D01*
X008768Y021200D02*
X008962Y021490D01*
X009063Y021442D02*
X009112Y021490D01*
X009208Y021490D01*
X009257Y021442D01*
X009257Y021393D01*
X009063Y021200D01*
X009257Y021200D01*
X014614Y021758D02*
X014662Y021710D01*
X014759Y021710D01*
X014807Y021758D01*
X014807Y021952D01*
X014759Y022000D01*
X014662Y022000D01*
X014614Y021952D01*
X014614Y021758D01*
X014962Y021442D02*
X014962Y021248D01*
X015203Y021710D02*
X015397Y021710D01*
X015498Y021710D02*
X015498Y021903D01*
X015203Y022000D02*
X015203Y021710D01*
X021846Y021393D02*
X021846Y021200D01*
X021846Y021345D02*
X022040Y021345D01*
X022040Y021393D02*
X022040Y021200D01*
X022141Y021345D02*
X022335Y021345D01*
X022238Y021442D02*
X022238Y021248D01*
X022436Y021200D02*
X022629Y021490D01*
X022730Y021490D02*
X022730Y021200D01*
X022875Y021200D01*
X022924Y021248D01*
X022924Y021297D01*
X022875Y021345D01*
X022730Y021345D01*
X022730Y021490D02*
X022875Y021490D01*
X022924Y021442D01*
X022924Y021393D01*
X022875Y021345D01*
X023025Y021345D02*
X023219Y021345D01*
X023122Y021442D02*
X023122Y021248D01*
X023320Y021200D02*
X023513Y021490D01*
X023614Y021442D02*
X023663Y021490D01*
X023759Y021490D01*
X023808Y021442D01*
X023808Y021393D01*
X023614Y021200D01*
X023808Y021200D01*
X023261Y021807D02*
X023213Y021855D01*
X022040Y021393D02*
X021943Y021490D01*
X021846Y021393D01*
X029122Y021393D02*
X029122Y021200D01*
X029122Y021345D02*
X029316Y021345D01*
X029316Y021393D02*
X029316Y021200D01*
X029417Y021345D02*
X029610Y021345D01*
X029513Y021442D02*
X029513Y021248D01*
X029711Y021200D02*
X029905Y021490D01*
X030006Y021490D02*
X030151Y021490D01*
X030199Y021442D01*
X030199Y021393D01*
X030151Y021345D01*
X030006Y021345D01*
X030006Y021200D02*
X030151Y021200D01*
X030199Y021248D01*
X030199Y021297D01*
X030151Y021345D01*
X030301Y021345D02*
X030494Y021345D01*
X030397Y021442D02*
X030397Y021248D01*
X030006Y021200D02*
X030006Y021490D01*
X030489Y021855D02*
X030537Y021807D01*
X029316Y021393D02*
X029219Y021490D01*
X029122Y021393D01*
D12*
X029126Y000685D02*
X029066Y000625D01*
X029066Y000385D01*
X029126Y000325D01*
X029246Y000325D01*
X029307Y000385D01*
X029307Y000625D01*
X029246Y000685D01*
X029126Y000685D01*
X028938Y000625D02*
X028878Y000685D01*
X028698Y000685D01*
X028698Y000325D01*
X028698Y000445D02*
X028878Y000445D01*
X028938Y000505D01*
X028938Y000625D01*
X029435Y000685D02*
X029435Y000325D01*
X029435Y000445D02*
X029615Y000445D01*
X029675Y000505D01*
X029675Y000625D01*
X029615Y000685D01*
X029435Y000685D01*
X029803Y000685D02*
X030043Y000685D01*
X029923Y000685D02*
X029923Y000325D01*
X029675Y000325D02*
X029555Y000445D01*
X030171Y000385D02*
X030231Y000325D01*
X030351Y000325D01*
X030411Y000385D01*
X030411Y000445D01*
X030351Y000505D01*
X030231Y000505D01*
X030171Y000565D01*
X030171Y000625D01*
X030231Y000685D01*
X030351Y000685D01*
X030411Y000625D01*
X028202Y000625D02*
X028202Y000565D01*
X028142Y000505D01*
X027961Y000505D01*
X027833Y000445D02*
X027833Y000385D01*
X027773Y000325D01*
X027653Y000325D01*
X027593Y000385D01*
X027465Y000385D02*
X027465Y000685D01*
X027593Y000625D02*
X027653Y000685D01*
X027773Y000685D01*
X027833Y000625D01*
X027773Y000505D02*
X027833Y000445D01*
X027773Y000505D02*
X027653Y000505D01*
X027593Y000565D01*
X027593Y000625D01*
X027465Y000385D02*
X027405Y000325D01*
X027285Y000325D01*
X027225Y000385D01*
X027225Y000685D01*
X026728Y000625D02*
X026668Y000685D01*
X026548Y000685D01*
X026488Y000625D01*
X026488Y000565D01*
X026548Y000505D01*
X026668Y000505D01*
X026728Y000445D01*
X026728Y000385D01*
X026668Y000325D01*
X026548Y000325D01*
X026488Y000385D01*
X026304Y000565D02*
X026364Y000625D01*
X026364Y000745D01*
X026179Y000685D02*
X026058Y000685D01*
X026118Y000685D02*
X026118Y000325D01*
X026058Y000325D02*
X026179Y000325D01*
X025930Y000505D02*
X025870Y000445D01*
X025690Y000445D01*
X025690Y000325D02*
X025690Y000685D01*
X025870Y000685D01*
X025930Y000625D01*
X025930Y000505D01*
X027961Y000325D02*
X028142Y000325D01*
X028202Y000385D01*
X028202Y000445D01*
X028142Y000505D01*
X028202Y000625D02*
X028142Y000685D01*
X027961Y000685D01*
X027961Y000325D01*
X023136Y000385D02*
X023076Y000325D01*
X022956Y000325D01*
X022896Y000385D01*
X022956Y000505D02*
X023076Y000505D01*
X023136Y000445D01*
X023136Y000385D01*
X022956Y000505D02*
X022896Y000565D01*
X022896Y000625D01*
X022956Y000685D01*
X023076Y000685D01*
X023136Y000625D01*
X022768Y000685D02*
X022527Y000685D01*
X022647Y000685D02*
X022647Y000325D01*
X022399Y000325D02*
X022279Y000445D01*
X022339Y000445D02*
X022159Y000445D01*
X022159Y000325D02*
X022159Y000685D01*
X022339Y000685D01*
X022399Y000625D01*
X022399Y000505D01*
X022339Y000445D01*
X022031Y000385D02*
X022031Y000625D01*
X021971Y000685D01*
X021851Y000685D01*
X021791Y000625D01*
X021791Y000385D01*
X021851Y000325D01*
X021971Y000325D01*
X022031Y000385D01*
X021663Y000505D02*
X021603Y000445D01*
X021422Y000445D01*
X021422Y000325D02*
X021422Y000685D01*
X021603Y000685D01*
X021663Y000625D01*
X021663Y000505D01*
X020926Y000445D02*
X020926Y000385D01*
X020866Y000325D01*
X020686Y000325D01*
X020686Y000685D01*
X020866Y000685D01*
X020926Y000625D01*
X020926Y000565D01*
X020866Y000505D01*
X020686Y000505D01*
X020558Y000445D02*
X020558Y000385D01*
X020498Y000325D01*
X020378Y000325D01*
X020317Y000385D01*
X020189Y000385D02*
X020189Y000685D01*
X020317Y000625D02*
X020317Y000565D01*
X020378Y000505D01*
X020498Y000505D01*
X020558Y000445D01*
X020558Y000625D02*
X020498Y000685D01*
X020378Y000685D01*
X020317Y000625D01*
X020189Y000385D02*
X020129Y000325D01*
X020009Y000325D01*
X019949Y000385D01*
X019949Y000685D01*
X019453Y000625D02*
X019393Y000685D01*
X019273Y000685D01*
X019213Y000625D01*
X019213Y000565D01*
X019273Y000505D01*
X019393Y000505D01*
X019453Y000445D01*
X019453Y000385D01*
X019393Y000325D01*
X019273Y000325D01*
X019213Y000385D01*
X019028Y000565D02*
X019088Y000625D01*
X019088Y000745D01*
X018903Y000685D02*
X018783Y000685D01*
X018843Y000685D02*
X018843Y000325D01*
X018783Y000325D02*
X018903Y000325D01*
X018655Y000505D02*
X018595Y000445D01*
X018414Y000445D01*
X018414Y000325D02*
X018414Y000685D01*
X018595Y000685D01*
X018655Y000625D01*
X018655Y000505D01*
X020866Y000505D02*
X020926Y000445D01*
X015860Y000445D02*
X015860Y000385D01*
X015800Y000325D01*
X015680Y000325D01*
X015620Y000385D01*
X015680Y000505D02*
X015800Y000505D01*
X015860Y000445D01*
X015860Y000625D02*
X015800Y000685D01*
X015680Y000685D01*
X015620Y000625D01*
X015620Y000565D01*
X015680Y000505D01*
X015492Y000685D02*
X015252Y000685D01*
X015372Y000685D02*
X015372Y000325D01*
X015124Y000325D02*
X015004Y000445D01*
X015064Y000445D02*
X014883Y000445D01*
X014883Y000325D02*
X014883Y000685D01*
X015064Y000685D01*
X015124Y000625D01*
X015124Y000505D01*
X015064Y000445D01*
X014755Y000385D02*
X014755Y000625D01*
X014695Y000685D01*
X014575Y000685D01*
X014515Y000625D01*
X014515Y000385D01*
X014575Y000325D01*
X014695Y000325D01*
X014755Y000385D01*
X014387Y000505D02*
X014327Y000445D01*
X014147Y000445D01*
X014147Y000325D02*
X014147Y000685D01*
X014327Y000685D01*
X014387Y000625D01*
X014387Y000505D01*
X013650Y000445D02*
X013650Y000385D01*
X013590Y000325D01*
X013410Y000325D01*
X013410Y000685D01*
X013590Y000685D01*
X013650Y000625D01*
X013650Y000565D01*
X013590Y000505D01*
X013410Y000505D01*
X013282Y000445D02*
X013282Y000385D01*
X013222Y000325D01*
X013102Y000325D01*
X013042Y000385D01*
X012914Y000385D02*
X012914Y000685D01*
X013042Y000625D02*
X013042Y000565D01*
X013102Y000505D01*
X013222Y000505D01*
X013282Y000445D01*
X013282Y000625D02*
X013222Y000685D01*
X013102Y000685D01*
X013042Y000625D01*
X012914Y000385D02*
X012854Y000325D01*
X012734Y000325D01*
X012674Y000385D01*
X012674Y000685D01*
X012177Y000625D02*
X012117Y000685D01*
X011997Y000685D01*
X011937Y000625D01*
X011937Y000565D01*
X011997Y000505D01*
X012117Y000505D01*
X012177Y000445D01*
X012177Y000385D01*
X012117Y000325D01*
X011997Y000325D01*
X011937Y000385D01*
X011753Y000565D02*
X011813Y000625D01*
X011813Y000745D01*
X011627Y000685D02*
X011507Y000685D01*
X011567Y000685D02*
X011567Y000325D01*
X011507Y000325D02*
X011627Y000325D01*
X011379Y000505D02*
X011319Y000445D01*
X011139Y000445D01*
X011139Y000325D02*
X011139Y000685D01*
X011319Y000685D01*
X011379Y000625D01*
X011379Y000505D01*
X013590Y000505D02*
X013650Y000445D01*
X008585Y000445D02*
X008585Y000385D01*
X008525Y000325D01*
X008405Y000325D01*
X008344Y000385D01*
X008405Y000505D02*
X008525Y000505D01*
X008585Y000445D01*
X008585Y000625D02*
X008525Y000685D01*
X008405Y000685D01*
X008344Y000625D01*
X008344Y000565D01*
X008405Y000505D01*
X008216Y000685D02*
X007976Y000685D01*
X008096Y000685D02*
X008096Y000325D01*
X007848Y000325D02*
X007728Y000445D01*
X007788Y000445D02*
X007608Y000445D01*
X007608Y000325D02*
X007608Y000685D01*
X007788Y000685D01*
X007848Y000625D01*
X007848Y000505D01*
X007788Y000445D01*
X007480Y000385D02*
X007480Y000625D01*
X007420Y000685D01*
X007300Y000685D01*
X007240Y000625D01*
X007240Y000385D01*
X007300Y000325D01*
X007420Y000325D01*
X007480Y000385D01*
X007111Y000505D02*
X007051Y000445D01*
X006871Y000445D01*
X006871Y000325D02*
X006871Y000685D01*
X007051Y000685D01*
X007111Y000625D01*
X007111Y000505D01*
X006375Y000445D02*
X006375Y000385D01*
X006315Y000325D01*
X006135Y000325D01*
X006135Y000685D01*
X006315Y000685D01*
X006375Y000625D01*
X006375Y000565D01*
X006315Y000505D01*
X006135Y000505D01*
X006006Y000445D02*
X005946Y000505D01*
X005826Y000505D01*
X005766Y000565D01*
X005766Y000625D01*
X005826Y000685D01*
X005946Y000685D01*
X006006Y000625D01*
X006006Y000445D02*
X006006Y000385D01*
X005946Y000325D01*
X005826Y000325D01*
X005766Y000385D01*
X005638Y000385D02*
X005638Y000685D01*
X005398Y000685D02*
X005398Y000385D01*
X005458Y000325D01*
X005578Y000325D01*
X005638Y000385D01*
X006315Y000505D02*
X006375Y000445D01*
X004902Y000445D02*
X004902Y000385D01*
X004841Y000325D01*
X004721Y000325D01*
X004661Y000385D01*
X004721Y000505D02*
X004841Y000505D01*
X004902Y000445D01*
X004902Y000625D02*
X004841Y000685D01*
X004721Y000685D01*
X004661Y000625D01*
X004661Y000565D01*
X004721Y000505D01*
X004537Y000625D02*
X004477Y000565D01*
X004537Y000625D02*
X004537Y000745D01*
X004352Y000685D02*
X004232Y000685D01*
X004292Y000685D02*
X004292Y000325D01*
X004232Y000325D02*
X004352Y000325D01*
X004104Y000505D02*
X004043Y000445D01*
X003863Y000445D01*
X003863Y000325D02*
X003863Y000685D01*
X004043Y000685D01*
X004104Y000625D01*
X004104Y000505D01*
D13*
X003243Y000605D02*
X003043Y000605D01*
X003343Y000205D01*
X003643Y000605D01*
X003443Y000605D01*
X003443Y001005D01*
X003243Y001005D01*
X003243Y000605D01*
X003243Y000696D02*
X003443Y000696D01*
X003443Y000795D02*
X003243Y000795D01*
X003243Y000893D02*
X003443Y000893D01*
X003443Y000992D02*
X003243Y000992D01*
X003048Y000598D02*
X003637Y000598D01*
X003563Y000499D02*
X003122Y000499D01*
X003196Y000401D02*
X003489Y000401D01*
X003416Y000302D02*
X003270Y000302D01*
X008743Y000605D02*
X008943Y000605D01*
X008943Y001005D01*
X009143Y001005D01*
X009143Y000605D01*
X009343Y000605D01*
X009043Y000205D01*
X008743Y000605D01*
X008748Y000598D02*
X009337Y000598D01*
X009263Y000499D02*
X008822Y000499D01*
X008896Y000401D02*
X009189Y000401D01*
X009116Y000302D02*
X008970Y000302D01*
X008943Y000696D02*
X009143Y000696D01*
X009143Y000795D02*
X008943Y000795D01*
X008943Y000893D02*
X009143Y000893D01*
X009143Y000992D02*
X008943Y000992D01*
X010318Y000605D02*
X010618Y000205D01*
X010918Y000605D01*
X010718Y000605D01*
X010718Y001005D01*
X010518Y001005D01*
X010518Y000605D01*
X010318Y000605D01*
X010324Y000598D02*
X010913Y000598D01*
X010839Y000499D02*
X010398Y000499D01*
X010472Y000401D02*
X010765Y000401D01*
X010691Y000302D02*
X010546Y000302D01*
X010518Y000696D02*
X010718Y000696D01*
X010718Y000795D02*
X010518Y000795D01*
X010518Y000893D02*
X010718Y000893D01*
X010718Y000992D02*
X010518Y000992D01*
X016018Y000605D02*
X016218Y000605D01*
X016218Y001005D01*
X016418Y001005D01*
X016418Y000605D01*
X016618Y000605D01*
X016318Y000205D01*
X016018Y000605D01*
X016024Y000598D02*
X016613Y000598D01*
X016539Y000499D02*
X016098Y000499D01*
X016172Y000401D02*
X016465Y000401D01*
X016391Y000302D02*
X016246Y000302D01*
X016218Y000696D02*
X016418Y000696D01*
X016418Y000795D02*
X016218Y000795D01*
X016218Y000893D02*
X016418Y000893D01*
X016418Y000992D02*
X016218Y000992D01*
X017594Y000605D02*
X017794Y000605D01*
X017794Y001005D01*
X017994Y001005D01*
X017994Y000605D01*
X018194Y000605D01*
X017894Y000205D01*
X017594Y000605D01*
X017600Y000598D02*
X018188Y000598D01*
X018114Y000499D02*
X017673Y000499D01*
X017747Y000401D02*
X018041Y000401D01*
X017967Y000302D02*
X017821Y000302D01*
X017794Y000696D02*
X017994Y000696D01*
X017994Y000795D02*
X017794Y000795D01*
X017794Y000893D02*
X017994Y000893D01*
X017994Y000992D02*
X017794Y000992D01*
X023294Y000605D02*
X023494Y000605D01*
X023494Y001005D01*
X023694Y001005D01*
X023694Y000605D01*
X023894Y000605D01*
X023594Y000205D01*
X023294Y000605D01*
X023300Y000598D02*
X023888Y000598D01*
X023814Y000499D02*
X023373Y000499D01*
X023447Y000401D02*
X023741Y000401D01*
X023667Y000302D02*
X023521Y000302D01*
X023494Y000696D02*
X023694Y000696D01*
X023694Y000795D02*
X023494Y000795D01*
X023494Y000893D02*
X023694Y000893D01*
X023694Y000992D02*
X023494Y000992D01*
X024870Y000605D02*
X025070Y000605D01*
X025070Y001005D01*
X025270Y001005D01*
X025270Y000605D01*
X025470Y000605D01*
X025170Y000205D01*
X024870Y000605D01*
X024875Y000598D02*
X025464Y000598D01*
X025390Y000499D02*
X024949Y000499D01*
X025023Y000401D02*
X025316Y000401D01*
X025242Y000302D02*
X025097Y000302D01*
X025070Y000696D02*
X025270Y000696D01*
X025270Y000795D02*
X025070Y000795D01*
X025070Y000893D02*
X025270Y000893D01*
X025270Y000992D02*
X025070Y000992D01*
X030570Y000605D02*
X030870Y000205D01*
X031170Y000605D01*
X030970Y000605D01*
X030970Y001005D01*
X030770Y001005D01*
X030770Y000605D01*
X030570Y000605D01*
X030575Y000598D02*
X031164Y000598D01*
X031090Y000499D02*
X030649Y000499D01*
X030723Y000401D02*
X031016Y000401D01*
X030942Y000302D02*
X030797Y000302D01*
X030770Y000696D02*
X030970Y000696D01*
X030970Y000795D02*
X030770Y000795D01*
X030770Y000893D02*
X030970Y000893D01*
X030970Y000992D02*
X030770Y000992D01*
D14*
X029070Y001105D02*
X027070Y001105D01*
X027070Y021105D01*
X029070Y021105D01*
X029070Y001105D01*
X021794Y001105D02*
X019794Y001105D01*
X019794Y021105D01*
X021794Y021105D01*
X021794Y001105D01*
X014518Y001105D02*
X012518Y001105D01*
X012518Y021105D01*
X014518Y021105D01*
X014518Y001105D01*
X007243Y001105D02*
X005243Y001105D01*
X005243Y021105D01*
X007243Y021105D01*
X007243Y001105D01*
D15*
X008693Y019755D02*
X008693Y020683D01*
X009469Y020683D01*
X009469Y019753D01*
X009195Y019753D01*
X009195Y020027D01*
X009245Y020051D01*
X009245Y020335D01*
X009197Y020375D01*
X009167Y020375D01*
X009167Y020493D01*
X009145Y020515D01*
X009019Y020515D01*
X008991Y020489D01*
X008991Y020397D01*
X008969Y020397D01*
X008969Y020375D01*
X008991Y020375D01*
X009165Y020375D01*
X009165Y020391D01*
X008965Y020391D01*
X008965Y020373D01*
X008917Y020333D01*
X008917Y020051D01*
X008967Y020025D01*
X008967Y019755D01*
X008693Y019755D01*
X008693Y019758D02*
X008967Y019758D01*
X008967Y019766D02*
X008693Y019766D01*
X008693Y019775D02*
X008967Y019775D01*
X008967Y019783D02*
X008693Y019783D01*
X008693Y019792D02*
X008967Y019792D01*
X008967Y019800D02*
X008693Y019800D01*
X008693Y019809D02*
X008967Y019809D01*
X008967Y019817D02*
X008693Y019817D01*
X008693Y019826D02*
X008967Y019826D01*
X008967Y019834D02*
X008693Y019834D01*
X008693Y019843D02*
X008967Y019843D01*
X008967Y019851D02*
X008693Y019851D01*
X008693Y019860D02*
X008967Y019860D01*
X008967Y019868D02*
X008693Y019868D01*
X008693Y019877D02*
X008967Y019877D01*
X008967Y019885D02*
X008693Y019885D01*
X008693Y019894D02*
X008967Y019894D01*
X008967Y019902D02*
X008693Y019902D01*
X008693Y019911D02*
X008967Y019911D01*
X008967Y019919D02*
X008693Y019919D01*
X008693Y019928D02*
X008967Y019928D01*
X008967Y019936D02*
X008693Y019936D01*
X008693Y019945D02*
X008967Y019945D01*
X008967Y019953D02*
X008693Y019953D01*
X008693Y019962D02*
X008967Y019962D01*
X008967Y019970D02*
X008693Y019970D01*
X008693Y019979D02*
X008967Y019979D01*
X008967Y019987D02*
X008693Y019987D01*
X008693Y019996D02*
X008967Y019996D01*
X008967Y020004D02*
X008693Y020004D01*
X008693Y020013D02*
X008967Y020013D01*
X008967Y020021D02*
X008693Y020021D01*
X008693Y020030D02*
X008958Y020030D01*
X008942Y020038D02*
X008693Y020038D01*
X008693Y020047D02*
X008925Y020047D01*
X008917Y020055D02*
X008693Y020055D01*
X008693Y020064D02*
X008917Y020064D01*
X008917Y020072D02*
X008693Y020072D01*
X008693Y020081D02*
X008917Y020081D01*
X008917Y020089D02*
X008693Y020089D01*
X008693Y020098D02*
X008917Y020098D01*
X008917Y020106D02*
X008693Y020106D01*
X008693Y020115D02*
X008917Y020115D01*
X008917Y020123D02*
X008693Y020123D01*
X008693Y020132D02*
X008917Y020132D01*
X008917Y020140D02*
X008693Y020140D01*
X008693Y020149D02*
X008917Y020149D01*
X008917Y020157D02*
X008693Y020157D01*
X008693Y020166D02*
X008917Y020166D01*
X008917Y020174D02*
X008693Y020174D01*
X008693Y020183D02*
X008917Y020183D01*
X008917Y020191D02*
X008693Y020191D01*
X008693Y020200D02*
X008917Y020200D01*
X008917Y020208D02*
X008693Y020208D01*
X008693Y020217D02*
X008917Y020217D01*
X008917Y020225D02*
X008693Y020225D01*
X008693Y020234D02*
X008917Y020234D01*
X008917Y020242D02*
X008693Y020242D01*
X008693Y020251D02*
X008917Y020251D01*
X008917Y020259D02*
X008693Y020259D01*
X008693Y020268D02*
X008917Y020268D01*
X008917Y020276D02*
X008693Y020276D01*
X008693Y020285D02*
X008917Y020285D01*
X008917Y020293D02*
X008693Y020293D01*
X008693Y020302D02*
X008917Y020302D01*
X008917Y020310D02*
X008693Y020310D01*
X008693Y020319D02*
X008917Y020319D01*
X008917Y020327D02*
X008693Y020327D01*
X008693Y020336D02*
X008920Y020336D01*
X008930Y020344D02*
X008693Y020344D01*
X008693Y020353D02*
X008940Y020353D01*
X008950Y020361D02*
X008693Y020361D01*
X008693Y020370D02*
X008961Y020370D01*
X008965Y020378D02*
X008693Y020378D01*
X008693Y020387D02*
X008965Y020387D01*
X008969Y020387D02*
X009165Y020387D01*
X009167Y020387D02*
X009469Y020387D01*
X009469Y020395D02*
X009167Y020395D01*
X009167Y020404D02*
X009469Y020404D01*
X009469Y020412D02*
X009167Y020412D01*
X009167Y020421D02*
X009469Y020421D01*
X009469Y020429D02*
X009167Y020429D01*
X009167Y020438D02*
X009469Y020438D01*
X009469Y020446D02*
X009167Y020446D01*
X009167Y020455D02*
X009469Y020455D01*
X009469Y020463D02*
X009167Y020463D01*
X009167Y020472D02*
X009469Y020472D01*
X009469Y020480D02*
X009167Y020480D01*
X009167Y020489D02*
X009469Y020489D01*
X009469Y020497D02*
X009163Y020497D01*
X009154Y020506D02*
X009469Y020506D01*
X009469Y020514D02*
X009146Y020514D01*
X009018Y020514D02*
X008693Y020514D01*
X008693Y020506D02*
X009009Y020506D01*
X009000Y020497D02*
X008693Y020497D01*
X008693Y020489D02*
X008991Y020489D01*
X008991Y020480D02*
X008693Y020480D01*
X008693Y020472D02*
X008991Y020472D01*
X008991Y020463D02*
X008693Y020463D01*
X008693Y020455D02*
X008991Y020455D01*
X008991Y020446D02*
X008693Y020446D01*
X008693Y020438D02*
X008991Y020438D01*
X008991Y020429D02*
X008693Y020429D01*
X008693Y020421D02*
X008991Y020421D01*
X008991Y020412D02*
X008693Y020412D01*
X008693Y020404D02*
X008991Y020404D01*
X008969Y020395D02*
X008693Y020395D01*
X008693Y020523D02*
X009469Y020523D01*
X009469Y020531D02*
X008693Y020531D01*
X008693Y020540D02*
X009469Y020540D01*
X009469Y020548D02*
X008693Y020548D01*
X008693Y020557D02*
X009469Y020557D01*
X009469Y020565D02*
X008693Y020565D01*
X008693Y020574D02*
X009469Y020574D01*
X009469Y020582D02*
X008693Y020582D01*
X008693Y020591D02*
X009469Y020591D01*
X009469Y020599D02*
X008693Y020599D01*
X008693Y020608D02*
X009469Y020608D01*
X009469Y020616D02*
X008693Y020616D01*
X008693Y020625D02*
X009469Y020625D01*
X009469Y020633D02*
X008693Y020633D01*
X008693Y020642D02*
X009469Y020642D01*
X009469Y020650D02*
X008693Y020650D01*
X008693Y020659D02*
X009469Y020659D01*
X009469Y020667D02*
X008693Y020667D01*
X008693Y020676D02*
X009469Y020676D01*
X009469Y020378D02*
X009167Y020378D01*
X009165Y020378D02*
X008969Y020378D01*
X009203Y020370D02*
X009469Y020370D01*
X009469Y020361D02*
X009213Y020361D01*
X009224Y020353D02*
X009469Y020353D01*
X009469Y020344D02*
X009234Y020344D01*
X009244Y020336D02*
X009469Y020336D01*
X009469Y020327D02*
X009245Y020327D01*
X009245Y020319D02*
X009469Y020319D01*
X009469Y020310D02*
X009245Y020310D01*
X009245Y020302D02*
X009469Y020302D01*
X009469Y020293D02*
X009245Y020293D01*
X009245Y020285D02*
X009469Y020285D01*
X009469Y020276D02*
X009245Y020276D01*
X009245Y020268D02*
X009469Y020268D01*
X009469Y020259D02*
X009245Y020259D01*
X009245Y020251D02*
X009469Y020251D01*
X009469Y020242D02*
X009245Y020242D01*
X009245Y020234D02*
X009469Y020234D01*
X009469Y020225D02*
X009245Y020225D01*
X009245Y020217D02*
X009469Y020217D01*
X009469Y020208D02*
X009245Y020208D01*
X009245Y020200D02*
X009469Y020200D01*
X009469Y020191D02*
X009245Y020191D01*
X009245Y020183D02*
X009469Y020183D01*
X009469Y020174D02*
X009245Y020174D01*
X009245Y020166D02*
X009469Y020166D01*
X009469Y020157D02*
X009245Y020157D01*
X009245Y020149D02*
X009469Y020149D01*
X009469Y020140D02*
X009245Y020140D01*
X009245Y020132D02*
X009469Y020132D01*
X009469Y020123D02*
X009245Y020123D01*
X009245Y020115D02*
X009469Y020115D01*
X009469Y020106D02*
X009245Y020106D01*
X009245Y020098D02*
X009469Y020098D01*
X009469Y020089D02*
X009245Y020089D01*
X009245Y020081D02*
X009469Y020081D01*
X009469Y020072D02*
X009245Y020072D01*
X009245Y020064D02*
X009469Y020064D01*
X009469Y020055D02*
X009245Y020055D01*
X009236Y020047D02*
X009469Y020047D01*
X009469Y020038D02*
X009218Y020038D01*
X009200Y020030D02*
X009469Y020030D01*
X009469Y020021D02*
X009195Y020021D01*
X009195Y020013D02*
X009469Y020013D01*
X009469Y020004D02*
X009195Y020004D01*
X009195Y019996D02*
X009469Y019996D01*
X009469Y019987D02*
X009195Y019987D01*
X009195Y019979D02*
X009469Y019979D01*
X009469Y019970D02*
X009195Y019970D01*
X009195Y019962D02*
X009469Y019962D01*
X009469Y019953D02*
X009195Y019953D01*
X009195Y019945D02*
X009469Y019945D01*
X009469Y019936D02*
X009195Y019936D01*
X009195Y019928D02*
X009469Y019928D01*
X009469Y019919D02*
X009195Y019919D01*
X009195Y019911D02*
X009469Y019911D01*
X009469Y019902D02*
X009195Y019902D01*
X009195Y019894D02*
X009469Y019894D01*
X009469Y019885D02*
X009195Y019885D01*
X009195Y019877D02*
X009469Y019877D01*
X009469Y019868D02*
X009195Y019868D01*
X009195Y019860D02*
X009469Y019860D01*
X009469Y019851D02*
X009195Y019851D01*
X009195Y019843D02*
X009469Y019843D01*
X009469Y019834D02*
X009195Y019834D01*
X009195Y019826D02*
X009469Y019826D01*
X009469Y019817D02*
X009195Y019817D01*
X009195Y019809D02*
X009469Y019809D01*
X009469Y019800D02*
X009195Y019800D01*
X009195Y019792D02*
X009469Y019792D01*
X009469Y019783D02*
X009195Y019783D01*
X009195Y019775D02*
X009469Y019775D01*
X009469Y019766D02*
X009195Y019766D01*
X009195Y019758D02*
X009469Y019758D01*
X015968Y019758D02*
X016242Y019758D01*
X016242Y019755D02*
X015968Y019755D01*
X015968Y020683D01*
X016744Y020683D01*
X016744Y019753D01*
X016470Y019753D01*
X016470Y020027D01*
X016520Y020051D01*
X016520Y020335D01*
X016472Y020375D01*
X016442Y020375D01*
X016442Y020493D01*
X016420Y020515D01*
X016294Y020515D01*
X016266Y020489D01*
X016266Y020397D01*
X016244Y020397D01*
X016244Y020375D01*
X016266Y020375D01*
X016440Y020375D01*
X016440Y020391D01*
X016240Y020391D01*
X016240Y020373D01*
X016192Y020333D01*
X016192Y020051D01*
X016242Y020025D01*
X016242Y019755D01*
X016242Y019766D02*
X015968Y019766D01*
X015968Y019775D02*
X016242Y019775D01*
X016242Y019783D02*
X015968Y019783D01*
X015968Y019792D02*
X016242Y019792D01*
X016242Y019800D02*
X015968Y019800D01*
X015968Y019809D02*
X016242Y019809D01*
X016242Y019817D02*
X015968Y019817D01*
X015968Y019826D02*
X016242Y019826D01*
X016242Y019834D02*
X015968Y019834D01*
X015968Y019843D02*
X016242Y019843D01*
X016242Y019851D02*
X015968Y019851D01*
X015968Y019860D02*
X016242Y019860D01*
X016242Y019868D02*
X015968Y019868D01*
X015968Y019877D02*
X016242Y019877D01*
X016242Y019885D02*
X015968Y019885D01*
X015968Y019894D02*
X016242Y019894D01*
X016242Y019902D02*
X015968Y019902D01*
X015968Y019911D02*
X016242Y019911D01*
X016242Y019919D02*
X015968Y019919D01*
X015968Y019928D02*
X016242Y019928D01*
X016242Y019936D02*
X015968Y019936D01*
X015968Y019945D02*
X016242Y019945D01*
X016242Y019953D02*
X015968Y019953D01*
X015968Y019962D02*
X016242Y019962D01*
X016242Y019970D02*
X015968Y019970D01*
X015968Y019979D02*
X016242Y019979D01*
X016242Y019987D02*
X015968Y019987D01*
X015968Y019996D02*
X016242Y019996D01*
X016242Y020004D02*
X015968Y020004D01*
X015968Y020013D02*
X016242Y020013D01*
X016242Y020021D02*
X015968Y020021D01*
X015968Y020030D02*
X016234Y020030D01*
X016217Y020038D02*
X015968Y020038D01*
X015968Y020047D02*
X016201Y020047D01*
X016192Y020055D02*
X015968Y020055D01*
X015968Y020064D02*
X016192Y020064D01*
X016192Y020072D02*
X015968Y020072D01*
X015968Y020081D02*
X016192Y020081D01*
X016192Y020089D02*
X015968Y020089D01*
X015968Y020098D02*
X016192Y020098D01*
X016192Y020106D02*
X015968Y020106D01*
X015968Y020115D02*
X016192Y020115D01*
X016192Y020123D02*
X015968Y020123D01*
X015968Y020132D02*
X016192Y020132D01*
X016192Y020140D02*
X015968Y020140D01*
X015968Y020149D02*
X016192Y020149D01*
X016192Y020157D02*
X015968Y020157D01*
X015968Y020166D02*
X016192Y020166D01*
X016192Y020174D02*
X015968Y020174D01*
X015968Y020183D02*
X016192Y020183D01*
X016192Y020191D02*
X015968Y020191D01*
X015968Y020200D02*
X016192Y020200D01*
X016192Y020208D02*
X015968Y020208D01*
X015968Y020217D02*
X016192Y020217D01*
X016192Y020225D02*
X015968Y020225D01*
X015968Y020234D02*
X016192Y020234D01*
X016192Y020242D02*
X015968Y020242D01*
X015968Y020251D02*
X016192Y020251D01*
X016192Y020259D02*
X015968Y020259D01*
X015968Y020268D02*
X016192Y020268D01*
X016192Y020276D02*
X015968Y020276D01*
X015968Y020285D02*
X016192Y020285D01*
X016192Y020293D02*
X015968Y020293D01*
X015968Y020302D02*
X016192Y020302D01*
X016192Y020310D02*
X015968Y020310D01*
X015968Y020319D02*
X016192Y020319D01*
X016192Y020327D02*
X015968Y020327D01*
X015968Y020336D02*
X016195Y020336D01*
X016206Y020344D02*
X015968Y020344D01*
X015968Y020353D02*
X016216Y020353D01*
X016226Y020361D02*
X015968Y020361D01*
X015968Y020370D02*
X016236Y020370D01*
X016240Y020378D02*
X015968Y020378D01*
X015968Y020387D02*
X016240Y020387D01*
X016244Y020387D02*
X016440Y020387D01*
X016442Y020387D02*
X016744Y020387D01*
X016744Y020395D02*
X016442Y020395D01*
X016442Y020404D02*
X016744Y020404D01*
X016744Y020412D02*
X016442Y020412D01*
X016442Y020421D02*
X016744Y020421D01*
X016744Y020429D02*
X016442Y020429D01*
X016442Y020438D02*
X016744Y020438D01*
X016744Y020446D02*
X016442Y020446D01*
X016442Y020455D02*
X016744Y020455D01*
X016744Y020463D02*
X016442Y020463D01*
X016442Y020472D02*
X016744Y020472D01*
X016744Y020480D02*
X016442Y020480D01*
X016442Y020489D02*
X016744Y020489D01*
X016744Y020497D02*
X016438Y020497D01*
X016430Y020506D02*
X016744Y020506D01*
X016744Y020514D02*
X016421Y020514D01*
X016293Y020514D02*
X015968Y020514D01*
X015968Y020506D02*
X016284Y020506D01*
X016275Y020497D02*
X015968Y020497D01*
X015968Y020489D02*
X016266Y020489D01*
X016266Y020480D02*
X015968Y020480D01*
X015968Y020472D02*
X016266Y020472D01*
X016266Y020463D02*
X015968Y020463D01*
X015968Y020455D02*
X016266Y020455D01*
X016266Y020446D02*
X015968Y020446D01*
X015968Y020438D02*
X016266Y020438D01*
X016266Y020429D02*
X015968Y020429D01*
X015968Y020421D02*
X016266Y020421D01*
X016266Y020412D02*
X015968Y020412D01*
X015968Y020404D02*
X016266Y020404D01*
X016244Y020395D02*
X015968Y020395D01*
X015968Y020523D02*
X016744Y020523D01*
X016744Y020531D02*
X015968Y020531D01*
X015968Y020540D02*
X016744Y020540D01*
X016744Y020548D02*
X015968Y020548D01*
X015968Y020557D02*
X016744Y020557D01*
X016744Y020565D02*
X015968Y020565D01*
X015968Y020574D02*
X016744Y020574D01*
X016744Y020582D02*
X015968Y020582D01*
X015968Y020591D02*
X016744Y020591D01*
X016744Y020599D02*
X015968Y020599D01*
X015968Y020608D02*
X016744Y020608D01*
X016744Y020616D02*
X015968Y020616D01*
X015968Y020625D02*
X016744Y020625D01*
X016744Y020633D02*
X015968Y020633D01*
X015968Y020642D02*
X016744Y020642D01*
X016744Y020650D02*
X015968Y020650D01*
X015968Y020659D02*
X016744Y020659D01*
X016744Y020667D02*
X015968Y020667D01*
X015968Y020676D02*
X016744Y020676D01*
X016744Y020378D02*
X016442Y020378D01*
X016440Y020378D02*
X016244Y020378D01*
X016479Y020370D02*
X016744Y020370D01*
X016744Y020361D02*
X016489Y020361D01*
X016499Y020353D02*
X016744Y020353D01*
X016744Y020344D02*
X016509Y020344D01*
X016520Y020336D02*
X016744Y020336D01*
X016744Y020327D02*
X016520Y020327D01*
X016520Y020319D02*
X016744Y020319D01*
X016744Y020310D02*
X016520Y020310D01*
X016520Y020302D02*
X016744Y020302D01*
X016744Y020293D02*
X016520Y020293D01*
X016520Y020285D02*
X016744Y020285D01*
X016744Y020276D02*
X016520Y020276D01*
X016520Y020268D02*
X016744Y020268D01*
X016744Y020259D02*
X016520Y020259D01*
X016520Y020251D02*
X016744Y020251D01*
X016744Y020242D02*
X016520Y020242D01*
X016520Y020234D02*
X016744Y020234D01*
X016744Y020225D02*
X016520Y020225D01*
X016520Y020217D02*
X016744Y020217D01*
X016744Y020208D02*
X016520Y020208D01*
X016520Y020200D02*
X016744Y020200D01*
X016744Y020191D02*
X016520Y020191D01*
X016520Y020183D02*
X016744Y020183D01*
X016744Y020174D02*
X016520Y020174D01*
X016520Y020166D02*
X016744Y020166D01*
X016744Y020157D02*
X016520Y020157D01*
X016520Y020149D02*
X016744Y020149D01*
X016744Y020140D02*
X016520Y020140D01*
X016520Y020132D02*
X016744Y020132D01*
X016744Y020123D02*
X016520Y020123D01*
X016520Y020115D02*
X016744Y020115D01*
X016744Y020106D02*
X016520Y020106D01*
X016520Y020098D02*
X016744Y020098D01*
X016744Y020089D02*
X016520Y020089D01*
X016520Y020081D02*
X016744Y020081D01*
X016744Y020072D02*
X016520Y020072D01*
X016520Y020064D02*
X016744Y020064D01*
X016744Y020055D02*
X016520Y020055D01*
X016511Y020047D02*
X016744Y020047D01*
X016744Y020038D02*
X016493Y020038D01*
X016476Y020030D02*
X016744Y020030D01*
X016744Y020021D02*
X016470Y020021D01*
X016470Y020013D02*
X016744Y020013D01*
X016744Y020004D02*
X016470Y020004D01*
X016470Y019996D02*
X016744Y019996D01*
X016744Y019987D02*
X016470Y019987D01*
X016470Y019979D02*
X016744Y019979D01*
X016744Y019970D02*
X016470Y019970D01*
X016470Y019962D02*
X016744Y019962D01*
X016744Y019953D02*
X016470Y019953D01*
X016470Y019945D02*
X016744Y019945D01*
X016744Y019936D02*
X016470Y019936D01*
X016470Y019928D02*
X016744Y019928D01*
X016744Y019919D02*
X016470Y019919D01*
X016470Y019911D02*
X016744Y019911D01*
X016744Y019902D02*
X016470Y019902D01*
X016470Y019894D02*
X016744Y019894D01*
X016744Y019885D02*
X016470Y019885D01*
X016470Y019877D02*
X016744Y019877D01*
X016744Y019868D02*
X016470Y019868D01*
X016470Y019860D02*
X016744Y019860D01*
X016744Y019851D02*
X016470Y019851D01*
X016470Y019843D02*
X016744Y019843D01*
X016744Y019834D02*
X016470Y019834D01*
X016470Y019826D02*
X016744Y019826D01*
X016744Y019817D02*
X016470Y019817D01*
X016470Y019809D02*
X016744Y019809D01*
X016744Y019800D02*
X016470Y019800D01*
X016470Y019792D02*
X016744Y019792D01*
X016744Y019783D02*
X016470Y019783D01*
X016470Y019775D02*
X016744Y019775D01*
X016744Y019766D02*
X016470Y019766D01*
X016470Y019758D02*
X016744Y019758D01*
X023244Y019758D02*
X023518Y019758D01*
X023518Y019755D02*
X023244Y019755D01*
X023244Y020683D01*
X024020Y020683D01*
X024020Y019753D01*
X023746Y019753D01*
X023746Y020027D01*
X023796Y020051D01*
X023796Y020335D01*
X023748Y020375D01*
X023718Y020375D01*
X023718Y020493D01*
X023696Y020515D01*
X023570Y020515D01*
X023542Y020489D01*
X023542Y020397D01*
X023520Y020397D01*
X023520Y020375D01*
X023542Y020375D01*
X023716Y020375D01*
X023716Y020391D01*
X023516Y020391D01*
X023516Y020373D01*
X023468Y020333D01*
X023468Y020051D01*
X023518Y020025D01*
X023518Y019755D01*
X023518Y019766D02*
X023244Y019766D01*
X023244Y019775D02*
X023518Y019775D01*
X023518Y019783D02*
X023244Y019783D01*
X023244Y019792D02*
X023518Y019792D01*
X023518Y019800D02*
X023244Y019800D01*
X023244Y019809D02*
X023518Y019809D01*
X023518Y019817D02*
X023244Y019817D01*
X023244Y019826D02*
X023518Y019826D01*
X023518Y019834D02*
X023244Y019834D01*
X023244Y019843D02*
X023518Y019843D01*
X023518Y019851D02*
X023244Y019851D01*
X023244Y019860D02*
X023518Y019860D01*
X023518Y019868D02*
X023244Y019868D01*
X023244Y019877D02*
X023518Y019877D01*
X023518Y019885D02*
X023244Y019885D01*
X023244Y019894D02*
X023518Y019894D01*
X023518Y019902D02*
X023244Y019902D01*
X023244Y019911D02*
X023518Y019911D01*
X023518Y019919D02*
X023244Y019919D01*
X023244Y019928D02*
X023518Y019928D01*
X023518Y019936D02*
X023244Y019936D01*
X023244Y019945D02*
X023518Y019945D01*
X023518Y019953D02*
X023244Y019953D01*
X023244Y019962D02*
X023518Y019962D01*
X023518Y019970D02*
X023244Y019970D01*
X023244Y019979D02*
X023518Y019979D01*
X023518Y019987D02*
X023244Y019987D01*
X023244Y019996D02*
X023518Y019996D01*
X023518Y020004D02*
X023244Y020004D01*
X023244Y020013D02*
X023518Y020013D01*
X023518Y020021D02*
X023244Y020021D01*
X023244Y020030D02*
X023509Y020030D01*
X023493Y020038D02*
X023244Y020038D01*
X023244Y020047D02*
X023476Y020047D01*
X023468Y020055D02*
X023244Y020055D01*
X023244Y020064D02*
X023468Y020064D01*
X023468Y020072D02*
X023244Y020072D01*
X023244Y020081D02*
X023468Y020081D01*
X023468Y020089D02*
X023244Y020089D01*
X023244Y020098D02*
X023468Y020098D01*
X023468Y020106D02*
X023244Y020106D01*
X023244Y020115D02*
X023468Y020115D01*
X023468Y020123D02*
X023244Y020123D01*
X023244Y020132D02*
X023468Y020132D01*
X023468Y020140D02*
X023244Y020140D01*
X023244Y020149D02*
X023468Y020149D01*
X023468Y020157D02*
X023244Y020157D01*
X023244Y020166D02*
X023468Y020166D01*
X023468Y020174D02*
X023244Y020174D01*
X023244Y020183D02*
X023468Y020183D01*
X023468Y020191D02*
X023244Y020191D01*
X023244Y020200D02*
X023468Y020200D01*
X023468Y020208D02*
X023244Y020208D01*
X023244Y020217D02*
X023468Y020217D01*
X023468Y020225D02*
X023244Y020225D01*
X023244Y020234D02*
X023468Y020234D01*
X023468Y020242D02*
X023244Y020242D01*
X023244Y020251D02*
X023468Y020251D01*
X023468Y020259D02*
X023244Y020259D01*
X023244Y020268D02*
X023468Y020268D01*
X023468Y020276D02*
X023244Y020276D01*
X023244Y020285D02*
X023468Y020285D01*
X023468Y020293D02*
X023244Y020293D01*
X023244Y020302D02*
X023468Y020302D01*
X023468Y020310D02*
X023244Y020310D01*
X023244Y020319D02*
X023468Y020319D01*
X023468Y020327D02*
X023244Y020327D01*
X023244Y020336D02*
X023471Y020336D01*
X023481Y020344D02*
X023244Y020344D01*
X023244Y020353D02*
X023491Y020353D01*
X023502Y020361D02*
X023244Y020361D01*
X023244Y020370D02*
X023512Y020370D01*
X023516Y020378D02*
X023244Y020378D01*
X023244Y020387D02*
X023516Y020387D01*
X023520Y020387D02*
X023716Y020387D01*
X023718Y020387D02*
X024020Y020387D01*
X024020Y020395D02*
X023718Y020395D01*
X023718Y020404D02*
X024020Y020404D01*
X024020Y020412D02*
X023718Y020412D01*
X023718Y020421D02*
X024020Y020421D01*
X024020Y020429D02*
X023718Y020429D01*
X023718Y020438D02*
X024020Y020438D01*
X024020Y020446D02*
X023718Y020446D01*
X023718Y020455D02*
X024020Y020455D01*
X024020Y020463D02*
X023718Y020463D01*
X023718Y020472D02*
X024020Y020472D01*
X024020Y020480D02*
X023718Y020480D01*
X023718Y020489D02*
X024020Y020489D01*
X024020Y020497D02*
X023714Y020497D01*
X023705Y020506D02*
X024020Y020506D01*
X024020Y020514D02*
X023697Y020514D01*
X023569Y020514D02*
X023244Y020514D01*
X023244Y020506D02*
X023560Y020506D01*
X023551Y020497D02*
X023244Y020497D01*
X023244Y020489D02*
X023542Y020489D01*
X023542Y020480D02*
X023244Y020480D01*
X023244Y020472D02*
X023542Y020472D01*
X023542Y020463D02*
X023244Y020463D01*
X023244Y020455D02*
X023542Y020455D01*
X023542Y020446D02*
X023244Y020446D01*
X023244Y020438D02*
X023542Y020438D01*
X023542Y020429D02*
X023244Y020429D01*
X023244Y020421D02*
X023542Y020421D01*
X023542Y020412D02*
X023244Y020412D01*
X023244Y020404D02*
X023542Y020404D01*
X023520Y020395D02*
X023244Y020395D01*
X023244Y020523D02*
X024020Y020523D01*
X024020Y020531D02*
X023244Y020531D01*
X023244Y020540D02*
X024020Y020540D01*
X024020Y020548D02*
X023244Y020548D01*
X023244Y020557D02*
X024020Y020557D01*
X024020Y020565D02*
X023244Y020565D01*
X023244Y020574D02*
X024020Y020574D01*
X024020Y020582D02*
X023244Y020582D01*
X023244Y020591D02*
X024020Y020591D01*
X024020Y020599D02*
X023244Y020599D01*
X023244Y020608D02*
X024020Y020608D01*
X024020Y020616D02*
X023244Y020616D01*
X023244Y020625D02*
X024020Y020625D01*
X024020Y020633D02*
X023244Y020633D01*
X023244Y020642D02*
X024020Y020642D01*
X024020Y020650D02*
X023244Y020650D01*
X023244Y020659D02*
X024020Y020659D01*
X024020Y020667D02*
X023244Y020667D01*
X023244Y020676D02*
X024020Y020676D01*
X024020Y020378D02*
X023718Y020378D01*
X023716Y020378D02*
X023520Y020378D01*
X023754Y020370D02*
X024020Y020370D01*
X024020Y020361D02*
X023765Y020361D01*
X023775Y020353D02*
X024020Y020353D01*
X024020Y020344D02*
X023785Y020344D01*
X023795Y020336D02*
X024020Y020336D01*
X024020Y020327D02*
X023796Y020327D01*
X023796Y020319D02*
X024020Y020319D01*
X024020Y020310D02*
X023796Y020310D01*
X023796Y020302D02*
X024020Y020302D01*
X024020Y020293D02*
X023796Y020293D01*
X023796Y020285D02*
X024020Y020285D01*
X024020Y020276D02*
X023796Y020276D01*
X023796Y020268D02*
X024020Y020268D01*
X024020Y020259D02*
X023796Y020259D01*
X023796Y020251D02*
X024020Y020251D01*
X024020Y020242D02*
X023796Y020242D01*
X023796Y020234D02*
X024020Y020234D01*
X024020Y020225D02*
X023796Y020225D01*
X023796Y020217D02*
X024020Y020217D01*
X024020Y020208D02*
X023796Y020208D01*
X023796Y020200D02*
X024020Y020200D01*
X024020Y020191D02*
X023796Y020191D01*
X023796Y020183D02*
X024020Y020183D01*
X024020Y020174D02*
X023796Y020174D01*
X023796Y020166D02*
X024020Y020166D01*
X024020Y020157D02*
X023796Y020157D01*
X023796Y020149D02*
X024020Y020149D01*
X024020Y020140D02*
X023796Y020140D01*
X023796Y020132D02*
X024020Y020132D01*
X024020Y020123D02*
X023796Y020123D01*
X023796Y020115D02*
X024020Y020115D01*
X024020Y020106D02*
X023796Y020106D01*
X023796Y020098D02*
X024020Y020098D01*
X024020Y020089D02*
X023796Y020089D01*
X023796Y020081D02*
X024020Y020081D01*
X024020Y020072D02*
X023796Y020072D01*
X023796Y020064D02*
X024020Y020064D01*
X024020Y020055D02*
X023796Y020055D01*
X023787Y020047D02*
X024020Y020047D01*
X024020Y020038D02*
X023769Y020038D01*
X023751Y020030D02*
X024020Y020030D01*
X024020Y020021D02*
X023746Y020021D01*
X023746Y020013D02*
X024020Y020013D01*
X024020Y020004D02*
X023746Y020004D01*
X023746Y019996D02*
X024020Y019996D01*
X024020Y019987D02*
X023746Y019987D01*
X023746Y019979D02*
X024020Y019979D01*
X024020Y019970D02*
X023746Y019970D01*
X023746Y019962D02*
X024020Y019962D01*
X024020Y019953D02*
X023746Y019953D01*
X023746Y019945D02*
X024020Y019945D01*
X024020Y019936D02*
X023746Y019936D01*
X023746Y019928D02*
X024020Y019928D01*
X024020Y019919D02*
X023746Y019919D01*
X023746Y019911D02*
X024020Y019911D01*
X024020Y019902D02*
X023746Y019902D01*
X023746Y019894D02*
X024020Y019894D01*
X024020Y019885D02*
X023746Y019885D01*
X023746Y019877D02*
X024020Y019877D01*
X024020Y019868D02*
X023746Y019868D01*
X023746Y019860D02*
X024020Y019860D01*
X024020Y019851D02*
X023746Y019851D01*
X023746Y019843D02*
X024020Y019843D01*
X024020Y019834D02*
X023746Y019834D01*
X023746Y019826D02*
X024020Y019826D01*
X024020Y019817D02*
X023746Y019817D01*
X023746Y019809D02*
X024020Y019809D01*
X024020Y019800D02*
X023746Y019800D01*
X023746Y019792D02*
X024020Y019792D01*
X024020Y019783D02*
X023746Y019783D01*
X023746Y019775D02*
X024020Y019775D01*
X024020Y019766D02*
X023746Y019766D01*
X023746Y019758D02*
X024020Y019758D01*
X030520Y019758D02*
X030794Y019758D01*
X030794Y019755D02*
X030520Y019755D01*
X030520Y020683D01*
X031296Y020683D01*
X031296Y019753D01*
X031022Y019753D01*
X031022Y020027D01*
X031072Y020051D01*
X031072Y020335D01*
X031024Y020375D01*
X030994Y020375D01*
X030994Y020493D01*
X030972Y020515D01*
X030846Y020515D01*
X030818Y020489D01*
X030818Y020397D01*
X030796Y020397D01*
X030796Y020375D01*
X030818Y020375D01*
X030992Y020375D01*
X030992Y020391D01*
X030792Y020391D01*
X030792Y020373D01*
X030744Y020333D01*
X030744Y020051D01*
X030794Y020025D01*
X030794Y019755D01*
X030794Y019766D02*
X030520Y019766D01*
X030520Y019775D02*
X030794Y019775D01*
X030794Y019783D02*
X030520Y019783D01*
X030520Y019792D02*
X030794Y019792D01*
X030794Y019800D02*
X030520Y019800D01*
X030520Y019809D02*
X030794Y019809D01*
X030794Y019817D02*
X030520Y019817D01*
X030520Y019826D02*
X030794Y019826D01*
X030794Y019834D02*
X030520Y019834D01*
X030520Y019843D02*
X030794Y019843D01*
X030794Y019851D02*
X030520Y019851D01*
X030520Y019860D02*
X030794Y019860D01*
X030794Y019868D02*
X030520Y019868D01*
X030520Y019877D02*
X030794Y019877D01*
X030794Y019885D02*
X030520Y019885D01*
X030520Y019894D02*
X030794Y019894D01*
X030794Y019902D02*
X030520Y019902D01*
X030520Y019911D02*
X030794Y019911D01*
X030794Y019919D02*
X030520Y019919D01*
X030520Y019928D02*
X030794Y019928D01*
X030794Y019936D02*
X030520Y019936D01*
X030520Y019945D02*
X030794Y019945D01*
X030794Y019953D02*
X030520Y019953D01*
X030520Y019962D02*
X030794Y019962D01*
X030794Y019970D02*
X030520Y019970D01*
X030520Y019979D02*
X030794Y019979D01*
X030794Y019987D02*
X030520Y019987D01*
X030520Y019996D02*
X030794Y019996D01*
X030794Y020004D02*
X030520Y020004D01*
X030520Y020013D02*
X030794Y020013D01*
X030794Y020021D02*
X030520Y020021D01*
X030520Y020030D02*
X030785Y020030D01*
X030768Y020038D02*
X030520Y020038D01*
X030520Y020047D02*
X030752Y020047D01*
X030744Y020055D02*
X030520Y020055D01*
X030520Y020064D02*
X030744Y020064D01*
X030744Y020072D02*
X030520Y020072D01*
X030520Y020081D02*
X030744Y020081D01*
X030744Y020089D02*
X030520Y020089D01*
X030520Y020098D02*
X030744Y020098D01*
X030744Y020106D02*
X030520Y020106D01*
X030520Y020115D02*
X030744Y020115D01*
X030744Y020123D02*
X030520Y020123D01*
X030520Y020132D02*
X030744Y020132D01*
X030744Y020140D02*
X030520Y020140D01*
X030520Y020149D02*
X030744Y020149D01*
X030744Y020157D02*
X030520Y020157D01*
X030520Y020166D02*
X030744Y020166D01*
X030744Y020174D02*
X030520Y020174D01*
X030520Y020183D02*
X030744Y020183D01*
X030744Y020191D02*
X030520Y020191D01*
X030520Y020200D02*
X030744Y020200D01*
X030744Y020208D02*
X030520Y020208D01*
X030520Y020217D02*
X030744Y020217D01*
X030744Y020225D02*
X030520Y020225D01*
X030520Y020234D02*
X030744Y020234D01*
X030744Y020242D02*
X030520Y020242D01*
X030520Y020251D02*
X030744Y020251D01*
X030744Y020259D02*
X030520Y020259D01*
X030520Y020268D02*
X030744Y020268D01*
X030744Y020276D02*
X030520Y020276D01*
X030520Y020285D02*
X030744Y020285D01*
X030744Y020293D02*
X030520Y020293D01*
X030520Y020302D02*
X030744Y020302D01*
X030744Y020310D02*
X030520Y020310D01*
X030520Y020319D02*
X030744Y020319D01*
X030744Y020327D02*
X030520Y020327D01*
X030520Y020336D02*
X030747Y020336D01*
X030757Y020344D02*
X030520Y020344D01*
X030520Y020353D02*
X030767Y020353D01*
X030777Y020361D02*
X030520Y020361D01*
X030520Y020370D02*
X030787Y020370D01*
X030792Y020378D02*
X030520Y020378D01*
X030520Y020387D02*
X030792Y020387D01*
X030796Y020387D02*
X030992Y020387D01*
X030994Y020387D02*
X031296Y020387D01*
X031296Y020395D02*
X030994Y020395D01*
X030994Y020404D02*
X031296Y020404D01*
X031296Y020412D02*
X030994Y020412D01*
X030994Y020421D02*
X031296Y020421D01*
X031296Y020429D02*
X030994Y020429D01*
X030994Y020438D02*
X031296Y020438D01*
X031296Y020446D02*
X030994Y020446D01*
X030994Y020455D02*
X031296Y020455D01*
X031296Y020463D02*
X030994Y020463D01*
X030994Y020472D02*
X031296Y020472D01*
X031296Y020480D02*
X030994Y020480D01*
X030994Y020489D02*
X031296Y020489D01*
X031296Y020497D02*
X030989Y020497D01*
X030981Y020506D02*
X031296Y020506D01*
X031296Y020514D02*
X030972Y020514D01*
X030845Y020514D02*
X030520Y020514D01*
X030520Y020506D02*
X030835Y020506D01*
X030826Y020497D02*
X030520Y020497D01*
X030520Y020489D02*
X030818Y020489D01*
X030818Y020480D02*
X030520Y020480D01*
X030520Y020472D02*
X030818Y020472D01*
X030818Y020463D02*
X030520Y020463D01*
X030520Y020455D02*
X030818Y020455D01*
X030818Y020446D02*
X030520Y020446D01*
X030520Y020438D02*
X030818Y020438D01*
X030818Y020429D02*
X030520Y020429D01*
X030520Y020421D02*
X030818Y020421D01*
X030818Y020412D02*
X030520Y020412D01*
X030520Y020404D02*
X030818Y020404D01*
X030796Y020395D02*
X030520Y020395D01*
X030520Y020523D02*
X031296Y020523D01*
X031296Y020531D02*
X030520Y020531D01*
X030520Y020540D02*
X031296Y020540D01*
X031296Y020548D02*
X030520Y020548D01*
X030520Y020557D02*
X031296Y020557D01*
X031296Y020565D02*
X030520Y020565D01*
X030520Y020574D02*
X031296Y020574D01*
X031296Y020582D02*
X030520Y020582D01*
X030520Y020591D02*
X031296Y020591D01*
X031296Y020599D02*
X030520Y020599D01*
X030520Y020608D02*
X031296Y020608D01*
X031296Y020616D02*
X030520Y020616D01*
X030520Y020625D02*
X031296Y020625D01*
X031296Y020633D02*
X030520Y020633D01*
X030520Y020642D02*
X031296Y020642D01*
X031296Y020650D02*
X030520Y020650D01*
X030520Y020659D02*
X031296Y020659D01*
X031296Y020667D02*
X030520Y020667D01*
X030520Y020676D02*
X031296Y020676D01*
X031296Y020378D02*
X030994Y020378D01*
X030992Y020378D02*
X030796Y020378D01*
X031030Y020370D02*
X031296Y020370D01*
X031296Y020361D02*
X031040Y020361D01*
X031050Y020353D02*
X031296Y020353D01*
X031296Y020344D02*
X031061Y020344D01*
X031071Y020336D02*
X031296Y020336D01*
X031296Y020327D02*
X031072Y020327D01*
X031072Y020319D02*
X031296Y020319D01*
X031296Y020310D02*
X031072Y020310D01*
X031072Y020302D02*
X031296Y020302D01*
X031296Y020293D02*
X031072Y020293D01*
X031072Y020285D02*
X031296Y020285D01*
X031296Y020276D02*
X031072Y020276D01*
X031072Y020268D02*
X031296Y020268D01*
X031296Y020259D02*
X031072Y020259D01*
X031072Y020251D02*
X031296Y020251D01*
X031296Y020242D02*
X031072Y020242D01*
X031072Y020234D02*
X031296Y020234D01*
X031296Y020225D02*
X031072Y020225D01*
X031072Y020217D02*
X031296Y020217D01*
X031296Y020208D02*
X031072Y020208D01*
X031072Y020200D02*
X031296Y020200D01*
X031296Y020191D02*
X031072Y020191D01*
X031072Y020183D02*
X031296Y020183D01*
X031296Y020174D02*
X031072Y020174D01*
X031072Y020166D02*
X031296Y020166D01*
X031296Y020157D02*
X031072Y020157D01*
X031072Y020149D02*
X031296Y020149D01*
X031296Y020140D02*
X031072Y020140D01*
X031072Y020132D02*
X031296Y020132D01*
X031296Y020123D02*
X031072Y020123D01*
X031072Y020115D02*
X031296Y020115D01*
X031296Y020106D02*
X031072Y020106D01*
X031072Y020098D02*
X031296Y020098D01*
X031296Y020089D02*
X031072Y020089D01*
X031072Y020081D02*
X031296Y020081D01*
X031296Y020072D02*
X031072Y020072D01*
X031072Y020064D02*
X031296Y020064D01*
X031296Y020055D02*
X031072Y020055D01*
X031062Y020047D02*
X031296Y020047D01*
X031296Y020038D02*
X031045Y020038D01*
X031027Y020030D02*
X031296Y020030D01*
X031296Y020021D02*
X031022Y020021D01*
X031022Y020013D02*
X031296Y020013D01*
X031296Y020004D02*
X031022Y020004D01*
X031022Y019996D02*
X031296Y019996D01*
X031296Y019987D02*
X031022Y019987D01*
X031022Y019979D02*
X031296Y019979D01*
X031296Y019970D02*
X031022Y019970D01*
X031022Y019962D02*
X031296Y019962D01*
X031296Y019953D02*
X031022Y019953D01*
X031022Y019945D02*
X031296Y019945D01*
X031296Y019936D02*
X031022Y019936D01*
X031022Y019928D02*
X031296Y019928D01*
X031296Y019919D02*
X031022Y019919D01*
X031022Y019911D02*
X031296Y019911D01*
X031296Y019902D02*
X031022Y019902D01*
X031022Y019894D02*
X031296Y019894D01*
X031296Y019885D02*
X031022Y019885D01*
X031022Y019877D02*
X031296Y019877D01*
X031296Y019868D02*
X031022Y019868D01*
X031022Y019860D02*
X031296Y019860D01*
X031296Y019851D02*
X031022Y019851D01*
X031022Y019843D02*
X031296Y019843D01*
X031296Y019834D02*
X031022Y019834D01*
X031022Y019826D02*
X031296Y019826D01*
X031296Y019817D02*
X031022Y019817D01*
X031022Y019809D02*
X031296Y019809D01*
X031296Y019800D02*
X031022Y019800D01*
X031022Y019792D02*
X031296Y019792D01*
X031296Y019783D02*
X031022Y019783D01*
X031022Y019775D02*
X031296Y019775D01*
X031296Y019766D02*
X031022Y019766D01*
X031022Y019758D02*
X031296Y019758D01*
M02*
