G75*
%MOIN*%
%OFA0B0*%
%FSLAX24Y24*%
%IPPOS*%
%LPD*%
%AMOC8*
5,1,8,0,0,1.08239X$1,22.5*
%
%ADD10C,0.0030*%
%ADD11C,0.0050*%
%ADD12C,0.0040*%
%ADD13C,0.0100*%
%ADD14C,0.0010*%
%ADD15C,0.0080*%
D10*
X000512Y000481D02*
X000512Y000675D01*
X000221Y000675D01*
X000221Y000776D02*
X000221Y000969D01*
X000512Y000969D01*
X000512Y000776D01*
X000711Y000707D02*
X000760Y000755D01*
X000711Y000707D02*
X000711Y000610D01*
X000760Y000562D01*
X000808Y000562D01*
X001002Y000755D01*
X001002Y000562D01*
X001377Y000388D02*
X001377Y000243D01*
X001474Y000243D02*
X001474Y000388D01*
X001426Y000436D01*
X001377Y000388D01*
X001474Y000388D02*
X001522Y000436D01*
X001571Y000436D01*
X001571Y000243D01*
X001672Y000291D02*
X001720Y000243D01*
X001817Y000243D01*
X001865Y000291D01*
X001865Y000388D01*
X001817Y000436D01*
X001720Y000436D01*
X001672Y000388D01*
X001672Y000291D01*
X001967Y000243D02*
X002112Y000243D01*
X002160Y000291D01*
X002160Y000388D01*
X002112Y000436D01*
X001967Y000436D01*
X002259Y000291D02*
X002259Y000243D01*
X002307Y000243D01*
X002307Y000291D01*
X002259Y000291D01*
X002409Y000243D02*
X002554Y000243D01*
X002602Y000291D01*
X002602Y000388D01*
X002554Y000436D01*
X002409Y000436D01*
X002750Y000436D02*
X002750Y000243D01*
X002702Y000243D02*
X002799Y000243D01*
X002898Y000243D02*
X002947Y000291D01*
X002947Y000485D01*
X002995Y000436D02*
X002898Y000436D01*
X002799Y000436D02*
X002750Y000436D01*
X002750Y000533D02*
X002750Y000582D01*
X003096Y000388D02*
X003144Y000436D01*
X003241Y000436D01*
X003290Y000388D01*
X003290Y000291D01*
X003241Y000243D01*
X003144Y000243D01*
X003096Y000291D01*
X003096Y000388D01*
X003391Y000388D02*
X003391Y000291D01*
X003439Y000243D01*
X003584Y000243D01*
X003584Y000533D01*
X003584Y000436D02*
X003439Y000436D01*
X003391Y000388D01*
X003685Y000388D02*
X003685Y000291D01*
X003734Y000243D01*
X003831Y000243D01*
X003879Y000291D01*
X003879Y000388D01*
X003831Y000436D01*
X003734Y000436D01*
X003685Y000388D01*
X003979Y000436D02*
X004028Y000436D01*
X004124Y000340D01*
X004124Y000436D02*
X004124Y000243D01*
X004226Y000243D02*
X004371Y000243D01*
X004419Y000291D01*
X004419Y000388D01*
X004371Y000436D01*
X004226Y000436D01*
X004520Y000388D02*
X004520Y000243D01*
X004665Y000243D01*
X004714Y000291D01*
X004665Y000340D01*
X004520Y000340D01*
X004520Y000388D02*
X004569Y000436D01*
X004665Y000436D01*
X004815Y000533D02*
X005008Y000243D01*
X005303Y000243D02*
X005110Y000533D01*
X005402Y000436D02*
X005402Y000388D01*
X005450Y000388D01*
X005450Y000436D01*
X005402Y000436D01*
X005552Y000436D02*
X005697Y000436D01*
X005745Y000388D01*
X005697Y000340D01*
X005600Y000340D01*
X005552Y000291D01*
X005600Y000243D01*
X005745Y000243D01*
X005846Y000291D02*
X005895Y000243D01*
X006040Y000243D01*
X006040Y000146D02*
X006040Y000436D01*
X005895Y000436D01*
X005846Y000388D01*
X005846Y000291D01*
X006139Y000243D02*
X006188Y000291D01*
X006188Y000485D01*
X006236Y000436D02*
X006139Y000436D01*
X006336Y000436D02*
X006433Y000436D01*
X006384Y000485D02*
X006384Y000291D01*
X006336Y000243D01*
X006534Y000243D02*
X006534Y000388D01*
X006582Y000436D01*
X006679Y000436D01*
X006727Y000388D01*
X006727Y000533D02*
X006727Y000243D01*
X005450Y000243D02*
X005450Y000291D01*
X005402Y000291D01*
X005402Y000243D01*
X005450Y000243D01*
X001002Y001050D02*
X000711Y000856D01*
X000367Y000873D02*
X000367Y000969D01*
X000415Y001070D02*
X000463Y001070D01*
X000512Y001119D01*
X000512Y001264D01*
X000221Y001264D01*
X000221Y001119D01*
X000270Y001070D01*
X000318Y001070D01*
X000367Y001119D01*
X000367Y001264D01*
X000367Y001365D02*
X000367Y001559D01*
X000318Y001559D02*
X000221Y001462D01*
X000318Y001365D01*
X000512Y001365D01*
X000711Y001494D02*
X000760Y001445D01*
X000808Y001445D01*
X000857Y001494D01*
X000857Y001639D01*
X001002Y001639D02*
X000711Y001639D01*
X000711Y001494D01*
X000857Y001494D02*
X000905Y001445D01*
X000953Y001445D01*
X001002Y001494D01*
X001002Y001639D01*
X001002Y001934D02*
X000711Y001740D01*
X000512Y001660D02*
X000512Y001853D01*
X000221Y001853D01*
X000857Y002035D02*
X000857Y002228D01*
X000953Y002132D02*
X000760Y002132D01*
X000512Y002297D02*
X000463Y002249D01*
X000270Y002249D01*
X000221Y002297D01*
X000221Y002394D01*
X000270Y002443D01*
X000463Y002443D01*
X000512Y002394D01*
X000512Y002297D01*
X000711Y002426D02*
X000808Y002329D01*
X001002Y002329D01*
X000857Y002329D02*
X000857Y002523D01*
X000808Y002523D02*
X000711Y002426D01*
X000808Y002523D02*
X001002Y002523D01*
X000512Y002542D02*
X000512Y002639D01*
X000512Y002591D02*
X000221Y002591D01*
X000221Y002639D02*
X000221Y002542D01*
X000270Y002740D02*
X000367Y002740D01*
X000415Y002789D01*
X000415Y002934D01*
X000512Y002934D02*
X000221Y002934D01*
X000221Y002789D01*
X000270Y002740D01*
X000270Y003035D02*
X000221Y003083D01*
X000221Y003180D01*
X000270Y003228D01*
X000463Y003228D01*
X000512Y003180D01*
X000512Y003083D01*
X000463Y003035D01*
X000367Y003035D01*
X000367Y003132D01*
X000512Y003623D02*
X000512Y003719D01*
X000512Y003671D02*
X000221Y003671D01*
X000221Y003719D02*
X000221Y003623D01*
X000270Y003821D02*
X000367Y003821D01*
X000415Y003869D01*
X000415Y004014D01*
X000512Y004014D02*
X000221Y004014D01*
X000221Y003869D01*
X000270Y003821D01*
X000270Y004410D02*
X000221Y004410D01*
X000270Y004410D02*
X000367Y004507D01*
X000512Y004507D01*
X000367Y004507D02*
X000270Y004603D01*
X000221Y004603D01*
X000270Y004704D02*
X000367Y004704D01*
X000415Y004753D01*
X000415Y004898D01*
X000512Y004898D02*
X000221Y004898D01*
X000221Y004753D01*
X000270Y004704D01*
X000415Y004801D02*
X000512Y004704D01*
X000512Y004999D02*
X000415Y005096D01*
X000415Y005048D02*
X000415Y005193D01*
X000512Y005193D02*
X000221Y005193D01*
X000221Y005048D01*
X000270Y004999D01*
X000367Y004999D01*
X000415Y005048D01*
X000512Y005294D02*
X000512Y005487D01*
X000221Y005487D01*
X000221Y005294D01*
X000367Y005391D02*
X000367Y005487D01*
X000367Y005588D02*
X000415Y005637D01*
X000415Y005782D01*
X000512Y005782D02*
X000221Y005782D01*
X000221Y005637D01*
X000270Y005588D01*
X000367Y005588D01*
X000415Y005883D02*
X000463Y005883D01*
X000512Y005931D01*
X000512Y006028D01*
X000463Y006077D01*
X000367Y006028D02*
X000367Y005931D01*
X000415Y005883D01*
X000270Y005883D02*
X000221Y005931D01*
X000221Y006028D01*
X000270Y006077D01*
X000318Y006077D01*
X000367Y006028D01*
X000367Y006178D02*
X000367Y006371D01*
X000318Y006371D02*
X000221Y006274D01*
X000318Y006178D01*
X000512Y006178D01*
X000512Y006371D02*
X000318Y006371D01*
X000270Y006472D02*
X000367Y006472D01*
X000415Y006521D01*
X000415Y006666D01*
X000512Y006666D02*
X000221Y006666D01*
X000221Y006521D01*
X000270Y006472D01*
X000415Y006569D02*
X000512Y006472D01*
X000512Y001559D02*
X000318Y001559D01*
X000857Y001344D02*
X000857Y001151D01*
X000953Y001248D02*
X000760Y001248D01*
X000415Y001070D02*
X000367Y001119D01*
X019511Y000832D02*
X019802Y000832D01*
X019802Y000928D02*
X019802Y000735D01*
X019802Y000634D02*
X019753Y000634D01*
X019753Y000585D01*
X019802Y000585D01*
X019802Y000634D01*
X019753Y000486D02*
X019560Y000293D01*
X019753Y000293D01*
X019802Y000341D01*
X019802Y000438D01*
X019753Y000486D01*
X019560Y000486D01*
X019511Y000438D01*
X019511Y000341D01*
X019560Y000293D01*
X019511Y000832D02*
X019608Y000928D01*
X019608Y001029D02*
X019802Y001126D01*
X019608Y001223D01*
D11*
X019541Y001602D02*
X019616Y001677D01*
X019616Y001827D01*
X019541Y001903D01*
X019466Y001903D01*
X019391Y001827D01*
X019391Y001677D01*
X019466Y001602D01*
X019541Y001602D01*
X019616Y001677D02*
X019692Y001602D01*
X019767Y001602D01*
X019842Y001677D01*
X019842Y001827D01*
X019767Y001903D01*
X019692Y001903D01*
X019616Y001827D01*
X019541Y002063D02*
X019616Y002138D01*
X019692Y002063D01*
X019767Y002063D01*
X019842Y002138D01*
X019842Y002288D01*
X019767Y002363D01*
X019466Y002363D02*
X019391Y002288D01*
X019391Y002138D01*
X019466Y002063D01*
X019541Y002063D01*
X019616Y002138D02*
X019616Y002213D01*
X020391Y002138D02*
X020616Y002363D01*
X020616Y002063D01*
X020391Y002138D02*
X020842Y002138D01*
X020767Y001903D02*
X020466Y001903D01*
X020391Y001827D01*
X020391Y001677D01*
X020466Y001602D01*
X020767Y001903D01*
X020842Y001827D01*
X020842Y001677D01*
X020767Y001602D01*
X020466Y001602D01*
X018842Y001677D02*
X018767Y001602D01*
X018692Y001602D01*
X018616Y001677D01*
X018616Y001903D01*
X018767Y001903D01*
X018842Y001827D01*
X018842Y001677D01*
X018616Y001903D02*
X018466Y001752D01*
X018391Y001602D01*
X017842Y001602D02*
X017391Y001602D01*
X017391Y001903D02*
X017842Y001602D01*
X017842Y001442D02*
X017391Y001442D01*
X017391Y001217D01*
X017466Y001142D01*
X017767Y001142D01*
X017842Y001217D01*
X017842Y001442D01*
X016842Y001602D02*
X016842Y001903D01*
X016541Y001602D01*
X016466Y001602D01*
X016391Y001677D01*
X016391Y001827D01*
X016466Y001903D01*
X016466Y002063D02*
X016541Y002063D01*
X016616Y002138D01*
X016692Y002063D01*
X016767Y002063D01*
X016842Y002138D01*
X016842Y002288D01*
X016767Y002363D01*
X016466Y002363D02*
X016391Y002288D01*
X016391Y002138D01*
X016466Y002063D01*
X016616Y002138D02*
X016616Y002213D01*
X015842Y002288D02*
X015842Y002138D01*
X015767Y002063D01*
X015616Y002063D01*
X015616Y002213D01*
X015466Y002363D02*
X015391Y002288D01*
X015391Y002138D01*
X015466Y002063D01*
X015391Y001903D02*
X015842Y001602D01*
X015391Y001602D01*
X015391Y001442D02*
X015391Y001217D01*
X015466Y001142D01*
X015767Y001142D01*
X015842Y001217D01*
X015842Y001442D01*
X015391Y001442D01*
X014842Y001521D02*
X014842Y001596D01*
X014767Y001596D01*
X014767Y001521D01*
X014842Y001521D01*
X014767Y001365D02*
X014842Y001290D01*
X014842Y001140D01*
X014767Y001065D01*
X014692Y001065D01*
X014616Y001140D01*
X014616Y001290D01*
X014541Y001365D01*
X014466Y001365D01*
X014391Y001290D01*
X014391Y001140D01*
X014466Y001065D01*
X014466Y000905D02*
X014767Y000905D01*
X014842Y000830D01*
X014842Y000680D01*
X014767Y000605D01*
X014466Y000605D02*
X014391Y000680D01*
X014391Y000830D01*
X014466Y000905D01*
X013767Y001602D02*
X013692Y001602D01*
X013616Y001677D01*
X013616Y001903D01*
X013767Y001903D01*
X013842Y001827D01*
X013842Y001677D01*
X013767Y001602D01*
X013466Y001752D02*
X013391Y001602D01*
X013466Y001752D02*
X013616Y001903D01*
X013541Y002063D02*
X013466Y002063D01*
X013391Y002138D01*
X013391Y002288D01*
X013466Y002363D01*
X013541Y002063D02*
X013842Y002363D01*
X013842Y002063D01*
X014391Y002056D02*
X014391Y001831D01*
X014466Y001756D01*
X014767Y001756D01*
X014842Y001831D01*
X014842Y002056D01*
X014391Y002056D01*
X014391Y002213D02*
X014391Y002363D01*
X014391Y002288D02*
X014842Y002288D01*
X014842Y002363D02*
X014842Y002213D01*
X015466Y002363D02*
X015767Y002363D01*
X015842Y002288D01*
X015842Y001903D02*
X015391Y001903D01*
X017391Y001903D02*
X017842Y001903D01*
X017767Y002063D02*
X017616Y002063D01*
X017616Y002213D01*
X017466Y002363D02*
X017391Y002288D01*
X017391Y002138D01*
X017466Y002063D01*
X017767Y002063D02*
X017842Y002138D01*
X017842Y002288D01*
X017767Y002363D01*
X017466Y002363D01*
X018391Y002288D02*
X018391Y002138D01*
X018466Y002063D01*
X018541Y002063D01*
X018616Y002138D01*
X018692Y002063D01*
X018767Y002063D01*
X018842Y002138D01*
X018842Y002288D01*
X018767Y002363D01*
X018466Y002363D02*
X018391Y002288D01*
X018616Y002213D02*
X018616Y002138D01*
X012842Y002063D02*
X012842Y002363D01*
X012541Y002063D01*
X012466Y002063D01*
X012391Y002138D01*
X012391Y002288D01*
X012466Y002363D01*
X011842Y002363D02*
X011541Y002063D01*
X011466Y002063D01*
X011391Y002138D01*
X011391Y002288D01*
X011466Y002363D01*
X011842Y002363D02*
X011842Y002063D01*
X011842Y001903D02*
X011541Y001602D01*
X011466Y001602D01*
X011391Y001677D01*
X011391Y001827D01*
X011466Y001903D01*
X011842Y001903D02*
X011842Y001602D01*
X012391Y001677D02*
X012616Y001903D01*
X012616Y001602D01*
X012391Y001677D02*
X012842Y001677D01*
X010842Y001602D02*
X010391Y001602D01*
X010391Y001903D02*
X010842Y001602D01*
X010842Y001442D02*
X010391Y001442D01*
X010391Y001217D01*
X010466Y001142D01*
X010767Y001142D01*
X010842Y001217D01*
X010842Y001442D01*
X009842Y001677D02*
X009842Y001827D01*
X009767Y001903D01*
X009692Y001903D01*
X009616Y001827D01*
X009616Y001677D01*
X009692Y001602D01*
X009767Y001602D01*
X009842Y001677D01*
X009616Y001677D02*
X009541Y001602D01*
X009466Y001602D01*
X009391Y001677D01*
X009391Y001827D01*
X009466Y001903D01*
X009541Y001903D01*
X009616Y001827D01*
X009842Y002063D02*
X009842Y002363D01*
X009842Y002213D02*
X009391Y002213D01*
X009541Y002363D01*
X008842Y002363D02*
X008842Y002063D01*
X008842Y002213D02*
X008391Y002213D01*
X008541Y002363D01*
X007842Y002288D02*
X007842Y002138D01*
X007767Y002063D01*
X007616Y002063D01*
X007616Y002213D01*
X007466Y002363D02*
X007391Y002288D01*
X007391Y002138D01*
X007466Y002063D01*
X007391Y001903D02*
X007842Y001602D01*
X007391Y001602D01*
X007391Y001442D02*
X007391Y001217D01*
X007466Y001142D01*
X007767Y001142D01*
X007842Y001217D01*
X007842Y001442D01*
X007391Y001442D01*
X006842Y001602D02*
X006842Y001903D01*
X006541Y001602D01*
X006466Y001602D01*
X006391Y001677D01*
X006391Y001827D01*
X006466Y001903D01*
X006842Y002063D02*
X006842Y002363D01*
X006541Y002363D02*
X006391Y002213D01*
X006842Y002213D01*
X007466Y002363D02*
X007767Y002363D01*
X007842Y002288D01*
X007842Y001903D02*
X007391Y001903D01*
X008391Y001602D02*
X008466Y001752D01*
X008616Y001903D01*
X008616Y001677D01*
X008692Y001602D01*
X008767Y001602D01*
X008842Y001677D01*
X008842Y001827D01*
X008767Y001903D01*
X008616Y001903D01*
X010391Y001903D02*
X010842Y001903D01*
X010767Y002063D02*
X010616Y002063D01*
X010616Y002213D01*
X010466Y002363D02*
X010391Y002288D01*
X010391Y002138D01*
X010466Y002063D01*
X010767Y002063D02*
X010842Y002138D01*
X010842Y002288D01*
X010767Y002363D01*
X010466Y002363D01*
X005842Y002363D02*
X005842Y002063D01*
X005842Y002213D02*
X005391Y002213D01*
X005541Y002363D01*
X004842Y002288D02*
X004842Y002138D01*
X004767Y002063D01*
X004692Y002063D01*
X004616Y002138D01*
X004616Y002288D01*
X004541Y002363D01*
X004466Y002363D01*
X004391Y002288D01*
X004391Y002138D01*
X004466Y002063D01*
X004541Y002063D01*
X004616Y002138D01*
X004616Y002288D02*
X004692Y002363D01*
X004767Y002363D01*
X004842Y002288D01*
X003842Y002288D02*
X003842Y002138D01*
X003767Y002063D01*
X003616Y002063D01*
X003616Y002213D01*
X003466Y002363D02*
X003391Y002288D01*
X003391Y002138D01*
X003466Y002063D01*
X003391Y001903D02*
X003842Y001602D01*
X003391Y001602D01*
X003391Y001442D02*
X003391Y001217D01*
X003466Y001142D01*
X003767Y001142D01*
X003842Y001217D01*
X003842Y001442D01*
X003391Y001442D01*
X002842Y001752D02*
X002692Y001602D01*
X002391Y001602D01*
X002692Y001903D02*
X002842Y001752D01*
X002692Y001903D02*
X002391Y001903D01*
X002391Y002063D02*
X002391Y002363D01*
X002616Y002363D01*
X002541Y002213D01*
X002541Y002138D01*
X002616Y002063D01*
X002767Y002063D01*
X002842Y002138D01*
X002842Y002288D01*
X002767Y002363D01*
X003466Y002363D02*
X003767Y002363D01*
X003842Y002288D01*
X003842Y001903D02*
X003391Y001903D01*
X001842Y001752D02*
X001692Y001602D01*
X001391Y001602D01*
X001692Y001903D02*
X001842Y001752D01*
X001692Y001903D02*
X001391Y001903D01*
X001391Y002063D02*
X001391Y002363D01*
X001616Y002363D01*
X001541Y002213D01*
X001541Y002138D01*
X001616Y002063D01*
X001767Y002063D01*
X001842Y002138D01*
X001842Y002288D01*
X001767Y002363D01*
X005391Y001827D02*
X005391Y001677D01*
X005466Y001602D01*
X005767Y001903D01*
X005842Y001827D01*
X005842Y001677D01*
X005767Y001602D01*
X005466Y001602D01*
X005391Y001827D02*
X005466Y001903D01*
X005767Y001903D01*
X006842Y004852D02*
X006842Y005153D01*
X006541Y005153D02*
X006391Y005002D01*
X006842Y005002D01*
X007391Y004927D02*
X007466Y004852D01*
X007541Y004852D01*
X007616Y004927D01*
X007692Y004852D01*
X007767Y004852D01*
X007842Y004927D01*
X007842Y005077D01*
X007767Y005153D01*
X007466Y005153D02*
X007391Y005077D01*
X007391Y004927D01*
X007616Y004927D02*
X007616Y005002D01*
X008391Y004852D02*
X008391Y005153D01*
X008616Y005153D01*
X008541Y005002D01*
X008541Y004927D01*
X008616Y004852D01*
X008767Y004852D01*
X008842Y004927D01*
X008842Y005077D01*
X008767Y005153D01*
X008842Y005313D02*
X008842Y005613D01*
X008541Y005613D02*
X008391Y005463D01*
X008842Y005463D01*
X009391Y005352D02*
X009692Y005352D01*
X009842Y005502D01*
X009692Y005653D01*
X009391Y005653D01*
X009466Y005813D02*
X009541Y005813D01*
X009616Y005888D01*
X009692Y005813D01*
X009767Y005813D01*
X009842Y005888D01*
X009842Y006038D01*
X009767Y006113D01*
X009466Y006113D02*
X009391Y006038D01*
X009391Y005888D01*
X009466Y005813D01*
X009616Y005888D02*
X009616Y005963D01*
X010391Y005463D02*
X010541Y005613D01*
X010842Y005613D02*
X010842Y005313D01*
X010842Y005463D02*
X010391Y005463D01*
X010466Y005153D02*
X010541Y005153D01*
X010616Y005077D01*
X010616Y004852D01*
X010466Y004852D02*
X010391Y004927D01*
X010391Y005077D01*
X010466Y005153D01*
X010767Y005153D02*
X010842Y005077D01*
X010842Y004927D01*
X010767Y004852D01*
X010466Y004852D01*
X009842Y004967D02*
X009842Y005117D01*
X009767Y005192D01*
X009466Y005192D02*
X009391Y005117D01*
X009391Y004967D01*
X009466Y004892D01*
X009541Y004892D01*
X009616Y004967D01*
X009692Y004892D01*
X009767Y004892D01*
X009842Y004967D01*
X009616Y004967D02*
X009616Y005042D01*
X011391Y005002D02*
X011842Y005002D01*
X011842Y004852D02*
X011842Y005153D01*
X011842Y005313D02*
X011842Y005613D01*
X011541Y005313D01*
X011466Y005313D01*
X011391Y005388D01*
X011391Y005538D01*
X011466Y005613D01*
X012391Y005538D02*
X012391Y005388D01*
X012466Y005313D01*
X012541Y005313D01*
X012842Y005613D01*
X012842Y005313D01*
X012767Y005153D02*
X012842Y005077D01*
X012842Y004927D01*
X012767Y004852D01*
X012692Y004852D01*
X012616Y004927D01*
X012616Y005002D01*
X012616Y004927D02*
X012541Y004852D01*
X012466Y004852D01*
X012391Y004927D01*
X012391Y005077D01*
X012466Y005153D01*
X013391Y005192D02*
X013391Y004967D01*
X013466Y004892D01*
X013767Y004892D01*
X013842Y004967D01*
X013842Y005192D01*
X013391Y005192D01*
X013391Y005352D02*
X013842Y005352D01*
X013391Y005653D01*
X013842Y005653D01*
X013767Y005813D02*
X013616Y005813D01*
X013616Y005963D01*
X013466Y006113D02*
X013391Y006038D01*
X013391Y005888D01*
X013466Y005813D01*
X013767Y005813D02*
X013842Y005888D01*
X013842Y006038D01*
X013767Y006113D01*
X013466Y006113D01*
X014391Y006081D02*
X014391Y006306D01*
X014842Y006306D01*
X014842Y006081D01*
X014767Y006006D01*
X014466Y006006D01*
X014391Y006081D01*
X014767Y005846D02*
X014767Y005771D01*
X014842Y005771D01*
X014842Y005846D01*
X014767Y005846D01*
X014767Y005615D02*
X014842Y005540D01*
X014842Y005390D01*
X014767Y005315D01*
X014692Y005315D01*
X014616Y005390D01*
X014616Y005540D01*
X014541Y005615D01*
X014466Y005615D01*
X014391Y005540D01*
X014391Y005390D01*
X014466Y005315D01*
X014391Y005155D02*
X014391Y004930D01*
X014466Y004855D01*
X014767Y004855D01*
X014842Y004930D01*
X014842Y005155D01*
X014391Y005155D01*
X015391Y005077D02*
X015391Y004927D01*
X015466Y004852D01*
X015767Y004852D01*
X015842Y004927D01*
X015842Y005077D01*
X015767Y005153D01*
X015616Y005077D02*
X015616Y004852D01*
X016391Y005002D02*
X016842Y005002D01*
X016842Y004852D02*
X016842Y005153D01*
X016541Y005153D02*
X016391Y005002D01*
X015616Y005077D02*
X015541Y005153D01*
X015466Y005153D01*
X015391Y005077D01*
X015466Y005313D02*
X015391Y005388D01*
X015391Y005538D01*
X015466Y005613D01*
X015541Y005313D02*
X015842Y005613D01*
X015842Y005313D01*
X015541Y005313D02*
X015466Y005313D01*
X016391Y005388D02*
X016466Y005313D01*
X016541Y005313D01*
X016616Y005388D01*
X016692Y005313D01*
X016767Y005313D01*
X016842Y005388D01*
X016842Y005538D01*
X016767Y005613D01*
X016466Y005613D02*
X016391Y005538D01*
X016391Y005388D01*
X016616Y005388D02*
X016616Y005463D01*
X017391Y005538D02*
X017391Y005388D01*
X017466Y005313D01*
X017541Y005313D01*
X017616Y005388D01*
X017692Y005313D01*
X017767Y005313D01*
X017842Y005388D01*
X017842Y005538D01*
X017767Y005613D01*
X017466Y005613D02*
X017391Y005538D01*
X017616Y005463D02*
X017616Y005388D01*
X017466Y005153D02*
X017391Y005077D01*
X017391Y004927D01*
X017466Y004852D01*
X017541Y004852D01*
X017616Y004927D01*
X017692Y004852D01*
X017767Y004852D01*
X017842Y004927D01*
X017842Y005077D01*
X017767Y005153D01*
X017616Y005002D02*
X017616Y004927D01*
X018391Y004852D02*
X018391Y005153D01*
X018616Y005153D01*
X018541Y005002D01*
X018541Y004927D01*
X018616Y004852D01*
X018767Y004852D01*
X018842Y004927D01*
X018842Y005077D01*
X018767Y005153D01*
X018767Y005313D02*
X018842Y005388D01*
X018842Y005538D01*
X018767Y005613D01*
X018466Y005613D02*
X018391Y005538D01*
X018391Y005388D01*
X018466Y005313D01*
X018541Y005313D01*
X018616Y005388D01*
X018692Y005313D01*
X018767Y005313D01*
X018616Y005388D02*
X018616Y005463D01*
X019391Y005538D02*
X019391Y005388D01*
X019466Y005313D01*
X019541Y005313D01*
X019616Y005388D01*
X019692Y005313D01*
X019767Y005313D01*
X019842Y005388D01*
X019842Y005538D01*
X019767Y005613D01*
X019466Y005613D02*
X019391Y005538D01*
X019616Y005463D02*
X019616Y005388D01*
X019767Y005153D02*
X019842Y005153D01*
X019767Y005153D02*
X019466Y004852D01*
X019391Y004852D01*
X019391Y005153D01*
X020391Y005192D02*
X020391Y004967D01*
X020466Y004892D01*
X020767Y004892D01*
X020842Y004967D01*
X020842Y005192D01*
X020391Y005192D01*
X020391Y005352D02*
X020842Y005352D01*
X020391Y005653D01*
X020842Y005653D01*
X020767Y005813D02*
X020616Y005813D01*
X020616Y005963D01*
X020466Y006113D02*
X020391Y006038D01*
X020391Y005888D01*
X020466Y005813D01*
X020767Y005813D02*
X020842Y005888D01*
X020842Y006038D01*
X020767Y006113D01*
X020466Y006113D01*
X014842Y006463D02*
X014842Y006613D01*
X014842Y006538D02*
X014391Y006538D01*
X014391Y006613D02*
X014391Y006463D01*
X012466Y005613D02*
X012391Y005538D01*
X011541Y005153D02*
X011391Y005002D01*
X007842Y005313D02*
X007842Y005613D01*
X007842Y005463D02*
X007391Y005463D01*
X007541Y005613D01*
X006842Y005613D02*
X006842Y005313D01*
X006842Y005463D02*
X006391Y005463D01*
X006541Y005613D01*
X005842Y005653D02*
X005391Y005653D01*
X005842Y005352D01*
X005391Y005352D01*
X005391Y005192D02*
X005391Y004967D01*
X005466Y004892D01*
X005767Y004892D01*
X005842Y004967D01*
X005842Y005192D01*
X005391Y005192D01*
X004842Y005363D02*
X004767Y005363D01*
X004466Y005063D01*
X004391Y005063D01*
X004391Y005363D01*
X003842Y005288D02*
X003767Y005363D01*
X003842Y005288D02*
X003842Y005138D01*
X003767Y005063D01*
X003616Y005063D01*
X003541Y005138D01*
X003541Y005213D01*
X003616Y005363D01*
X003391Y005363D01*
X003391Y005063D01*
X002842Y005138D02*
X002767Y005063D01*
X002692Y005063D01*
X002616Y005138D01*
X002616Y005213D01*
X002616Y005138D02*
X002541Y005063D01*
X002466Y005063D01*
X002391Y005138D01*
X002391Y005288D01*
X002466Y005363D01*
X002767Y005363D02*
X002842Y005288D01*
X002842Y005138D01*
X001842Y005117D02*
X001842Y004967D01*
X001767Y004892D01*
X001692Y004892D01*
X001616Y004967D01*
X001616Y005042D01*
X001616Y004967D02*
X001541Y004892D01*
X001466Y004892D01*
X001391Y004967D01*
X001391Y005117D01*
X001466Y005192D01*
X001767Y005192D02*
X001842Y005117D01*
X001692Y005352D02*
X001391Y005352D01*
X001692Y005352D02*
X001842Y005502D01*
X001692Y005653D01*
X001391Y005653D01*
X001466Y005813D02*
X001541Y005813D01*
X001616Y005888D01*
X001692Y005813D01*
X001767Y005813D01*
X001842Y005888D01*
X001842Y006038D01*
X001767Y006113D01*
X001466Y006113D02*
X001391Y006038D01*
X001391Y005888D01*
X001466Y005813D01*
X001616Y005888D02*
X001616Y005963D01*
X005391Y005888D02*
X005391Y006038D01*
X005466Y006113D01*
X005767Y006113D01*
X005842Y006038D01*
X005842Y005888D01*
X005767Y005813D01*
X005616Y005813D01*
X005616Y005963D01*
X005466Y005813D02*
X005391Y005888D01*
D12*
X021476Y005294D02*
X021596Y005294D01*
X021656Y005354D01*
X021536Y005480D02*
X021536Y005600D01*
X021536Y005540D02*
X021897Y005540D01*
X021897Y005600D02*
X021897Y005480D01*
X021717Y005728D02*
X021777Y005788D01*
X021777Y005968D01*
X021897Y005968D02*
X021536Y005968D01*
X021536Y005788D01*
X021596Y005728D01*
X021717Y005728D01*
X021656Y005170D02*
X021717Y005110D01*
X021717Y004990D01*
X021777Y004930D01*
X021837Y004930D01*
X021897Y004990D01*
X021897Y005110D01*
X021837Y005170D01*
X021656Y005170D02*
X021596Y005170D01*
X021536Y005110D01*
X021536Y004990D01*
X021596Y004930D01*
X021536Y004433D02*
X021837Y004433D01*
X021897Y004373D01*
X021897Y004253D01*
X021837Y004193D01*
X021536Y004193D01*
X021596Y004065D02*
X021656Y004065D01*
X021717Y004005D01*
X021717Y003885D01*
X021777Y003825D01*
X021837Y003825D01*
X021897Y003885D01*
X021897Y004005D01*
X021837Y004065D01*
X021596Y004065D02*
X021536Y004005D01*
X021536Y003885D01*
X021596Y003825D01*
X021536Y003697D02*
X021536Y003517D01*
X021596Y003456D01*
X021656Y003456D01*
X021717Y003517D01*
X021717Y003697D01*
X021897Y003697D02*
X021536Y003697D01*
X021897Y003697D02*
X021897Y003517D01*
X021837Y003456D01*
X021777Y003456D01*
X021717Y003517D01*
X021777Y002960D02*
X021777Y002780D01*
X021717Y002720D01*
X021596Y002720D01*
X021536Y002780D01*
X021536Y002960D01*
X021897Y002960D01*
X021837Y002592D02*
X021596Y002592D01*
X021536Y002532D01*
X021536Y002412D01*
X021596Y002352D01*
X021837Y002352D01*
X021897Y002412D01*
X021897Y002532D01*
X021837Y002592D01*
X021897Y002223D02*
X021536Y002223D01*
X021536Y002043D01*
X021596Y001983D01*
X021717Y001983D01*
X021777Y002043D01*
X021777Y002223D01*
X021777Y002103D02*
X021897Y001983D01*
X021536Y001855D02*
X021536Y001615D01*
X021536Y001735D02*
X021897Y001735D01*
X021837Y001487D02*
X021897Y001427D01*
X021897Y001307D01*
X021837Y001247D01*
X021777Y001247D01*
X021717Y001307D01*
X021717Y001427D01*
X021656Y001487D01*
X021596Y001487D01*
X021536Y001427D01*
X021536Y001307D01*
X021596Y001247D01*
D13*
X021617Y001038D02*
X021617Y000838D01*
X021217Y000838D01*
X021217Y000638D01*
X021617Y000638D01*
X021617Y000438D01*
X022017Y000738D01*
X021617Y001038D01*
X021617Y001024D02*
X021635Y001024D01*
X021617Y000926D02*
X021766Y000926D01*
X021897Y000827D02*
X021217Y000827D01*
X021217Y000729D02*
X022005Y000729D01*
X021873Y000630D02*
X021617Y000630D01*
X021617Y000532D02*
X021742Y000532D01*
X021617Y006138D02*
X022017Y006438D01*
X021617Y006738D01*
X021617Y006538D01*
X021217Y006538D01*
X021217Y006338D01*
X021617Y006338D01*
X021617Y006138D01*
X021617Y006146D02*
X021628Y006146D01*
X021617Y006245D02*
X021759Y006245D01*
X021891Y006343D02*
X021217Y006343D01*
X021217Y006442D02*
X022011Y006442D01*
X021880Y006540D02*
X021617Y006540D01*
X021617Y006639D02*
X021749Y006639D01*
X021617Y006737D02*
X021617Y006737D01*
D14*
X020867Y001138D02*
X019939Y001138D01*
X019939Y000362D01*
X020869Y000362D01*
X020869Y000636D01*
X020595Y000636D01*
X020571Y000586D01*
X020287Y000586D01*
X020247Y000634D01*
X020247Y000664D01*
X020129Y000664D01*
X020107Y000686D01*
X020107Y000812D01*
X020133Y000840D01*
X020225Y000840D01*
X020225Y000862D01*
X020247Y000862D01*
X020247Y000840D01*
X020247Y000666D01*
X020231Y000666D01*
X020231Y000866D01*
X020249Y000866D01*
X020289Y000914D01*
X020571Y000914D01*
X020597Y000864D01*
X020867Y000864D01*
X020867Y001138D01*
X020867Y001132D02*
X019939Y001132D01*
X019939Y001124D02*
X020867Y001124D01*
X020867Y001115D02*
X019939Y001115D01*
X019939Y001107D02*
X020867Y001107D01*
X020867Y001098D02*
X019939Y001098D01*
X019939Y001090D02*
X020867Y001090D01*
X020867Y001081D02*
X019939Y001081D01*
X019939Y001073D02*
X020867Y001073D01*
X020867Y001064D02*
X019939Y001064D01*
X019939Y001056D02*
X020867Y001056D01*
X020867Y001047D02*
X019939Y001047D01*
X019939Y001039D02*
X020867Y001039D01*
X020867Y001030D02*
X019939Y001030D01*
X019939Y001022D02*
X020867Y001022D01*
X020867Y001013D02*
X019939Y001013D01*
X019939Y001005D02*
X020867Y001005D01*
X020867Y000996D02*
X019939Y000996D01*
X019939Y000988D02*
X020867Y000988D01*
X020867Y000979D02*
X019939Y000979D01*
X019939Y000971D02*
X020867Y000971D01*
X020867Y000962D02*
X019939Y000962D01*
X019939Y000954D02*
X020867Y000954D01*
X020867Y000945D02*
X019939Y000945D01*
X019939Y000937D02*
X020867Y000937D01*
X020867Y000928D02*
X019939Y000928D01*
X019939Y000920D02*
X020867Y000920D01*
X020867Y000911D02*
X020572Y000911D01*
X020576Y000903D02*
X020867Y000903D01*
X020867Y000894D02*
X020581Y000894D01*
X020585Y000886D02*
X020867Y000886D01*
X020867Y000877D02*
X020590Y000877D01*
X020594Y000869D02*
X020867Y000869D01*
X020287Y000911D02*
X019939Y000911D01*
X019939Y000903D02*
X020280Y000903D01*
X020272Y000894D02*
X019939Y000894D01*
X019939Y000886D02*
X020265Y000886D01*
X020258Y000877D02*
X019939Y000877D01*
X019939Y000869D02*
X020251Y000869D01*
X020247Y000860D02*
X020231Y000860D01*
X020225Y000860D02*
X019939Y000860D01*
X019939Y000852D02*
X020225Y000852D01*
X020231Y000852D02*
X020247Y000852D01*
X020247Y000843D02*
X020231Y000843D01*
X020225Y000843D02*
X019939Y000843D01*
X019939Y000835D02*
X020128Y000835D01*
X020120Y000826D02*
X019939Y000826D01*
X019939Y000818D02*
X020112Y000818D01*
X020107Y000809D02*
X019939Y000809D01*
X019939Y000801D02*
X020107Y000801D01*
X020107Y000792D02*
X019939Y000792D01*
X019939Y000784D02*
X020107Y000784D01*
X020107Y000775D02*
X019939Y000775D01*
X019939Y000767D02*
X020107Y000767D01*
X020107Y000758D02*
X019939Y000758D01*
X019939Y000750D02*
X020107Y000750D01*
X020107Y000741D02*
X019939Y000741D01*
X019939Y000733D02*
X020107Y000733D01*
X020107Y000724D02*
X019939Y000724D01*
X019939Y000716D02*
X020107Y000716D01*
X020107Y000707D02*
X019939Y000707D01*
X019939Y000699D02*
X020107Y000699D01*
X020107Y000690D02*
X019939Y000690D01*
X019939Y000682D02*
X020111Y000682D01*
X020119Y000673D02*
X019939Y000673D01*
X019939Y000665D02*
X020128Y000665D01*
X020231Y000673D02*
X020247Y000673D01*
X020247Y000682D02*
X020231Y000682D01*
X020231Y000690D02*
X020247Y000690D01*
X020247Y000699D02*
X020231Y000699D01*
X020231Y000707D02*
X020247Y000707D01*
X020247Y000716D02*
X020231Y000716D01*
X020231Y000724D02*
X020247Y000724D01*
X020247Y000733D02*
X020231Y000733D01*
X020231Y000741D02*
X020247Y000741D01*
X020247Y000750D02*
X020231Y000750D01*
X020231Y000758D02*
X020247Y000758D01*
X020247Y000767D02*
X020231Y000767D01*
X020231Y000775D02*
X020247Y000775D01*
X020247Y000784D02*
X020231Y000784D01*
X020231Y000792D02*
X020247Y000792D01*
X020247Y000801D02*
X020231Y000801D01*
X020231Y000809D02*
X020247Y000809D01*
X020247Y000818D02*
X020231Y000818D01*
X020231Y000826D02*
X020247Y000826D01*
X020247Y000835D02*
X020231Y000835D01*
X020247Y000656D02*
X019939Y000656D01*
X019939Y000648D02*
X020247Y000648D01*
X020247Y000639D02*
X019939Y000639D01*
X019939Y000631D02*
X020249Y000631D01*
X020256Y000622D02*
X019939Y000622D01*
X019939Y000614D02*
X020263Y000614D01*
X020270Y000605D02*
X019939Y000605D01*
X019939Y000597D02*
X020277Y000597D01*
X020285Y000588D02*
X019939Y000588D01*
X019939Y000580D02*
X020869Y000580D01*
X020869Y000588D02*
X020572Y000588D01*
X020576Y000597D02*
X020869Y000597D01*
X020869Y000605D02*
X020580Y000605D01*
X020584Y000614D02*
X020869Y000614D01*
X020869Y000622D02*
X020588Y000622D01*
X020592Y000631D02*
X020869Y000631D01*
X020869Y000571D02*
X019939Y000571D01*
X019939Y000563D02*
X020869Y000563D01*
X020869Y000554D02*
X019939Y000554D01*
X019939Y000546D02*
X020869Y000546D01*
X020869Y000537D02*
X019939Y000537D01*
X019939Y000529D02*
X020869Y000529D01*
X020869Y000520D02*
X019939Y000520D01*
X019939Y000512D02*
X020869Y000512D01*
X020869Y000503D02*
X019939Y000503D01*
X019939Y000495D02*
X020869Y000495D01*
X020869Y000486D02*
X019939Y000486D01*
X019939Y000478D02*
X020869Y000478D01*
X020869Y000469D02*
X019939Y000469D01*
X019939Y000461D02*
X020869Y000461D01*
X020869Y000452D02*
X019939Y000452D01*
X019939Y000444D02*
X020869Y000444D01*
X020869Y000435D02*
X019939Y000435D01*
X019939Y000427D02*
X020869Y000427D01*
X020869Y000418D02*
X019939Y000418D01*
X019939Y000410D02*
X020869Y000410D01*
X020869Y000401D02*
X019939Y000401D01*
X019939Y000393D02*
X020869Y000393D01*
X020869Y000384D02*
X019939Y000384D01*
X019939Y000376D02*
X020869Y000376D01*
X020869Y000367D02*
X019939Y000367D01*
D15*
X021117Y002638D02*
X021117Y004638D01*
X001117Y004638D01*
X001117Y002638D01*
X021117Y002638D01*
M02*
