%
M48
M72
T01C0.0400
%
T01
X1617Y3138
X2617Y3138
X3617Y3138
X4617Y3138
X5617Y3138
X6617Y3138
X7617Y3138
X8617Y3138
X9617Y3138
X10617Y3138
X11617Y3138
X12617Y3138
X13617Y3138
X14617Y3138
X15617Y3138
X16617Y3138
X17617Y3138
X18617Y3138
X19617Y3138
X20617Y3138
X20617Y4138
X19617Y4138
X18617Y4138
X17617Y4138
X16617Y4138
X15617Y4138
X14617Y4138
X13617Y4138
X12617Y4138
X11617Y4138
X10617Y4138
X9617Y4138
X8617Y4138
X7617Y4138
X6617Y4138
X5617Y4138
X4617Y4138
X3617Y4138
X2617Y4138
X1617Y4138
M30
