G75*
%MOIN*%
%OFA0B0*%
%FSLAX24Y24*%
%IPPOS*%
%LPD*%
%AMOC8*
5,1,8,0,0,1.08239X$1,22.5*
%
%ADD10C,0.0050*%
%ADD11C,0.0030*%
%ADD12C,0.0040*%
%ADD13C,0.0100*%
%ADD14C,0.0080*%
%ADD15C,0.0010*%
D10*
X001466Y000932D02*
X001391Y001007D01*
X001391Y001157D01*
X001466Y001232D01*
X001541Y001232D01*
X001616Y001157D01*
X001692Y001232D01*
X001767Y001232D01*
X001842Y001157D01*
X001842Y001007D01*
X001767Y000932D01*
X001616Y001082D02*
X001616Y001157D01*
X002391Y001107D02*
X002466Y001032D01*
X002767Y001032D01*
X002842Y001107D01*
X002842Y001257D01*
X002767Y001332D01*
X002616Y001332D01*
X002616Y001182D01*
X002466Y001332D02*
X002391Y001257D01*
X002391Y001107D01*
X001842Y001542D02*
X001692Y001392D01*
X001391Y001392D01*
X001692Y001692D02*
X001842Y001542D01*
X001692Y001692D02*
X001391Y001692D01*
X001466Y001853D02*
X001391Y001928D01*
X001391Y002078D01*
X001466Y002153D01*
X001541Y002153D01*
X001616Y002078D01*
X001692Y002153D01*
X001767Y002153D01*
X001842Y002078D01*
X001842Y001928D01*
X001767Y001853D01*
X001616Y002003D02*
X001616Y002078D01*
X002391Y002028D02*
X002466Y001953D01*
X002391Y002028D02*
X002391Y002178D01*
X002466Y002253D01*
X002541Y002253D01*
X002842Y001953D01*
X002842Y002253D01*
X003391Y002178D02*
X003466Y002253D01*
X003541Y002253D01*
X003616Y002178D01*
X003692Y002253D01*
X003767Y002253D01*
X003842Y002178D01*
X003842Y002028D01*
X003767Y001953D01*
X003466Y001953D02*
X003391Y002028D01*
X003391Y002178D01*
X003616Y002178D02*
X003616Y002103D01*
X004391Y002178D02*
X004616Y001953D01*
X004616Y002253D01*
X004391Y002178D02*
X004842Y002178D01*
X005391Y002178D02*
X005391Y001953D01*
X005842Y001953D01*
X005842Y002178D01*
X005767Y002253D01*
X005466Y002253D01*
X005391Y002178D01*
X006391Y002253D02*
X006391Y001953D01*
X006466Y002253D02*
X006767Y001953D01*
X006842Y001953D01*
X006842Y001792D02*
X006842Y001492D01*
X006541Y001492D02*
X006391Y001642D01*
X006842Y001642D01*
X007391Y001567D02*
X007466Y001492D01*
X007391Y001567D02*
X007391Y001717D01*
X007466Y001792D01*
X007541Y001792D01*
X007842Y001492D01*
X007842Y001792D01*
X007842Y001953D02*
X007767Y001953D01*
X007466Y002253D01*
X007391Y002253D01*
X007391Y001953D01*
X008391Y002028D02*
X008391Y002178D01*
X008466Y002253D01*
X008541Y002253D01*
X008842Y001953D01*
X008842Y002253D01*
X009391Y002178D02*
X009466Y002253D01*
X009541Y002253D01*
X009616Y002178D01*
X009692Y002253D01*
X009767Y002253D01*
X009842Y002178D01*
X009842Y002028D01*
X009767Y001953D01*
X009466Y001953D02*
X009391Y002028D01*
X009391Y002178D01*
X009616Y002178D02*
X009616Y002103D01*
X010391Y002028D02*
X010391Y002178D01*
X010466Y002253D01*
X010767Y001953D01*
X010842Y002028D01*
X010842Y002178D01*
X010767Y002253D01*
X010466Y002253D01*
X010391Y002028D02*
X010466Y001953D01*
X010767Y001953D01*
X010842Y001792D02*
X010842Y001492D01*
X010541Y001492D02*
X010391Y001642D01*
X010842Y001642D01*
X011391Y001717D02*
X011391Y001492D01*
X011842Y001492D01*
X011692Y001492D02*
X011692Y001717D01*
X011616Y001792D01*
X011466Y001792D01*
X011391Y001717D01*
X011466Y001953D02*
X011541Y001953D01*
X011616Y002028D01*
X011616Y002253D01*
X011466Y002253D02*
X011767Y002253D01*
X011842Y002178D01*
X011842Y002028D01*
X011767Y001953D01*
X011466Y001953D02*
X011391Y002028D01*
X011391Y002178D01*
X011466Y002253D01*
X012391Y002103D02*
X012842Y002103D01*
X012842Y001953D02*
X012842Y002253D01*
X012541Y001953D02*
X012391Y002103D01*
X012842Y001792D02*
X012842Y001492D01*
X012541Y001492D02*
X012391Y001642D01*
X012842Y001642D01*
X013391Y001492D02*
X013842Y001792D01*
X013391Y001792D01*
X013391Y001953D02*
X013391Y002178D01*
X013466Y002253D01*
X013767Y002253D01*
X013842Y002178D01*
X013842Y001953D01*
X013391Y001953D01*
X014391Y001953D02*
X014391Y002178D01*
X014466Y002253D01*
X014767Y002253D01*
X014842Y002178D01*
X014842Y001953D01*
X014391Y001953D01*
X014466Y001792D02*
X014391Y001717D01*
X014391Y001567D01*
X014466Y001492D01*
X014541Y001492D01*
X014616Y001567D01*
X014616Y001717D01*
X014692Y001792D01*
X014767Y001792D01*
X014842Y001717D01*
X014842Y001567D01*
X014767Y001492D01*
X014767Y001337D02*
X014842Y001337D01*
X014842Y001262D01*
X014767Y001262D01*
X014767Y001337D01*
X014767Y001102D02*
X014466Y001102D01*
X014391Y001027D01*
X014391Y000802D01*
X014842Y000802D01*
X014842Y001027D01*
X014767Y001102D01*
X015391Y001107D02*
X015466Y001032D01*
X015767Y001032D01*
X015842Y001107D01*
X015842Y001257D01*
X015767Y001332D01*
X015616Y001332D01*
X015616Y001182D01*
X015466Y001332D02*
X015391Y001257D01*
X015391Y001107D01*
X016391Y001107D02*
X016466Y001032D01*
X016767Y001032D01*
X016842Y001107D01*
X016842Y001257D01*
X016767Y001332D01*
X016616Y001332D01*
X016616Y001182D01*
X016466Y001332D02*
X016391Y001257D01*
X016391Y001107D01*
X016391Y001492D02*
X016391Y001717D01*
X016466Y001792D01*
X016616Y001792D01*
X016692Y001717D01*
X016692Y001492D01*
X016842Y001492D02*
X016391Y001492D01*
X015842Y001492D02*
X015391Y001492D01*
X015391Y001717D01*
X015466Y001792D01*
X015616Y001792D01*
X015692Y001717D01*
X015692Y001492D01*
X015767Y001953D02*
X015842Y002028D01*
X015842Y002178D01*
X015767Y002253D01*
X015616Y002253D01*
X015541Y002178D01*
X015541Y002103D01*
X015616Y001953D01*
X015391Y001953D01*
X015391Y002253D01*
X016391Y002253D02*
X016466Y002103D01*
X016616Y001953D01*
X016616Y002178D01*
X016692Y002253D01*
X016767Y002253D01*
X016842Y002178D01*
X016842Y002028D01*
X016767Y001953D01*
X016616Y001953D01*
X017391Y002028D02*
X017391Y002178D01*
X017466Y002253D01*
X017541Y002253D01*
X017616Y002178D01*
X017692Y002253D01*
X017767Y002253D01*
X017842Y002178D01*
X017842Y002028D01*
X017767Y001953D01*
X017466Y001953D02*
X017391Y002028D01*
X017616Y002103D02*
X017616Y002178D01*
X018391Y002178D02*
X018391Y002028D01*
X018466Y001953D01*
X018541Y001953D01*
X018616Y002028D01*
X018616Y002253D01*
X018466Y002253D02*
X018391Y002178D01*
X018466Y002253D02*
X018767Y002253D01*
X018842Y002178D01*
X018842Y002028D01*
X018767Y001953D01*
X018842Y001792D02*
X018842Y001492D01*
X018541Y001492D02*
X018391Y001642D01*
X018842Y001642D01*
X019391Y001567D02*
X019466Y001492D01*
X019391Y001567D02*
X019391Y001717D01*
X019466Y001792D01*
X019541Y001792D01*
X019842Y001492D01*
X019842Y001792D01*
X019767Y001953D02*
X019842Y002028D01*
X019842Y002178D01*
X019767Y002253D01*
X019692Y002253D01*
X019616Y002178D01*
X019616Y001953D01*
X019767Y001953D01*
X019616Y001953D02*
X019466Y002103D01*
X019391Y002253D01*
X020391Y002178D02*
X020391Y001953D01*
X020842Y001953D01*
X020842Y002178D01*
X020767Y002253D01*
X020466Y002253D01*
X020391Y002178D01*
X020391Y001792D02*
X020842Y001792D01*
X020391Y001492D01*
X020842Y001492D01*
X020767Y001332D02*
X020616Y001332D01*
X020616Y001182D01*
X020466Y001332D02*
X020391Y001257D01*
X020391Y001107D01*
X020466Y001032D01*
X020767Y001032D01*
X020842Y001107D01*
X020842Y001257D01*
X020767Y001332D01*
X019842Y001032D02*
X019391Y001032D01*
X019391Y001257D01*
X019466Y001332D01*
X019616Y001332D01*
X019692Y001257D01*
X019692Y001032D01*
X019767Y000872D02*
X019616Y000872D01*
X019616Y000722D01*
X019466Y000872D02*
X019391Y000797D01*
X019391Y000646D01*
X019466Y000571D01*
X019767Y000571D01*
X019842Y000646D01*
X019842Y000797D01*
X019767Y000872D01*
X018842Y000797D02*
X018842Y000646D01*
X018767Y000571D01*
X018466Y000571D01*
X018391Y000646D01*
X018391Y000797D01*
X018466Y000872D01*
X018616Y000872D02*
X018616Y000722D01*
X018767Y000872D02*
X018842Y000797D01*
X018767Y000872D02*
X018616Y000872D01*
X018692Y001032D02*
X018692Y001257D01*
X018616Y001332D01*
X018466Y001332D01*
X018391Y001257D01*
X018391Y001032D01*
X018842Y001032D01*
X017842Y001032D02*
X017391Y001032D01*
X017391Y001257D01*
X017466Y001332D01*
X017616Y001332D01*
X017692Y001257D01*
X017692Y001032D01*
X017767Y000872D02*
X017616Y000872D01*
X017616Y000722D01*
X017466Y000872D02*
X017391Y000797D01*
X017391Y000646D01*
X017466Y000571D01*
X017767Y000571D01*
X017842Y000646D01*
X017842Y000797D01*
X017767Y000872D01*
X017842Y001492D02*
X017842Y001792D01*
X017842Y001642D02*
X017391Y001642D01*
X017541Y001492D01*
X014842Y000645D02*
X014842Y000495D01*
X014842Y000570D02*
X014391Y000570D01*
X014391Y000495D02*
X014391Y000645D01*
X013842Y001107D02*
X013767Y001032D01*
X013466Y001032D01*
X013391Y001107D01*
X013391Y001257D01*
X013466Y001332D01*
X013616Y001332D02*
X013616Y001182D01*
X013767Y001332D02*
X013842Y001257D01*
X013842Y001107D01*
X013767Y001332D02*
X013616Y001332D01*
X013842Y001492D02*
X013391Y001492D01*
X012692Y001257D02*
X012692Y001032D01*
X012842Y001032D02*
X012391Y001032D01*
X012391Y001257D01*
X012466Y001332D01*
X012616Y001332D01*
X012692Y001257D01*
X011842Y001257D02*
X011842Y001107D01*
X011767Y001032D01*
X011466Y001032D01*
X011391Y001107D01*
X011391Y001257D01*
X011466Y001332D01*
X011616Y001332D02*
X011616Y001182D01*
X011767Y001332D02*
X011842Y001257D01*
X011767Y001332D02*
X011616Y001332D01*
X010842Y001032D02*
X010391Y001032D01*
X010391Y001257D01*
X010466Y001332D01*
X010616Y001332D01*
X010692Y001257D01*
X010692Y001032D01*
X010767Y000872D02*
X010616Y000872D01*
X010616Y000722D01*
X010466Y000872D02*
X010391Y000797D01*
X010391Y000646D01*
X010466Y000571D01*
X010767Y000571D01*
X010842Y000646D01*
X010842Y000797D01*
X010767Y000872D01*
X009842Y001107D02*
X009767Y001032D01*
X009842Y001107D02*
X009842Y001257D01*
X009767Y001332D01*
X009692Y001332D01*
X009616Y001257D01*
X009616Y001182D01*
X009616Y001257D02*
X009541Y001332D01*
X009466Y001332D01*
X009391Y001257D01*
X009391Y001107D01*
X009466Y001032D01*
X008842Y001032D02*
X008391Y001032D01*
X008391Y001257D01*
X008466Y001332D01*
X008616Y001332D01*
X008692Y001257D01*
X008692Y001032D01*
X008767Y000872D02*
X008616Y000872D01*
X008616Y000722D01*
X008466Y000872D02*
X008391Y000797D01*
X008391Y000646D01*
X008466Y000571D01*
X008767Y000571D01*
X008842Y000646D01*
X008842Y000797D01*
X008767Y000872D01*
X007842Y000797D02*
X007842Y000646D01*
X007767Y000571D01*
X007466Y000571D01*
X007391Y000646D01*
X007391Y000797D01*
X007466Y000872D01*
X007616Y000872D02*
X007616Y000722D01*
X007767Y000872D02*
X007842Y000797D01*
X007767Y000872D02*
X007616Y000872D01*
X007692Y001032D02*
X007692Y001257D01*
X007616Y001332D01*
X007466Y001332D01*
X007391Y001257D01*
X007391Y001032D01*
X007842Y001032D01*
X006842Y001032D02*
X006391Y001032D01*
X006391Y001257D01*
X006466Y001332D01*
X006616Y001332D01*
X006692Y001257D01*
X006692Y001032D01*
X006767Y000872D02*
X006616Y000872D01*
X006616Y000722D01*
X006466Y000872D02*
X006391Y000797D01*
X006391Y000646D01*
X006466Y000571D01*
X006767Y000571D01*
X006842Y000646D01*
X006842Y000797D01*
X006767Y000872D01*
X005842Y001107D02*
X005842Y001257D01*
X005767Y001332D01*
X005616Y001332D01*
X005616Y001182D01*
X005466Y001332D02*
X005391Y001257D01*
X005391Y001107D01*
X005466Y001032D01*
X005767Y001032D01*
X005842Y001107D01*
X005842Y001492D02*
X005391Y001492D01*
X005842Y001792D01*
X005391Y001792D01*
X004692Y001717D02*
X004692Y001492D01*
X004842Y001492D02*
X004391Y001492D01*
X004391Y001717D01*
X004466Y001792D01*
X004616Y001792D01*
X004692Y001717D01*
X003842Y001492D02*
X003391Y001492D01*
X003391Y001717D01*
X003466Y001792D01*
X003616Y001792D01*
X003692Y001717D01*
X003692Y001492D01*
X003767Y001332D02*
X003616Y001332D01*
X003616Y001182D01*
X003466Y001332D02*
X003391Y001257D01*
X003391Y001107D01*
X003466Y001032D01*
X003767Y001032D01*
X003842Y001107D01*
X003842Y001257D01*
X003767Y001332D01*
X004391Y001257D02*
X004391Y001107D01*
X004466Y001032D01*
X004767Y001032D01*
X004842Y001107D01*
X004842Y001257D01*
X004767Y001332D01*
X004616Y001332D01*
X004616Y001182D01*
X004466Y001332D02*
X004391Y001257D01*
X002842Y001492D02*
X002391Y001492D01*
X002391Y001717D01*
X002466Y001792D01*
X002616Y001792D01*
X002692Y001717D01*
X002692Y001492D01*
X006391Y002253D02*
X006466Y002253D01*
X008391Y002028D02*
X008466Y001953D01*
X008466Y001792D02*
X008391Y001717D01*
X008391Y001567D01*
X008466Y001492D01*
X008541Y001792D02*
X008842Y001492D01*
X008842Y001792D01*
X008541Y001792D02*
X008466Y001792D01*
X009391Y001792D02*
X009692Y001792D01*
X009842Y001642D01*
X009692Y001492D01*
X009391Y001492D01*
X012391Y000797D02*
X012391Y000646D01*
X012466Y000571D01*
X012767Y000571D01*
X012842Y000646D01*
X012842Y000797D01*
X012767Y000872D01*
X012616Y000872D01*
X012616Y000722D01*
X012466Y000872D02*
X012391Y000797D01*
X012466Y004913D02*
X012767Y004913D01*
X012842Y004988D01*
X012842Y005138D01*
X012767Y005213D01*
X012616Y005213D01*
X012616Y005063D01*
X012466Y004913D02*
X012391Y004988D01*
X012391Y005138D01*
X012466Y005213D01*
X012391Y005373D02*
X012391Y005599D01*
X012466Y005674D01*
X012616Y005674D01*
X012692Y005599D01*
X012692Y005373D01*
X012842Y005373D02*
X012391Y005373D01*
X011842Y005373D02*
X011391Y005373D01*
X011391Y005599D01*
X011466Y005674D01*
X011616Y005674D01*
X011692Y005599D01*
X011692Y005373D01*
X011767Y005213D02*
X011616Y005213D01*
X011616Y005063D01*
X011466Y004913D02*
X011391Y004988D01*
X011391Y005138D01*
X011466Y005213D01*
X011767Y005213D02*
X011842Y005138D01*
X011842Y004988D01*
X011767Y004913D01*
X011466Y004913D01*
X010842Y004988D02*
X010842Y005138D01*
X010767Y005213D01*
X010616Y005213D01*
X010616Y005063D01*
X010466Y004913D02*
X010391Y004988D01*
X010391Y005138D01*
X010466Y005213D01*
X010391Y005373D02*
X010842Y005674D01*
X010391Y005674D01*
X010391Y005834D02*
X010391Y006059D01*
X010466Y006134D01*
X010767Y006134D01*
X010842Y006059D01*
X010842Y005834D01*
X010391Y005834D01*
X009842Y005834D02*
X009541Y006134D01*
X009466Y006134D01*
X009391Y006059D01*
X009391Y005909D01*
X009466Y005834D01*
X009466Y005674D02*
X009616Y005674D01*
X009692Y005599D01*
X009692Y005373D01*
X009842Y005373D02*
X009391Y005373D01*
X009391Y005599D01*
X009466Y005674D01*
X009842Y005834D02*
X009842Y006134D01*
X009616Y006294D02*
X009616Y006594D01*
X009391Y006519D02*
X009616Y006294D01*
X009842Y006519D02*
X009391Y006519D01*
X008842Y006519D02*
X008842Y006369D01*
X008767Y006294D01*
X008466Y006294D02*
X008391Y006369D01*
X008391Y006519D01*
X008466Y006594D01*
X008541Y006594D01*
X008616Y006519D01*
X008692Y006594D01*
X008767Y006594D01*
X008842Y006519D01*
X008616Y006519D02*
X008616Y006444D01*
X008541Y006134D02*
X008466Y006134D01*
X008391Y006059D01*
X008391Y005909D01*
X008466Y005834D01*
X008541Y006134D02*
X008842Y005834D01*
X008842Y006134D01*
X007842Y006059D02*
X007842Y005834D01*
X007391Y005834D01*
X007391Y006059D01*
X007466Y006134D01*
X007767Y006134D01*
X007842Y006059D01*
X007842Y005674D02*
X007391Y005674D01*
X007391Y005373D02*
X007842Y005674D01*
X008391Y005599D02*
X008466Y005674D01*
X008616Y005674D01*
X008692Y005599D01*
X008692Y005373D01*
X008842Y005373D02*
X008391Y005373D01*
X008391Y005599D01*
X007842Y005373D02*
X007391Y005373D01*
X007466Y005213D02*
X007391Y005138D01*
X007391Y004988D01*
X007466Y004913D01*
X007767Y004913D01*
X007842Y004988D01*
X007842Y005138D01*
X007767Y005213D01*
X007616Y005213D01*
X007616Y005063D01*
X008391Y004988D02*
X008466Y004913D01*
X008767Y004913D01*
X008842Y004988D01*
X008842Y005138D01*
X008767Y005213D01*
X008616Y005213D01*
X008616Y005063D01*
X008466Y005213D02*
X008391Y005138D01*
X008391Y004988D01*
X009391Y004988D02*
X009466Y004913D01*
X009767Y004913D01*
X009842Y004988D01*
X009842Y005138D01*
X009767Y005213D01*
X009616Y005213D01*
X009616Y005063D01*
X009466Y005213D02*
X009391Y005138D01*
X009391Y004988D01*
X010466Y004913D02*
X010767Y004913D01*
X010842Y004988D01*
X010842Y005373D02*
X010391Y005373D01*
X011391Y005909D02*
X011466Y005834D01*
X011391Y005909D02*
X011391Y006059D01*
X011466Y006134D01*
X011541Y006134D01*
X011842Y005834D01*
X011842Y006134D01*
X011767Y006294D02*
X011842Y006369D01*
X011842Y006519D01*
X011767Y006594D01*
X011616Y006594D01*
X011541Y006519D01*
X011541Y006444D01*
X011616Y006294D01*
X011391Y006294D01*
X011391Y006594D01*
X012391Y006059D02*
X012466Y006134D01*
X012541Y006134D01*
X012616Y006059D01*
X012616Y005909D01*
X012541Y005834D01*
X012466Y005834D01*
X012391Y005909D01*
X012391Y006059D01*
X012616Y006059D02*
X012692Y006134D01*
X012767Y006134D01*
X012842Y006059D01*
X012842Y005909D01*
X012767Y005834D01*
X012692Y005834D01*
X012616Y005909D01*
X013391Y005834D02*
X013391Y006134D01*
X013466Y006134D01*
X013767Y005834D01*
X013842Y005834D01*
X013616Y005674D02*
X013466Y005674D01*
X013391Y005599D01*
X013391Y005373D01*
X013842Y005373D01*
X013692Y005373D02*
X013692Y005599D01*
X013616Y005674D01*
X014391Y005445D02*
X014391Y005220D01*
X014842Y005220D01*
X014842Y005445D01*
X014767Y005520D01*
X014466Y005520D01*
X014391Y005445D01*
X014767Y005680D02*
X014767Y005755D01*
X014842Y005755D01*
X014842Y005680D01*
X014767Y005680D01*
X014767Y005910D02*
X014842Y005986D01*
X014842Y006136D01*
X014767Y006211D01*
X014692Y006211D01*
X014616Y006136D01*
X014616Y005986D01*
X014541Y005910D01*
X014466Y005910D01*
X014391Y005986D01*
X014391Y006136D01*
X014466Y006211D01*
X014466Y006371D02*
X014767Y006371D01*
X014842Y006446D01*
X014842Y006596D01*
X014767Y006671D01*
X014466Y006671D02*
X014391Y006596D01*
X014391Y006446D01*
X014466Y006371D01*
X015391Y006059D02*
X015391Y005834D01*
X015842Y005834D01*
X015842Y006059D01*
X015767Y006134D01*
X015466Y006134D01*
X015391Y006059D01*
X016391Y005984D02*
X016842Y005984D01*
X016842Y005834D02*
X016842Y006134D01*
X016842Y006294D02*
X016541Y006594D01*
X016466Y006594D01*
X016391Y006519D01*
X016391Y006369D01*
X016466Y006294D01*
X016842Y006294D02*
X016842Y006594D01*
X017391Y006059D02*
X017466Y006134D01*
X017767Y006134D01*
X017842Y006059D01*
X017842Y005834D01*
X017391Y005834D01*
X017391Y006059D01*
X016541Y005834D02*
X016391Y005984D01*
X016466Y005674D02*
X016616Y005674D01*
X016692Y005599D01*
X016692Y005373D01*
X016842Y005373D02*
X016391Y005373D01*
X016391Y005599D01*
X016466Y005674D01*
X015842Y005674D02*
X015391Y005674D01*
X015391Y005373D02*
X015842Y005674D01*
X015842Y005373D02*
X015391Y005373D01*
X015466Y005213D02*
X015391Y005138D01*
X015391Y004988D01*
X015466Y004913D01*
X015767Y004913D01*
X015842Y004988D01*
X015842Y005138D01*
X015767Y005213D01*
X015616Y005213D01*
X015616Y005063D01*
X016391Y004988D02*
X016466Y004913D01*
X016767Y004913D01*
X016842Y004988D01*
X016842Y005138D01*
X016767Y005213D01*
X016616Y005213D01*
X016616Y005063D01*
X016466Y005213D02*
X016391Y005138D01*
X016391Y004988D01*
X017391Y004988D02*
X017466Y004913D01*
X017767Y004913D01*
X017842Y004988D01*
X017842Y005138D01*
X017767Y005213D01*
X017616Y005213D01*
X017616Y005063D01*
X017466Y005213D02*
X017391Y005138D01*
X017391Y004988D01*
X018391Y004988D02*
X018466Y004913D01*
X018767Y004913D01*
X018842Y004988D01*
X018842Y005138D01*
X018767Y005213D01*
X018616Y005213D01*
X018616Y005063D01*
X018466Y005213D02*
X018391Y005138D01*
X018391Y004988D01*
X019391Y004988D02*
X019466Y004913D01*
X019767Y004913D01*
X019842Y004988D01*
X019842Y005138D01*
X019767Y005213D01*
X019616Y005213D01*
X019616Y005063D01*
X019466Y005213D02*
X019391Y005138D01*
X019391Y004988D01*
X020391Y004988D02*
X020466Y004913D01*
X020767Y004913D01*
X020842Y004988D01*
X020842Y005138D01*
X020767Y005213D01*
X020616Y005213D01*
X020616Y005063D01*
X020466Y005213D02*
X020391Y005138D01*
X020391Y004988D01*
X020391Y005373D02*
X020391Y005599D01*
X020466Y005674D01*
X020616Y005674D01*
X020692Y005599D01*
X020692Y005373D01*
X020842Y005373D02*
X020391Y005373D01*
X019842Y005373D02*
X019391Y005373D01*
X019391Y005599D01*
X019466Y005674D01*
X019616Y005674D01*
X019692Y005599D01*
X019692Y005373D01*
X018842Y005373D02*
X018391Y005373D01*
X018391Y005599D01*
X018466Y005674D01*
X018616Y005674D01*
X018692Y005599D01*
X018692Y005373D01*
X017842Y005373D02*
X017391Y005373D01*
X017842Y005674D01*
X017391Y005674D01*
X018391Y005984D02*
X018842Y005984D01*
X018842Y005834D02*
X018842Y006134D01*
X018767Y006294D02*
X018616Y006294D01*
X018616Y006519D01*
X018692Y006594D01*
X018767Y006594D01*
X018842Y006519D01*
X018842Y006369D01*
X018767Y006294D01*
X018616Y006294D02*
X018466Y006444D01*
X018391Y006594D01*
X019391Y006519D02*
X019391Y006369D01*
X019466Y006294D01*
X019767Y006294D01*
X019466Y006594D01*
X019767Y006594D01*
X019842Y006519D01*
X019842Y006369D01*
X019767Y006294D01*
X019842Y006134D02*
X019842Y005834D01*
X019541Y006134D01*
X019466Y006134D01*
X019391Y006059D01*
X019391Y005909D01*
X019466Y005834D01*
X018541Y005834D02*
X018391Y005984D01*
X019391Y006519D02*
X019466Y006594D01*
X020391Y006444D02*
X020842Y006444D01*
X020842Y006294D02*
X020842Y006594D01*
X020541Y006294D02*
X020391Y006444D01*
X020466Y006134D02*
X020391Y006059D01*
X020391Y005909D01*
X020466Y005834D01*
X020541Y006134D02*
X020842Y005834D01*
X020842Y006134D01*
X020541Y006134D02*
X020466Y006134D01*
X014842Y005063D02*
X014842Y004913D01*
X014842Y004988D02*
X014391Y004988D01*
X014391Y004913D02*
X014391Y005063D01*
X013842Y004988D02*
X013842Y005138D01*
X013767Y005213D01*
X013616Y005213D01*
X013616Y005063D01*
X013466Y004913D02*
X013391Y004988D01*
X013391Y005138D01*
X013466Y005213D01*
X013767Y004913D02*
X013842Y004988D01*
X013767Y004913D02*
X013466Y004913D01*
X006842Y004988D02*
X006767Y004913D01*
X006466Y004913D01*
X006391Y004988D01*
X006391Y005138D01*
X006466Y005213D01*
X006616Y005213D02*
X006616Y005063D01*
X006767Y005213D02*
X006842Y005138D01*
X006842Y004988D01*
X006767Y005213D02*
X006616Y005213D01*
X006692Y005373D02*
X006692Y005599D01*
X006616Y005674D01*
X006466Y005674D01*
X006391Y005599D01*
X006391Y005373D01*
X006842Y005373D01*
X005842Y005373D02*
X005391Y005373D01*
X005391Y005599D01*
X005466Y005674D01*
X005616Y005674D01*
X005692Y005599D01*
X005692Y005373D01*
X005767Y005213D02*
X005616Y005213D01*
X005616Y005063D01*
X005466Y004913D02*
X005391Y004988D01*
X005391Y005138D01*
X005466Y005213D01*
X005767Y005213D02*
X005842Y005138D01*
X005842Y004988D01*
X005767Y004913D01*
X005466Y004913D01*
X004842Y004988D02*
X004842Y005138D01*
X004767Y005213D01*
X004616Y005213D01*
X004616Y005063D01*
X004466Y004913D02*
X004391Y004988D01*
X004391Y005138D01*
X004466Y005213D01*
X004391Y005373D02*
X004391Y005599D01*
X004466Y005674D01*
X004616Y005674D01*
X004692Y005599D01*
X004692Y005373D01*
X004842Y005373D02*
X004391Y005373D01*
X003842Y005373D02*
X003391Y005373D01*
X003842Y005674D01*
X003391Y005674D01*
X003391Y005834D02*
X003391Y006059D01*
X003466Y006134D01*
X003767Y006134D01*
X003842Y006059D01*
X003842Y005834D01*
X003391Y005834D01*
X002842Y005523D02*
X002692Y005674D01*
X002391Y005674D01*
X002692Y005373D02*
X002842Y005523D01*
X002692Y005373D02*
X002391Y005373D01*
X001842Y005523D02*
X001692Y005674D01*
X001391Y005674D01*
X001692Y005373D02*
X001842Y005523D01*
X001692Y005373D02*
X001391Y005373D01*
X001391Y005213D02*
X001391Y004913D01*
X001616Y004913D01*
X001541Y005063D01*
X001541Y005138D01*
X001616Y005213D01*
X001767Y005213D01*
X001842Y005138D01*
X001842Y004988D01*
X001767Y004913D01*
X002391Y004913D02*
X002616Y004913D01*
X002541Y005063D01*
X002541Y005138D01*
X002616Y005213D01*
X002767Y005213D01*
X002842Y005138D01*
X002842Y004988D01*
X002767Y004913D01*
X002391Y004913D02*
X002391Y005213D01*
X003391Y005138D02*
X003391Y004988D01*
X003466Y004913D01*
X003767Y004913D01*
X003842Y004988D01*
X003842Y005138D01*
X003767Y005213D01*
X003616Y005213D01*
X003616Y005063D01*
X003466Y005213D02*
X003391Y005138D01*
X004466Y004913D02*
X004767Y004913D01*
X004842Y004988D01*
X004842Y005834D02*
X004842Y006134D01*
X004842Y005984D02*
X004391Y005984D01*
X004541Y005834D01*
X005391Y005984D02*
X005541Y005834D01*
X005391Y005984D02*
X005842Y005984D01*
X005842Y005834D02*
X005842Y006134D01*
X005767Y006294D02*
X005842Y006369D01*
X005842Y006519D01*
X005767Y006594D01*
X005616Y006594D01*
X005541Y006519D01*
X005541Y006444D01*
X005616Y006294D01*
X005391Y006294D01*
X005391Y006594D01*
X004842Y006519D02*
X004391Y006519D01*
X004616Y006294D01*
X004616Y006594D01*
X006391Y006519D02*
X006391Y006369D01*
X006466Y006294D01*
X006541Y006294D01*
X006616Y006369D01*
X006616Y006519D01*
X006692Y006594D01*
X006767Y006594D01*
X006842Y006519D01*
X006842Y006369D01*
X006767Y006294D01*
X006692Y006294D01*
X006616Y006369D01*
X006616Y006519D02*
X006541Y006594D01*
X006466Y006594D01*
X006391Y006519D01*
X006842Y006134D02*
X006842Y005834D01*
X006541Y005834D02*
X006391Y005984D01*
X006842Y005984D01*
D11*
X000221Y000655D02*
X000221Y000510D01*
X000512Y000510D01*
X000415Y000510D02*
X000415Y000655D01*
X000367Y000703D01*
X000270Y000703D01*
X000221Y000655D01*
X000415Y000607D02*
X000512Y000703D01*
X000512Y000805D02*
X000318Y000805D01*
X000221Y000901D01*
X000318Y000998D01*
X000512Y000998D01*
X000367Y000998D02*
X000367Y000805D01*
X000318Y001099D02*
X000367Y001148D01*
X000367Y001244D01*
X000415Y001293D01*
X000463Y001293D01*
X000512Y001244D01*
X000512Y001148D01*
X000463Y001099D01*
X000318Y001099D02*
X000270Y001099D01*
X000221Y001148D01*
X000221Y001244D01*
X000270Y001293D01*
X000221Y001394D02*
X000221Y001539D01*
X000270Y001587D01*
X000367Y001587D01*
X000415Y001539D01*
X000415Y001394D01*
X000512Y001394D02*
X000221Y001394D01*
X000221Y001689D02*
X000512Y001689D01*
X000512Y001882D01*
X000367Y001785D02*
X000367Y001689D01*
X000221Y001689D02*
X000221Y001882D01*
X000221Y001983D02*
X000221Y002128D01*
X000270Y002177D01*
X000367Y002177D01*
X000415Y002128D01*
X000415Y001983D01*
X000512Y001983D02*
X000221Y001983D01*
X000415Y002080D02*
X000512Y002177D01*
X000512Y002278D02*
X000221Y002278D01*
X000221Y002423D01*
X000270Y002471D01*
X000367Y002471D01*
X000415Y002423D01*
X000415Y002278D01*
X000415Y002375D02*
X000512Y002471D01*
X000367Y002669D02*
X000270Y002573D01*
X000221Y002573D01*
X000367Y002669D02*
X000512Y002669D01*
X000367Y002669D02*
X000270Y002766D01*
X000221Y002766D01*
X000221Y003162D02*
X000221Y003307D01*
X000270Y003355D01*
X000367Y003355D01*
X000415Y003307D01*
X000415Y003162D01*
X000512Y003162D02*
X000221Y003162D01*
X000221Y003457D02*
X000221Y003553D01*
X000221Y003505D02*
X000512Y003505D01*
X000512Y003457D02*
X000512Y003553D01*
X000463Y003948D02*
X000270Y003948D01*
X000221Y003996D01*
X000221Y004093D01*
X000270Y004141D01*
X000367Y004141D02*
X000367Y004044D01*
X000463Y003948D02*
X000512Y003996D01*
X000512Y004093D01*
X000463Y004141D01*
X000367Y004141D01*
X000415Y004242D02*
X000415Y004387D01*
X000367Y004436D01*
X000270Y004436D01*
X000221Y004387D01*
X000221Y004242D01*
X000512Y004242D01*
X000512Y004537D02*
X000512Y004634D01*
X000512Y004585D02*
X000221Y004585D01*
X000221Y004537D02*
X000221Y004634D01*
X000270Y004733D02*
X000463Y004733D01*
X000512Y004782D01*
X000512Y004878D01*
X000463Y004927D01*
X000270Y004927D01*
X000221Y004878D01*
X000221Y004782D01*
X000270Y004733D01*
X000731Y004787D02*
X000828Y004884D01*
X001022Y004884D01*
X000877Y004884D02*
X000877Y004690D01*
X000828Y004690D02*
X000731Y004787D01*
X000828Y004690D02*
X001022Y004690D01*
X000877Y004985D02*
X000877Y005179D01*
X000973Y005082D02*
X000780Y005082D01*
X001022Y005280D02*
X000731Y005473D01*
X000731Y005574D02*
X000731Y005719D01*
X000780Y005768D01*
X000828Y005768D01*
X000877Y005719D01*
X000877Y005574D01*
X001022Y005574D02*
X000731Y005574D01*
X000512Y005617D02*
X000318Y005617D01*
X000221Y005714D01*
X000318Y005811D01*
X000512Y005811D01*
X000512Y005912D02*
X000512Y006057D01*
X000463Y006105D01*
X000415Y006105D01*
X000367Y006057D01*
X000367Y005912D01*
X000367Y005811D02*
X000367Y005617D01*
X000512Y005516D02*
X000512Y005323D01*
X000221Y005323D01*
X001022Y005574D02*
X001022Y005719D01*
X000973Y005768D01*
X000925Y005768D01*
X000877Y005719D01*
X000877Y005869D02*
X000877Y006062D01*
X000973Y005966D02*
X000780Y005966D01*
X000512Y005912D02*
X000221Y005912D01*
X000221Y006057D01*
X000270Y006105D01*
X000318Y006105D01*
X000367Y006057D01*
X000367Y006207D02*
X000367Y006303D01*
X000512Y006207D02*
X000512Y006400D01*
X000512Y006501D02*
X000512Y006695D01*
X000731Y006603D02*
X000731Y006507D01*
X000780Y006458D01*
X000828Y006652D02*
X001022Y006458D01*
X001022Y006652D01*
X000828Y006652D02*
X000780Y006652D01*
X000731Y006603D01*
X000512Y006501D02*
X000221Y006501D01*
X000221Y006400D02*
X000221Y006207D01*
X000512Y006207D01*
X000731Y006357D02*
X001022Y006164D01*
D12*
X021536Y005920D02*
X021536Y005800D01*
X021596Y005740D01*
X021656Y005740D01*
X021717Y005800D01*
X021717Y005920D01*
X021777Y005980D01*
X021837Y005980D01*
X021897Y005920D01*
X021897Y005800D01*
X021837Y005740D01*
X021536Y005612D02*
X021536Y005371D01*
X021536Y005491D02*
X021897Y005491D01*
X021897Y005243D02*
X021777Y005123D01*
X021777Y005183D02*
X021777Y005003D01*
X021897Y005003D02*
X021536Y005003D01*
X021536Y005183D01*
X021596Y005243D01*
X021717Y005243D01*
X021777Y005183D01*
X021837Y004875D02*
X021596Y004875D01*
X021536Y004815D01*
X021536Y004695D01*
X021596Y004635D01*
X021837Y004635D01*
X021897Y004695D01*
X021897Y004815D01*
X021837Y004875D01*
X021717Y004507D02*
X021777Y004447D01*
X021777Y004266D01*
X021897Y004266D02*
X021536Y004266D01*
X021536Y004447D01*
X021596Y004507D01*
X021717Y004507D01*
X021777Y003770D02*
X021837Y003770D01*
X021897Y003710D01*
X021897Y003530D01*
X021536Y003530D01*
X021536Y003710D01*
X021596Y003770D01*
X021656Y003770D01*
X021717Y003710D01*
X021717Y003530D01*
X021777Y003402D02*
X021837Y003402D01*
X021897Y003342D01*
X021897Y003221D01*
X021837Y003161D01*
X021717Y003221D02*
X021717Y003342D01*
X021777Y003402D01*
X021596Y003402D02*
X021536Y003342D01*
X021536Y003221D01*
X021596Y003161D01*
X021656Y003161D01*
X021717Y003221D01*
X021837Y003033D02*
X021536Y003033D01*
X021837Y003033D02*
X021897Y002973D01*
X021897Y002853D01*
X021837Y002793D01*
X021536Y002793D01*
X021596Y002297D02*
X021536Y002237D01*
X021536Y002117D01*
X021596Y002056D01*
X021656Y002056D01*
X021717Y002117D01*
X021717Y002237D01*
X021777Y002297D01*
X021837Y002297D01*
X021897Y002237D01*
X021897Y002117D01*
X021837Y002056D01*
X021656Y001872D02*
X021596Y001932D01*
X021476Y001932D01*
X021536Y001747D02*
X021536Y001627D01*
X021536Y001687D02*
X021897Y001687D01*
X021897Y001627D02*
X021897Y001747D01*
X021717Y001499D02*
X021777Y001439D01*
X021777Y001258D01*
X021897Y001258D02*
X021536Y001258D01*
X021536Y001439D01*
X021596Y001499D01*
X021717Y001499D01*
X021717Y003710D02*
X021777Y003770D01*
X021536Y005920D02*
X021596Y005980D01*
D13*
X021617Y006138D02*
X021617Y006338D01*
X021217Y006338D01*
X021217Y006538D01*
X021617Y006538D01*
X021617Y006738D01*
X022017Y006438D01*
X021617Y006138D01*
X021617Y006146D02*
X021628Y006146D01*
X021617Y006245D02*
X021759Y006245D01*
X021891Y006343D02*
X021217Y006343D01*
X021217Y006442D02*
X022011Y006442D01*
X021880Y006540D02*
X021617Y006540D01*
X021617Y006639D02*
X021749Y006639D01*
X021617Y006737D02*
X021617Y006737D01*
X021617Y001038D02*
X022017Y000738D01*
X021617Y000438D01*
X021617Y000638D01*
X021217Y000638D01*
X021217Y000838D01*
X021617Y000838D01*
X021617Y001038D01*
X021617Y001024D02*
X021635Y001024D01*
X021617Y000926D02*
X021766Y000926D01*
X021897Y000827D02*
X021217Y000827D01*
X021217Y000729D02*
X022005Y000729D01*
X021873Y000630D02*
X021617Y000630D01*
X021617Y000532D02*
X021742Y000532D01*
D14*
X021117Y002638D02*
X021117Y004638D01*
X001117Y004638D01*
X001117Y002638D01*
X021117Y002638D01*
D15*
X002467Y006088D02*
X001539Y006088D01*
X001539Y006864D01*
X002469Y006864D01*
X002469Y006590D01*
X002195Y006590D01*
X002171Y006640D01*
X001887Y006640D01*
X001847Y006592D01*
X001847Y006562D01*
X001729Y006562D01*
X001707Y006540D01*
X001707Y006414D01*
X001733Y006386D01*
X001825Y006386D01*
X001825Y006364D01*
X001847Y006364D01*
X001847Y006386D01*
X001847Y006560D01*
X001831Y006560D01*
X001831Y006360D01*
X001849Y006360D01*
X001889Y006312D01*
X002171Y006312D01*
X002197Y006362D01*
X002467Y006362D01*
X002467Y006088D01*
X001539Y006088D01*
X001539Y006097D02*
X002467Y006097D01*
X002467Y006105D02*
X001539Y006105D01*
X001539Y006114D02*
X002467Y006114D01*
X002467Y006122D02*
X001539Y006122D01*
X001539Y006131D02*
X002467Y006131D01*
X002467Y006139D02*
X001539Y006139D01*
X001539Y006148D02*
X002467Y006148D01*
X002467Y006156D02*
X001539Y006156D01*
X001539Y006165D02*
X002467Y006165D01*
X002467Y006173D02*
X001539Y006173D01*
X001539Y006182D02*
X002467Y006182D01*
X002467Y006190D02*
X001539Y006190D01*
X001539Y006199D02*
X002467Y006199D01*
X002467Y006207D02*
X001539Y006207D01*
X001539Y006216D02*
X002467Y006216D01*
X002467Y006224D02*
X001539Y006224D01*
X001539Y006233D02*
X002467Y006233D01*
X002467Y006241D02*
X001539Y006241D01*
X001539Y006250D02*
X002467Y006250D01*
X002467Y006258D02*
X001539Y006258D01*
X001539Y006267D02*
X002467Y006267D01*
X002467Y006275D02*
X001539Y006275D01*
X001539Y006284D02*
X002467Y006284D01*
X002467Y006292D02*
X001539Y006292D01*
X001539Y006301D02*
X002467Y006301D01*
X002467Y006309D02*
X001539Y006309D01*
X001539Y006318D02*
X001884Y006318D01*
X001877Y006326D02*
X001539Y006326D01*
X001539Y006335D02*
X001870Y006335D01*
X001863Y006343D02*
X001539Y006343D01*
X001539Y006352D02*
X001856Y006352D01*
X001847Y006369D02*
X001831Y006369D01*
X001825Y006369D02*
X001539Y006369D01*
X001539Y006377D02*
X001825Y006377D01*
X001831Y006377D02*
X001847Y006377D01*
X001847Y006386D02*
X001831Y006386D01*
X001825Y006386D02*
X001539Y006386D01*
X001539Y006394D02*
X001725Y006394D01*
X001717Y006403D02*
X001539Y006403D01*
X001539Y006411D02*
X001709Y006411D01*
X001707Y006420D02*
X001539Y006420D01*
X001539Y006428D02*
X001707Y006428D01*
X001707Y006437D02*
X001539Y006437D01*
X001539Y006445D02*
X001707Y006445D01*
X001707Y006454D02*
X001539Y006454D01*
X001539Y006462D02*
X001707Y006462D01*
X001707Y006471D02*
X001539Y006471D01*
X001539Y006479D02*
X001707Y006479D01*
X001707Y006488D02*
X001539Y006488D01*
X001539Y006496D02*
X001707Y006496D01*
X001707Y006505D02*
X001539Y006505D01*
X001539Y006513D02*
X001707Y006513D01*
X001707Y006522D02*
X001539Y006522D01*
X001539Y006530D02*
X001707Y006530D01*
X001707Y006539D02*
X001539Y006539D01*
X001539Y006547D02*
X001714Y006547D01*
X001722Y006556D02*
X001539Y006556D01*
X001539Y006564D02*
X001847Y006564D01*
X001847Y006556D02*
X001831Y006556D01*
X001831Y006547D02*
X001847Y006547D01*
X001847Y006539D02*
X001831Y006539D01*
X001831Y006530D02*
X001847Y006530D01*
X001847Y006522D02*
X001831Y006522D01*
X001831Y006513D02*
X001847Y006513D01*
X001847Y006505D02*
X001831Y006505D01*
X001831Y006496D02*
X001847Y006496D01*
X001847Y006488D02*
X001831Y006488D01*
X001831Y006479D02*
X001847Y006479D01*
X001847Y006471D02*
X001831Y006471D01*
X001831Y006462D02*
X001847Y006462D01*
X001847Y006454D02*
X001831Y006454D01*
X001831Y006445D02*
X001847Y006445D01*
X001847Y006437D02*
X001831Y006437D01*
X001831Y006428D02*
X001847Y006428D01*
X001847Y006420D02*
X001831Y006420D01*
X001831Y006411D02*
X001847Y006411D01*
X001847Y006403D02*
X001831Y006403D01*
X001831Y006394D02*
X001847Y006394D01*
X001831Y006360D02*
X001539Y006360D01*
X001539Y006573D02*
X001847Y006573D01*
X001847Y006581D02*
X001539Y006581D01*
X001539Y006590D02*
X001847Y006590D01*
X001852Y006598D02*
X001539Y006598D01*
X001539Y006607D02*
X001859Y006607D01*
X001866Y006615D02*
X001539Y006615D01*
X001539Y006624D02*
X001873Y006624D01*
X001880Y006632D02*
X001539Y006632D01*
X001539Y006641D02*
X002469Y006641D01*
X002469Y006649D02*
X001539Y006649D01*
X001539Y006658D02*
X002469Y006658D01*
X002469Y006666D02*
X001539Y006666D01*
X001539Y006675D02*
X002469Y006675D01*
X002469Y006683D02*
X001539Y006683D01*
X001539Y006692D02*
X002469Y006692D01*
X002469Y006700D02*
X001539Y006700D01*
X001539Y006709D02*
X002469Y006709D01*
X002469Y006717D02*
X001539Y006717D01*
X001539Y006726D02*
X002469Y006726D01*
X002469Y006734D02*
X001539Y006734D01*
X001539Y006743D02*
X002469Y006743D01*
X002469Y006751D02*
X001539Y006751D01*
X001539Y006760D02*
X002469Y006760D01*
X002469Y006768D02*
X001539Y006768D01*
X001539Y006777D02*
X002469Y006777D01*
X002469Y006785D02*
X001539Y006785D01*
X001539Y006794D02*
X002469Y006794D01*
X002469Y006802D02*
X001539Y006802D01*
X001539Y006811D02*
X002469Y006811D01*
X002469Y006819D02*
X001539Y006819D01*
X001539Y006828D02*
X002469Y006828D01*
X002469Y006836D02*
X001539Y006836D01*
X001539Y006845D02*
X002469Y006845D01*
X002469Y006853D02*
X001539Y006853D01*
X001539Y006862D02*
X002469Y006862D01*
X002469Y006632D02*
X002174Y006632D01*
X002178Y006624D02*
X002469Y006624D01*
X002469Y006615D02*
X002183Y006615D01*
X002187Y006607D02*
X002469Y006607D01*
X002469Y006598D02*
X002191Y006598D01*
X002196Y006360D02*
X002467Y006360D01*
X002467Y006352D02*
X002191Y006352D01*
X002187Y006343D02*
X002467Y006343D01*
X002467Y006335D02*
X002182Y006335D01*
X002178Y006326D02*
X002467Y006326D01*
X002467Y006318D02*
X002174Y006318D01*
M02*
