G75*
%MOIN*%
%OFA0B0*%
%FSLAX24Y24*%
%IPPOS*%
%LPD*%
%AMOC8*
5,1,8,0,0,1.08239X$1,22.5*
%
%ADD10C,0.0650*%
D10*
X005743Y001605D03*
X006743Y001605D03*
X006743Y002605D03*
X005743Y002605D03*
X005743Y003605D03*
X006743Y003605D03*
X006743Y004605D03*
X005743Y004605D03*
X005743Y005605D03*
X006743Y005605D03*
X006743Y006605D03*
X005743Y006605D03*
X005743Y007605D03*
X006743Y007605D03*
X006743Y008605D03*
X005743Y008605D03*
X005743Y009605D03*
X006743Y009605D03*
X006743Y010605D03*
X005743Y010605D03*
X005743Y011605D03*
X006743Y011605D03*
X006743Y012605D03*
X005743Y012605D03*
X005743Y013605D03*
X006743Y013605D03*
X006743Y014605D03*
X005743Y014605D03*
X005743Y015605D03*
X006743Y015605D03*
X006743Y016605D03*
X005743Y016605D03*
X005743Y017605D03*
X006743Y017605D03*
X006743Y018605D03*
X005743Y018605D03*
X005743Y019605D03*
X006743Y019605D03*
X006743Y020605D03*
X005743Y020605D03*
X013018Y020605D03*
X014018Y020605D03*
X014018Y019605D03*
X013018Y019605D03*
X013018Y018605D03*
X014018Y018605D03*
X014018Y017605D03*
X013018Y017605D03*
X013018Y016605D03*
X014018Y016605D03*
X014018Y015605D03*
X013018Y015605D03*
X013018Y014605D03*
X014018Y014605D03*
X014018Y013605D03*
X013018Y013605D03*
X013018Y012605D03*
X014018Y012605D03*
X014018Y011605D03*
X013018Y011605D03*
X013018Y010605D03*
X014018Y010605D03*
X014018Y009605D03*
X013018Y009605D03*
X013018Y008605D03*
X014018Y008605D03*
X014018Y007605D03*
X013018Y007605D03*
X013018Y006605D03*
X014018Y006605D03*
X014018Y005605D03*
X013018Y005605D03*
X013018Y004605D03*
X014018Y004605D03*
X014018Y003605D03*
X013018Y003605D03*
X013018Y002605D03*
X014018Y002605D03*
X014018Y001605D03*
X013018Y001605D03*
X020294Y001605D03*
X021294Y001605D03*
X021294Y002605D03*
X020294Y002605D03*
X020294Y003605D03*
X021294Y003605D03*
X021294Y004605D03*
X020294Y004605D03*
X020294Y005605D03*
X021294Y005605D03*
X021294Y006605D03*
X020294Y006605D03*
X020294Y007605D03*
X021294Y007605D03*
X021294Y008605D03*
X020294Y008605D03*
X020294Y009605D03*
X021294Y009605D03*
X021294Y010605D03*
X020294Y010605D03*
X020294Y011605D03*
X021294Y011605D03*
X021294Y012605D03*
X020294Y012605D03*
X020294Y013605D03*
X021294Y013605D03*
X021294Y014605D03*
X020294Y014605D03*
X020294Y015605D03*
X021294Y015605D03*
X021294Y016605D03*
X020294Y016605D03*
X020294Y017605D03*
X021294Y017605D03*
X021294Y018605D03*
X020294Y018605D03*
X020294Y019605D03*
X021294Y019605D03*
X021294Y020605D03*
X020294Y020605D03*
X027570Y020605D03*
X028570Y020605D03*
X028570Y019605D03*
X027570Y019605D03*
X027570Y018605D03*
X028570Y018605D03*
X028570Y017605D03*
X027570Y017605D03*
X027570Y016605D03*
X028570Y016605D03*
X028570Y015605D03*
X027570Y015605D03*
X027570Y014605D03*
X028570Y014605D03*
X028570Y013605D03*
X027570Y013605D03*
X027570Y012605D03*
X028570Y012605D03*
X028570Y011605D03*
X027570Y011605D03*
X027570Y010605D03*
X028570Y010605D03*
X028570Y009605D03*
X027570Y009605D03*
X027570Y008605D03*
X028570Y008605D03*
X028570Y007605D03*
X027570Y007605D03*
X027570Y006605D03*
X028570Y006605D03*
X028570Y005605D03*
X027570Y005605D03*
X027570Y004605D03*
X028570Y004605D03*
X028570Y003605D03*
X027570Y003605D03*
X027570Y002605D03*
X028570Y002605D03*
X028570Y001605D03*
X027570Y001605D03*
M02*
